STARTFONT 2.1
FONT -ETL&COMPAQ-Fixed-Medium-R-Normal--16-160-72-72-C-80-ISO10646-1
SIZE 16 72 72
FONTBOUNDINGBOX 8 18 0 -3

STARTPROPERTIES 23
FONTNAME_REGISTRY ""
FOUNDRY "ETL&COMPAQ"
FAMILY_NAME "Fixed"
WEIGHT_NAME "Medium"
SLANT "R"
SETWIDTH_NAME "Normal"
ADD_STYLE_NAME ""
PIXEL_SIZE 16
POINT_SIZE 160
RESOLUTION_X 72
RESOLUTION_Y 72
SPACING "C"
AVERAGE_WIDTH 80
CHARSET_REGISTRY "ISO10646"
CHARSET_ENCODING "1"
COPYRIGHT "Public domain font. Share and enjoy."
_XMBDFED_INFO "Edited with xmbdfed 3.6."
WEIGHT 10
X_HEIGHT 0
QUAD_WIDTH 8
DEFAULT_CHAR 32
FONT_DESCENT 3
FONT_ASCENT 15
ENDPROPERTIES

CHARS 1840

STARTCHAR SPACE
ENCODING 32
SWIDTH 500 0
DWIDTH 8 0
BBX 8 18 0 -3
BITMAP
00
00
00
00
00
00
00
00
00
00
00
00
00
00
00
00
00
00
ENDCHAR

STARTCHAR EXCLAMATION
ENCODING 33
SWIDTH 500 0
DWIDTH 8 0
BBX 8 18 0 -3
BITMAP
00
00
00
00
00
08
08
08
08
08
08
08
00
08
08
00
00
00
ENDCHAR

STARTCHAR QUOTATION
ENCODING 34
SWIDTH 500 0
DWIDTH 8 0
BBX 8 18 0 -3
BITMAP
00
00
00
66
22
22
44
00
00
00
00
00
00
00
00
00
00
00
ENDCHAR

STARTCHAR NUMBER
ENCODING 35
SWIDTH 500 0
DWIDTH 8 0
BBX 8 18 0 -3
BITMAP
00
00
00
00
00
12
12
12
7E
24
24
7E
48
48
48
00
00
00
ENDCHAR

STARTCHAR DOLLAR
ENCODING 36
SWIDTH 500 0
DWIDTH 8 0
BBX 8 18 0 -3
BITMAP
00
00
00
00
00
08
3E
49
48
38
0E
09
49
3E
08
00
00
00
ENDCHAR

STARTCHAR PERCENT
ENCODING 37
SWIDTH 500 0
DWIDTH 8 0
BBX 8 18 0 -3
BITMAP
00
00
00
00
00
31
4A
4A
34
08
08
16
29
29
46
00
00
00
ENDCHAR

STARTCHAR AMPERSAND
ENCODING 38
SWIDTH 500 0
DWIDTH 8 0
BBX 8 18 0 -3
BITMAP
00
00
00
00
00
1C
22
22
22
1C
39
45
42
46
39
00
00
00
ENDCHAR

STARTCHAR APOSTROPHE
ENCODING 39
SWIDTH 500 0
DWIDTH 8 0
BBX 8 18 0 -3
BITMAP
00
00
00
18
08
08
10
00
00
00
00
00
00
00
00
00
00
00
ENDCHAR

STARTCHAR LEFT
ENCODING 40
SWIDTH 500 0
DWIDTH 8 0
BBX 8 18 0 -3
BITMAP
00
00
00
00
04
08
08
10
10
10
10
10
10
08
08
04
00
00
ENDCHAR

STARTCHAR RIGHT
ENCODING 41
SWIDTH 500 0
DWIDTH 8 0
BBX 8 18 0 -3
BITMAP
00
00
00
00
20
10
10
08
08
08
08
08
08
10
10
20
00
00
ENDCHAR

STARTCHAR ASTERISK
ENCODING 42
SWIDTH 500 0
DWIDTH 8 0
BBX 8 18 0 -3
BITMAP
00
00
00
00
00
00
00
08
49
2A
1C
2A
49
08
00
00
00
00
ENDCHAR

STARTCHAR PLUS
ENCODING 43
SWIDTH 500 0
DWIDTH 8 0
BBX 8 18 0 -3
BITMAP
00
00
00
00
00
00
00
08
08
08
7F
08
08
08
00
00
00
00
ENDCHAR

STARTCHAR COMMA
ENCODING 44
SWIDTH 500 0
DWIDTH 8 0
BBX 8 18 0 -3
BITMAP
00
00
00
00
00
00
00
00
00
00
00
00
00
18
08
08
10
00
ENDCHAR

STARTCHAR HYPHEN-MINUS
ENCODING 45
SWIDTH 500 0
DWIDTH 8 0
BBX 8 18 0 -3
BITMAP
00
00
00
00
00
00
00
00
00
00
7E
00
00
00
00
00
00
00
ENDCHAR

STARTCHAR FULL
ENCODING 46
SWIDTH 500 0
DWIDTH 8 0
BBX 8 18 0 -3
BITMAP
00
00
00
00
00
00
00
00
00
00
00
00
00
18
18
00
00
00
ENDCHAR

STARTCHAR SOLIDUS
ENCODING 47
SWIDTH 500 0
DWIDTH 8 0
BBX 8 18 0 -3
BITMAP
00
00
00
00
00
02
02
04
08
08
10
10
20
40
40
00
00
00
ENDCHAR

STARTCHAR DIGIT
ENCODING 48
SWIDTH 500 0
DWIDTH 8 0
BBX 8 18 0 -3
BITMAP
00
00
00
00
00
18
24
42
42
42
42
42
42
24
18
00
00
00
ENDCHAR

STARTCHAR DIGIT
ENCODING 49
SWIDTH 500 0
DWIDTH 8 0
BBX 8 18 0 -3
BITMAP
00
00
00
00
00
08
18
28
08
08
08
08
08
08
3E
00
00
00
ENDCHAR

STARTCHAR DIGIT
ENCODING 50
SWIDTH 500 0
DWIDTH 8 0
BBX 8 18 0 -3
BITMAP
00
00
00
00
00
3C
42
42
02
0C
10
20
40
40
7E
00
00
00
ENDCHAR

STARTCHAR DIGIT
ENCODING 51
SWIDTH 500 0
DWIDTH 8 0
BBX 8 18 0 -3
BITMAP
00
00
00
00
00
3C
42
42
02
1C
02
02
42
42
3C
00
00
00
ENDCHAR

STARTCHAR DIGIT
ENCODING 52
SWIDTH 500 0
DWIDTH 8 0
BBX 8 18 0 -3
BITMAP
00
00
00
00
00
04
0C
14
24
44
44
7E
04
04
04
00
00
00
ENDCHAR

STARTCHAR DIGIT
ENCODING 53
SWIDTH 500 0
DWIDTH 8 0
BBX 8 18 0 -3
BITMAP
00
00
00
00
00
7E
40
40
40
7C
02
02
02
42
3C
00
00
00
ENDCHAR

STARTCHAR DIGIT
ENCODING 54
SWIDTH 500 0
DWIDTH 8 0
BBX 8 18 0 -3
BITMAP
00
00
00
00
00
1C
20
40
40
7C
42
42
42
42
3C
00
00
00
ENDCHAR

STARTCHAR DIGIT
ENCODING 55
SWIDTH 500 0
DWIDTH 8 0
BBX 8 18 0 -3
BITMAP
00
00
00
00
00
7E
02
02
04
04
04
08
08
08
08
00
00
00
ENDCHAR

STARTCHAR DIGIT
ENCODING 56
SWIDTH 500 0
DWIDTH 8 0
BBX 8 18 0 -3
BITMAP
00
00
00
00
00
3C
42
42
42
3C
42
42
42
42
3C
00
00
00
ENDCHAR

STARTCHAR DIGIT
ENCODING 57
SWIDTH 500 0
DWIDTH 8 0
BBX 8 18 0 -3
BITMAP
00
00
00
00
00
3C
42
42
42
3E
02
02
02
04
38
00
00
00
ENDCHAR

STARTCHAR COLON
ENCODING 58
SWIDTH 500 0
DWIDTH 8 0
BBX 8 18 0 -3
BITMAP
00
00
00
00
00
00
00
18
18
00
00
00
18
18
00
00
00
00
ENDCHAR

STARTCHAR SEMICOLON
ENCODING 59
SWIDTH 500 0
DWIDTH 8 0
BBX 8 18 0 -3
BITMAP
00
00
00
00
00
00
00
18
18
00
00
00
18
08
08
10
00
00
ENDCHAR

STARTCHAR LESS-THAN
ENCODING 60
SWIDTH 500 0
DWIDTH 8 0
BBX 8 18 0 -3
BITMAP
00
00
00
00
00
00
02
04
08
10
20
10
08
04
02
00
00
00
ENDCHAR

STARTCHAR EQUALS
ENCODING 61
SWIDTH 500 0
DWIDTH 8 0
BBX 8 18 0 -3
BITMAP
00
00
00
00
00
00
00
00
7E
00
00
00
7E
00
00
00
00
00
ENDCHAR

STARTCHAR GREATER-THAN
ENCODING 62
SWIDTH 500 0
DWIDTH 8 0
BBX 8 18 0 -3
BITMAP
00
00
00
00
00
00
40
20
10
08
04
08
10
20
40
00
00
00
ENDCHAR

STARTCHAR QUESTION
ENCODING 63
SWIDTH 500 0
DWIDTH 8 0
BBX 8 18 0 -3
BITMAP
00
00
00
00
00
3C
42
42
02
04
08
08
00
08
08
00
00
00
ENDCHAR

STARTCHAR COMMERCIAL
ENCODING 64
SWIDTH 500 0
DWIDTH 8 0
BBX 8 18 0 -3
BITMAP
00
00
00
00
00
1C
22
4A
56
52
52
52
4E
20
1E
00
00
00
ENDCHAR

STARTCHAR LATIN
ENCODING 65
SWIDTH 500 0
DWIDTH 8 0
BBX 8 18 0 -3
BITMAP
00
00
00
00
00
18
24
24
42
42
7E
42
42
42
42
00
00
00
ENDCHAR

STARTCHAR LATIN
ENCODING 66
SWIDTH 500 0
DWIDTH 8 0
BBX 8 18 0 -3
BITMAP
00
00
00
00
00
7C
42
42
42
7C
42
42
42
42
7C
00
00
00
ENDCHAR

STARTCHAR LATIN
ENCODING 67
SWIDTH 500 0
DWIDTH 8 0
BBX 8 18 0 -3
BITMAP
00
00
00
00
00
3C
42
42
40
40
40
40
42
42
3C
00
00
00
ENDCHAR

STARTCHAR LATIN
ENCODING 68
SWIDTH 500 0
DWIDTH 8 0
BBX 8 18 0 -3
BITMAP
00
00
00
00
00
78
44
42
42
42
42
42
42
44
78
00
00
00
ENDCHAR

STARTCHAR LATIN
ENCODING 69
SWIDTH 500 0
DWIDTH 8 0
BBX 8 18 0 -3
BITMAP
00
00
00
00
00
7E
40
40
40
7C
40
40
40
40
7E
00
00
00
ENDCHAR

STARTCHAR LATIN
ENCODING 70
SWIDTH 500 0
DWIDTH 8 0
BBX 8 18 0 -3
BITMAP
00
00
00
00
00
7E
40
40
40
7C
40
40
40
40
40
00
00
00
ENDCHAR

STARTCHAR LATIN
ENCODING 71
SWIDTH 500 0
DWIDTH 8 0
BBX 8 18 0 -3
BITMAP
00
00
00
00
00
3C
42
42
40
40
4E
42
42
46
3A
00
00
00
ENDCHAR

STARTCHAR LATIN
ENCODING 72
SWIDTH 500 0
DWIDTH 8 0
BBX 8 18 0 -3
BITMAP
00
00
00
00
00
42
42
42
42
7E
42
42
42
42
42
00
00
00
ENDCHAR

STARTCHAR LATIN
ENCODING 73
SWIDTH 500 0
DWIDTH 8 0
BBX 8 18 0 -3
BITMAP
00
00
00
00
00
3E
08
08
08
08
08
08
08
08
3E
00
00
00
ENDCHAR

STARTCHAR LATIN
ENCODING 74
SWIDTH 500 0
DWIDTH 8 0
BBX 8 18 0 -3
BITMAP
00
00
00
00
00
1F
04
04
04
04
04
04
44
44
38
00
00
00
ENDCHAR

STARTCHAR LATIN
ENCODING 75
SWIDTH 500 0
DWIDTH 8 0
BBX 8 18 0 -3
BITMAP
00
00
00
00
00
42
44
48
50
60
60
50
48
44
42
00
00
00
ENDCHAR

STARTCHAR LATIN
ENCODING 76
SWIDTH 500 0
DWIDTH 8 0
BBX 8 18 0 -3
BITMAP
00
00
00
00
00
40
40
40
40
40
40
40
40
40
7E
00
00
00
ENDCHAR

STARTCHAR LATIN
ENCODING 77
SWIDTH 500 0
DWIDTH 8 0
BBX 8 18 0 -3
BITMAP
00
00
00
00
00
42
42
66
66
5A
5A
42
42
42
42
00
00
00
ENDCHAR

STARTCHAR LATIN
ENCODING 78
SWIDTH 500 0
DWIDTH 8 0
BBX 8 18 0 -3
BITMAP
00
00
00
00
00
42
62
62
52
52
4A
4A
46
46
42
00
00
00
ENDCHAR

STARTCHAR LATIN
ENCODING 79
SWIDTH 500 0
DWIDTH 8 0
BBX 8 18 0 -3
BITMAP
00
00
00
00
00
3C
42
42
42
42
42
42
42
42
3C
00
00
00
ENDCHAR

STARTCHAR LATIN
ENCODING 80
SWIDTH 500 0
DWIDTH 8 0
BBX 8 18 0 -3
BITMAP
00
00
00
00
00
7C
42
42
42
7C
40
40
40
40
40
00
00
00
ENDCHAR

STARTCHAR LATIN
ENCODING 81
SWIDTH 500 0
DWIDTH 8 0
BBX 8 18 0 -3
BITMAP
00
00
00
00
00
3C
42
42
42
42
42
42
5A
66
3C
03
00
00
ENDCHAR

STARTCHAR LATIN
ENCODING 82
SWIDTH 500 0
DWIDTH 8 0
BBX 8 18 0 -3
BITMAP
00
00
00
00
00
7C
42
42
42
7C
48
44
44
42
42
00
00
00
ENDCHAR

STARTCHAR LATIN
ENCODING 83
SWIDTH 500 0
DWIDTH 8 0
BBX 8 18 0 -3
BITMAP
00
00
00
00
00
3C
42
42
40
30
0C
02
42
42
3C
00
00
00
ENDCHAR

STARTCHAR LATIN
ENCODING 84
SWIDTH 500 0
DWIDTH 8 0
BBX 8 18 0 -3
BITMAP
00
00
00
00
00
7F
08
08
08
08
08
08
08
08
08
00
00
00
ENDCHAR

STARTCHAR LATIN
ENCODING 85
SWIDTH 500 0
DWIDTH 8 0
BBX 8 18 0 -3
BITMAP
00
00
00
00
00
42
42
42
42
42
42
42
42
42
3C
00
00
00
ENDCHAR

STARTCHAR LATIN
ENCODING 86
SWIDTH 500 0
DWIDTH 8 0
BBX 8 18 0 -3
BITMAP
00
00
00
00
00
41
41
41
22
22
22
14
14
08
08
00
00
00
ENDCHAR

STARTCHAR LATIN
ENCODING 87
SWIDTH 500 0
DWIDTH 8 0
BBX 8 18 0 -3
BITMAP
00
00
00
00
00
42
42
42
42
5A
5A
66
66
42
42
00
00
00
ENDCHAR

STARTCHAR LATIN
ENCODING 88
SWIDTH 500 0
DWIDTH 8 0
BBX 8 18 0 -3
BITMAP
00
00
00
00
00
42
42
24
24
18
18
24
24
42
42
00
00
00
ENDCHAR

STARTCHAR LATIN
ENCODING 89
SWIDTH 500 0
DWIDTH 8 0
BBX 8 18 0 -3
BITMAP
00
00
00
00
00
41
41
22
22
14
08
08
08
08
08
00
00
00
ENDCHAR

STARTCHAR LATIN
ENCODING 90
SWIDTH 500 0
DWIDTH 8 0
BBX 8 18 0 -3
BITMAP
00
00
00
00
00
7E
02
02
04
08
10
20
40
40
7E
00
00
00
ENDCHAR

STARTCHAR LEFT
ENCODING 91
SWIDTH 500 0
DWIDTH 8 0
BBX 8 18 0 -3
BITMAP
00
00
00
00
0E
08
08
08
08
08
08
08
08
08
08
0E
00
00
ENDCHAR

STARTCHAR REVERSE
ENCODING 92
SWIDTH 500 0
DWIDTH 8 0
BBX 8 18 0 -3
BITMAP
00
00
00
00
00
40
40
20
10
10
08
08
04
02
02
00
00
00
ENDCHAR

STARTCHAR RIGHT
ENCODING 93
SWIDTH 500 0
DWIDTH 8 0
BBX 8 18 0 -3
BITMAP
00
00
00
00
70
10
10
10
10
10
10
10
10
10
10
70
00
00
ENDCHAR

STARTCHAR CIRCUMFLEX
ENCODING 94
SWIDTH 500 0
DWIDTH 8 0
BBX 8 18 0 -3
BITMAP
00
00
00
18
24
42
00
00
00
00
00
00
00
00
00
00
00
00
ENDCHAR

STARTCHAR LOW
ENCODING 95
SWIDTH 500 0
DWIDTH 8 0
BBX 8 18 0 -3
BITMAP
00
00
00
00
00
00
00
00
00
00
00
00
00
00
00
7F
00
00
ENDCHAR

STARTCHAR GRAVE
ENCODING 96
SWIDTH 500 0
DWIDTH 8 0
BBX 8 18 0 -3
BITMAP
00
00
00
18
10
10
08
00
00
00
00
00
00
00
00
00
00
00
ENDCHAR

STARTCHAR LATIN
ENCODING 97
SWIDTH 500 0
DWIDTH 8 0
BBX 8 18 0 -3
BITMAP
00
00
00
00
00
00
00
3C
42
02
3E
42
42
46
3A
00
00
00
ENDCHAR

STARTCHAR LATIN
ENCODING 98
SWIDTH 500 0
DWIDTH 8 0
BBX 8 18 0 -3
BITMAP
00
00
00
00
40
40
40
5C
62
42
42
42
42
62
5C
00
00
00
ENDCHAR

STARTCHAR LATIN
ENCODING 99
SWIDTH 500 0
DWIDTH 8 0
BBX 8 18 0 -3
BITMAP
00
00
00
00
00
00
00
3C
42
40
40
40
40
42
3C
00
00
00
ENDCHAR

STARTCHAR LATIN
ENCODING 100
SWIDTH 500 0
DWIDTH 8 0
BBX 8 18 0 -3
BITMAP
00
00
00
00
02
02
02
3A
46
42
42
42
42
46
3A
00
00
00
ENDCHAR

STARTCHAR LATIN
ENCODING 101
SWIDTH 500 0
DWIDTH 8 0
BBX 8 18 0 -3
BITMAP
00
00
00
00
00
00
00
3C
42
42
7E
40
40
42
3C
00
00
00
ENDCHAR

STARTCHAR LATIN
ENCODING 102
SWIDTH 500 0
DWIDTH 8 0
BBX 8 18 0 -3
BITMAP
00
00
00
00
0C
10
10
10
7C
10
10
10
10
10
10
00
00
00
ENDCHAR

STARTCHAR LATIN
ENCODING 103
SWIDTH 500 0
DWIDTH 8 0
BBX 8 18 0 -3
BITMAP
00
00
00
00
00
00
02
3A
44
44
44
38
20
3C
42
42
3C
00
ENDCHAR

STARTCHAR LATIN
ENCODING 104
SWIDTH 500 0
DWIDTH 8 0
BBX 8 18 0 -3
BITMAP
00
00
00
00
40
40
40
5C
62
42
42
42
42
42
42
00
00
00
ENDCHAR

STARTCHAR LATIN
ENCODING 105
SWIDTH 500 0
DWIDTH 8 0
BBX 8 18 0 -3
BITMAP
00
00
00
00
08
08
00
18
08
08
08
08
08
08
3E
00
00
00
ENDCHAR

STARTCHAR LATIN
ENCODING 106
SWIDTH 500 0
DWIDTH 8 0
BBX 8 18 0 -3
BITMAP
00
00
00
00
04
04
00
0C
04
04
04
04
04
04
04
48
30
00
ENDCHAR

STARTCHAR LATIN
ENCODING 107
SWIDTH 500 0
DWIDTH 8 0
BBX 8 18 0 -3
BITMAP
00
00
00
00
00
40
40
44
48
50
60
50
48
44
42
00
00
00
ENDCHAR

STARTCHAR LATIN
ENCODING 108
SWIDTH 500 0
DWIDTH 8 0
BBX 8 18 0 -3
BITMAP
00
00
00
00
00
18
08
08
08
08
08
08
08
08
3E
00
00
00
ENDCHAR

STARTCHAR LATIN
ENCODING 109
SWIDTH 500 0
DWIDTH 8 0
BBX 8 18 0 -3
BITMAP
00
00
00
00
00
00
00
76
49
49
49
49
49
49
49
00
00
00
ENDCHAR

STARTCHAR LATIN
ENCODING 110
SWIDTH 500 0
DWIDTH 8 0
BBX 8 18 0 -3
BITMAP
00
00
00
00
00
00
00
5C
62
42
42
42
42
42
42
00
00
00
ENDCHAR

STARTCHAR LATIN
ENCODING 111
SWIDTH 500 0
DWIDTH 8 0
BBX 8 18 0 -3
BITMAP
00
00
00
00
00
00
00
3C
42
42
42
42
42
42
3C
00
00
00
ENDCHAR

STARTCHAR LATIN
ENCODING 112
SWIDTH 500 0
DWIDTH 8 0
BBX 8 18 0 -3
BITMAP
00
00
00
00
00
00
00
5C
62
42
42
42
42
62
5C
40
40
00
ENDCHAR

STARTCHAR LATIN
ENCODING 113
SWIDTH 500 0
DWIDTH 8 0
BBX 8 18 0 -3
BITMAP
00
00
00
00
00
00
00
3A
46
42
42
42
42
46
3A
02
02
00
ENDCHAR

STARTCHAR LATIN
ENCODING 114
SWIDTH 500 0
DWIDTH 8 0
BBX 8 18 0 -3
BITMAP
00
00
00
00
00
00
00
5C
62
42
40
40
40
40
40
00
00
00
ENDCHAR

STARTCHAR LATIN
ENCODING 115
SWIDTH 500 0
DWIDTH 8 0
BBX 8 18 0 -3
BITMAP
00
00
00
00
00
00
00
3C
42
40
30
0C
02
42
3C
00
00
00
ENDCHAR

STARTCHAR LATIN
ENCODING 116
SWIDTH 500 0
DWIDTH 8 0
BBX 8 18 0 -3
BITMAP
00
00
00
00
00
10
10
7C
10
10
10
10
10
10
0C
00
00
00
ENDCHAR

STARTCHAR LATIN
ENCODING 117
SWIDTH 500 0
DWIDTH 8 0
BBX 8 18 0 -3
BITMAP
00
00
00
00
00
00
00
42
42
42
42
42
42
46
3A
00
00
00
ENDCHAR

STARTCHAR LATIN
ENCODING 118
SWIDTH 500 0
DWIDTH 8 0
BBX 8 18 0 -3
BITMAP
00
00
00
00
00
00
00
42
42
42
24
24
24
18
18
00
00
00
ENDCHAR

STARTCHAR LATIN
ENCODING 119
SWIDTH 500 0
DWIDTH 8 0
BBX 8 18 0 -3
BITMAP
00
00
00
00
00
00
00
41
49
49
49
49
49
49
36
00
00
00
ENDCHAR

STARTCHAR LATIN
ENCODING 120
SWIDTH 500 0
DWIDTH 8 0
BBX 8 18 0 -3
BITMAP
00
00
00
00
00
00
00
42
42
24
18
18
24
42
42
00
00
00
ENDCHAR

STARTCHAR LATIN
ENCODING 121
SWIDTH 500 0
DWIDTH 8 0
BBX 8 18 0 -3
BITMAP
00
00
00
00
00
00
00
42
42
42
42
42
26
1A
02
02
3C
00
ENDCHAR

STARTCHAR LATIN
ENCODING 122
SWIDTH 500 0
DWIDTH 8 0
BBX 8 18 0 -3
BITMAP
00
00
00
00
00
00
00
7E
02
04
08
10
20
40
7E
00
00
00
ENDCHAR

STARTCHAR LEFT
ENCODING 123
SWIDTH 500 0
DWIDTH 8 0
BBX 8 18 0 -3
BITMAP
00
00
00
00
0C
10
10
08
08
10
10
08
08
10
10
0C
00
00
ENDCHAR

STARTCHAR VERTICAL
ENCODING 124
SWIDTH 500 0
DWIDTH 8 0
BBX 8 18 0 -3
BITMAP
00
00
00
08
08
08
08
08
08
08
08
08
08
08
08
08
08
00
ENDCHAR

STARTCHAR RIGHT
ENCODING 125
SWIDTH 500 0
DWIDTH 8 0
BBX 8 18 0 -3
BITMAP
00
00
00
00
30
08
08
10
10
08
08
10
10
08
08
30
00
00
ENDCHAR

STARTCHAR TILDE
ENCODING 126
SWIDTH 500 0
DWIDTH 8 0
BBX 8 18 0 -3
BITMAP
00
00
00
00
31
49
46
00
00
00
00
00
00
00
00
00
00
00
ENDCHAR

STARTCHAR NO-BREAK
ENCODING 160
SWIDTH 500 0
DWIDTH 8 0
BBX 8 18 0 -3
BITMAP
00
00
00
00
00
00
00
00
00
00
00
00
00
00
00
00
00
00
ENDCHAR

STARTCHAR INVERTED
ENCODING 161
SWIDTH 500 0
DWIDTH 8 0
BBX 8 18 0 -3
BITMAP
00
00
00
00
00
08
08
00
08
08
08
08
08
08
08
00
00
00
ENDCHAR

STARTCHAR CENT
ENCODING 162
SWIDTH 500 0
DWIDTH 8 0
BBX 8 18 0 -3
BITMAP
00
00
00
00
00
08
08
3E
49
48
48
49
3E
08
08
00
00
00
ENDCHAR

STARTCHAR POUND
ENCODING 163
SWIDTH 500 0
DWIDTH 8 0
BBX 8 18 0 -3
BITMAP
00
00
00
00
00
0E
10
10
10
7C
10
10
10
3E
61
00
00
00
ENDCHAR

STARTCHAR CURRENCY
ENCODING 164
SWIDTH 500 0
DWIDTH 8 0
BBX 8 18 0 -3
BITMAP
00
00
00
00
00
00
42
24
3C
24
24
3C
24
42
00
00
00
00
ENDCHAR

STARTCHAR YEN
ENCODING 165
SWIDTH 500 0
DWIDTH 8 0
BBX 8 18 0 -3
BITMAP
00
00
00
00
00
41
22
14
08
7F
08
7F
08
08
08
00
00
00
ENDCHAR

STARTCHAR BROKEN
ENCODING 166
SWIDTH 500 0
DWIDTH 8 0
BBX 8 18 0 -3
BITMAP
00
00
00
00
00
08
08
08
08
00
00
08
08
08
08
00
00
00
ENDCHAR

STARTCHAR SECTION
ENCODING 167
SWIDTH 500 0
DWIDTH 8 0
BBX 8 18 0 -3
BITMAP
00
00
00
00
00
3C
42
40
3C
42
42
3C
02
42
3C
00
00
00
ENDCHAR

STARTCHAR DIAERESIS
ENCODING 168
SWIDTH 500 0
DWIDTH 8 0
BBX 8 18 0 -3
BITMAP
00
24
24
00
00
00
00
00
00
00
00
00
00
00
00
00
00
00
ENDCHAR

STARTCHAR COPYRIGHT
ENCODING 169
SWIDTH 500 0
DWIDTH 8 0
BBX 8 18 0 -3
BITMAP
00
00
00
00
00
3C
42
5A
66
62
62
66
5A
42
3C
00
00
00
ENDCHAR

STARTCHAR FEMININE
ENCODING 170
SWIDTH 500 0
DWIDTH 8 0
BBX 8 18 0 -3
BITMAP
00
00
00
1C
02
1E
22
1E
00
3E
00
00
00
00
00
00
00
00
ENDCHAR

STARTCHAR LEFT-POINTING
ENCODING 171
SWIDTH 500 0
DWIDTH 8 0
BBX 8 18 0 -3
BITMAP
00
00
00
00
00
00
12
12
24
24
48
24
24
12
12
00
00
00
ENDCHAR

STARTCHAR NOT
ENCODING 172
SWIDTH 500 0
DWIDTH 8 0
BBX 8 18 0 -3
BITMAP
00
00
00
00
00
00
00
00
00
00
00
7E
02
02
02
00
00
00
ENDCHAR

STARTCHAR SOFT
ENCODING 173
SWIDTH 500 0
DWIDTH 8 0
BBX 8 18 0 -3
BITMAP
00
00
00
00
00
00
00
00
00
00
7E
00
00
00
00
00
00
00
ENDCHAR

STARTCHAR REGISTERED
ENCODING 174
SWIDTH 500 0
DWIDTH 8 0
BBX 8 18 0 -3
BITMAP
00
00
00
00
00
3C
42
7A
66
66
7A
6A
66
42
3C
00
00
00
ENDCHAR

STARTCHAR MACRON
ENCODING 175
SWIDTH 500 0
DWIDTH 8 0
BBX 8 18 0 -3
BITMAP
00
00
00
7E
00
00
00
00
00
00
00
00
00
00
00
00
00
00
ENDCHAR

STARTCHAR DEGREE
ENCODING 176
SWIDTH 500 0
DWIDTH 8 0
BBX 8 18 0 -3
BITMAP
00
10
28
28
10
00
00
00
00
00
00
00
00
00
00
00
00
00
ENDCHAR

STARTCHAR PLUS-MINUS
ENCODING 177
SWIDTH 500 0
DWIDTH 8 0
BBX 8 18 0 -3
BITMAP
00
00
00
00
00
08
08
08
7F
08
08
08
00
7F
00
00
00
00
ENDCHAR

STARTCHAR SUPERSCRIPT
ENCODING 178
SWIDTH 500 0
DWIDTH 8 0
BBX 8 18 0 -3
BITMAP
00
00
00
1C
22
02
1C
20
20
3E
00
00
00
00
00
00
00
00
ENDCHAR

STARTCHAR SUPERSCRIPT
ENCODING 179
SWIDTH 500 0
DWIDTH 8 0
BBX 8 18 0 -3
BITMAP
00
00
00
1C
22
02
1C
02
22
1C
00
00
00
00
00
00
00
00
ENDCHAR

STARTCHAR ACUTE
ENCODING 180
SWIDTH 500 0
DWIDTH 8 0
BBX 8 18 0 -3
BITMAP
00
0C
30
00
00
00
00
00
00
00
00
00
00
00
00
00
00
00
ENDCHAR

STARTCHAR MICRO
ENCODING 181
SWIDTH 500 0
DWIDTH 8 0
BBX 8 18 0 -3
BITMAP
00
00
00
00
00
00
00
00
00
22
22
22
22
36
2A
20
20
00
ENDCHAR

STARTCHAR PILCROW
ENCODING 182
SWIDTH 500 0
DWIDTH 8 0
BBX 8 18 0 -3
BITMAP
00
00
00
00
3E
7A
7A
7A
7A
3A
0A
0A
0A
0A
0A
0E
00
00
ENDCHAR

STARTCHAR MIDDLE
ENCODING 183
SWIDTH 500 0
DWIDTH 8 0
BBX 8 18 0 -3
BITMAP
00
00
00
00
00
00
00
00
00
18
18
00
00
00
00
00
00
00
ENDCHAR

STARTCHAR CEDILLA
ENCODING 184
SWIDTH 500 0
DWIDTH 8 0
BBX 8 18 0 -3
BITMAP
00
00
00
00
00
00
00
00
00
00
00
00
00
00
00
08
30
00
ENDCHAR

STARTCHAR SUPERSCRIPT
ENCODING 185
SWIDTH 500 0
DWIDTH 8 0
BBX 8 18 0 -3
BITMAP
00
00
00
08
18
28
08
08
08
08
00
00
00
00
00
00
00
00
ENDCHAR

STARTCHAR MASCULINE
ENCODING 186
SWIDTH 500 0
DWIDTH 8 0
BBX 8 18 0 -3
BITMAP
00
00
00
1C
22
22
22
1C
00
3E
00
00
00
00
00
00
00
00
ENDCHAR

STARTCHAR RIGHT-POINTING
ENCODING 187
SWIDTH 500 0
DWIDTH 8 0
BBX 8 18 0 -3
BITMAP
00
00
00
00
00
00
48
48
24
24
12
24
24
48
48
00
00
00
ENDCHAR

STARTCHAR VULGAR
ENCODING 188
SWIDTH 500 0
DWIDTH 8 0
BBX 8 18 0 -3
BITMAP
00
00
00
00
00
22
62
24
28
28
12
16
2A
4E
42
00
00
00
ENDCHAR

STARTCHAR VULGAR
ENCODING 189
SWIDTH 500 0
DWIDTH 8 0
BBX 8 18 0 -3
BITMAP
00
00
00
00
00
22
62
24
28
28
14
1A
22
44
4E
00
00
00
ENDCHAR

STARTCHAR VULGAR
ENCODING 190
SWIDTH 500 0
DWIDTH 8 0
BBX 8 18 0 -3
BITMAP
00
00
00
00
00
62
12
24
18
68
12
16
2A
4E
42
00
00
00
ENDCHAR

STARTCHAR INVERTED
ENCODING 191
SWIDTH 500 0
DWIDTH 8 0
BBX 8 18 0 -3
BITMAP
00
00
00
00
00
08
08
00
08
08
30
42
42
42
3C
00
00
00
ENDCHAR

STARTCHAR LATIN
ENCODING 192
SWIDTH 500 0
DWIDTH 8 0
BBX 8 18 0 -3
BITMAP
00
30
0C
00
00
18
24
24
42
42
7E
42
42
42
42
00
00
00
ENDCHAR

STARTCHAR LATIN
ENCODING 193
SWIDTH 500 0
DWIDTH 8 0
BBX 8 18 0 -3
BITMAP
00
0C
30
00
00
18
24
24
42
42
7E
42
42
42
42
00
00
00
ENDCHAR

STARTCHAR LATIN
ENCODING 194
SWIDTH 500 0
DWIDTH 8 0
BBX 8 18 0 -3
BITMAP
00
18
24
00
00
18
24
24
42
42
7E
42
42
42
42
00
00
00
ENDCHAR

STARTCHAR LATIN
ENCODING 195
SWIDTH 500 0
DWIDTH 8 0
BBX 8 18 0 -3
BITMAP
00
32
4C
00
00
18
24
24
42
42
7E
42
42
42
42
00
00
00
ENDCHAR

STARTCHAR LATIN
ENCODING 196
SWIDTH 500 0
DWIDTH 8 0
BBX 8 18 0 -3
BITMAP
00
24
24
00
00
18
24
24
42
42
7E
42
42
42
42
00
00
00
ENDCHAR

STARTCHAR LATIN
ENCODING 197
SWIDTH 500 0
DWIDTH 8 0
BBX 8 18 0 -3
BITMAP
00
18
24
18
00
18
24
24
42
42
7E
42
42
42
42
00
00
00
ENDCHAR

STARTCHAR LATIN
ENCODING 198
SWIDTH 500 0
DWIDTH 8 0
BBX 8 18 0 -3
BITMAP
00
00
00
00
00
1F
28
48
48
7F
48
48
48
48
4F
00
00
00
ENDCHAR

STARTCHAR LATIN
ENCODING 199
SWIDTH 500 0
DWIDTH 8 0
BBX 8 18 0 -3
BITMAP
00
00
00
00
00
3C
42
42
40
40
40
40
42
42
3C
08
30
00
ENDCHAR

STARTCHAR LATIN
ENCODING 200
SWIDTH 500 0
DWIDTH 8 0
BBX 8 18 0 -3
BITMAP
00
30
0C
00
00
7E
40
40
40
7C
40
40
40
40
7E
00
00
00
ENDCHAR

STARTCHAR LATIN
ENCODING 201
SWIDTH 500 0
DWIDTH 8 0
BBX 8 18 0 -3
BITMAP
00
0C
30
00
00
7E
40
40
40
7C
40
40
40
40
7E
00
00
00
ENDCHAR

STARTCHAR LATIN
ENCODING 202
SWIDTH 500 0
DWIDTH 8 0
BBX 8 18 0 -3
BITMAP
00
18
24
00
00
7E
40
40
40
7C
40
40
40
40
7E
00
00
00
ENDCHAR

STARTCHAR LATIN
ENCODING 203
SWIDTH 500 0
DWIDTH 8 0
BBX 8 18 0 -3
BITMAP
00
24
24
00
00
7E
40
40
40
7C
40
40
40
40
7E
00
00
00
ENDCHAR

STARTCHAR LATIN
ENCODING 204
SWIDTH 500 0
DWIDTH 8 0
BBX 8 18 0 -3
BITMAP
00
18
06
00
00
3E
08
08
08
08
08
08
08
08
3E
00
00
00
ENDCHAR

STARTCHAR LATIN
ENCODING 205
SWIDTH 500 0
DWIDTH 8 0
BBX 8 18 0 -3
BITMAP
00
0C
30
00
00
3E
08
08
08
08
08
08
08
08
3E
00
00
00
ENDCHAR

STARTCHAR LATIN
ENCODING 206
SWIDTH 500 0
DWIDTH 8 0
BBX 8 18 0 -3
BITMAP
00
18
24
00
00
3E
08
08
08
08
08
08
08
08
3E
00
00
00
ENDCHAR

STARTCHAR LATIN
ENCODING 207
SWIDTH 500 0
DWIDTH 8 0
BBX 8 18 0 -3
BITMAP
00
24
24
00
00
3E
08
08
08
08
08
08
08
08
3E
00
00
00
ENDCHAR

STARTCHAR LATIN
ENCODING 208
SWIDTH 500 0
DWIDTH 8 0
BBX 8 18 0 -3
BITMAP
00
00
00
00
00
78
44
42
42
F2
42
42
42
44
78
00
00
00
ENDCHAR

STARTCHAR LATIN
ENCODING 209
SWIDTH 500 0
DWIDTH 8 0
BBX 8 18 0 -3
BITMAP
00
32
4C
00
00
42
62
62
52
52
4A
4A
46
46
42
00
00
00
ENDCHAR

STARTCHAR LATIN
ENCODING 210
SWIDTH 500 0
DWIDTH 8 0
BBX 8 18 0 -3
BITMAP
00
30
0C
00
00
3C
42
42
42
42
42
42
42
42
3C
00
00
00
ENDCHAR

STARTCHAR LATIN
ENCODING 211
SWIDTH 500 0
DWIDTH 8 0
BBX 8 18 0 -3
BITMAP
00
0C
30
00
00
3C
42
42
42
42
42
42
42
42
3C
00
00
00
ENDCHAR

STARTCHAR LATIN
ENCODING 212
SWIDTH 500 0
DWIDTH 8 0
BBX 8 18 0 -3
BITMAP
00
18
24
00
00
3C
42
42
42
42
42
42
42
42
3C
00
00
00
ENDCHAR

STARTCHAR LATIN
ENCODING 213
SWIDTH 500 0
DWIDTH 8 0
BBX 8 18 0 -3
BITMAP
00
32
4C
00
00
3C
42
42
42
42
42
42
42
42
3C
00
00
00
ENDCHAR

STARTCHAR LATIN
ENCODING 214
SWIDTH 500 0
DWIDTH 8 0
BBX 8 18 0 -3
BITMAP
00
24
24
00
00
3C
42
42
42
42
42
42
42
42
3C
00
00
00
ENDCHAR

STARTCHAR MULTIPLICATION
ENCODING 215
SWIDTH 500 0
DWIDTH 8 0
BBX 8 18 0 -3
BITMAP
00
00
00
00
00
00
00
42
42
24
18
24
42
42
00
00
00
00
ENDCHAR

STARTCHAR LATIN
ENCODING 216
SWIDTH 500 0
DWIDTH 8 0
BBX 8 18 0 -3
BITMAP
00
00
00
00
02
3A
44
46
4A
4A
52
52
62
22
5C
40
00
00
ENDCHAR

STARTCHAR LATIN
ENCODING 217
SWIDTH 500 0
DWIDTH 8 0
BBX 8 18 0 -3
BITMAP
00
30
0C
00
00
42
42
42
42
42
42
42
42
42
3C
00
00
00
ENDCHAR

STARTCHAR LATIN
ENCODING 218
SWIDTH 500 0
DWIDTH 8 0
BBX 8 18 0 -3
BITMAP
00
0C
30
00
00
42
42
42
42
42
42
42
42
42
3C
00
00
00
ENDCHAR

STARTCHAR LATIN
ENCODING 219
SWIDTH 500 0
DWIDTH 8 0
BBX 8 18 0 -3
BITMAP
00
18
24
00
00
42
42
42
42
42
42
42
42
42
3C
00
00
00
ENDCHAR

STARTCHAR LATIN
ENCODING 220
SWIDTH 500 0
DWIDTH 8 0
BBX 8 18 0 -3
BITMAP
00
24
24
00
00
42
42
42
42
42
42
42
42
42
3C
00
00
00
ENDCHAR

STARTCHAR LATIN
ENCODING 221
SWIDTH 500 0
DWIDTH 8 0
BBX 8 18 0 -3
BITMAP
00
0C
30
00
00
41
41
22
22
14
08
08
08
08
08
00
00
00
ENDCHAR

STARTCHAR LATIN
ENCODING 222
SWIDTH 500 0
DWIDTH 8 0
BBX 8 18 0 -3
BITMAP
00
00
00
00
40
40
78
44
42
42
44
78
40
40
40
00
00
00
ENDCHAR

STARTCHAR LATIN
ENCODING 223
SWIDTH 500 0
DWIDTH 8 0
BBX 8 18 0 -3
BITMAP
00
00
00
00
00
38
44
44
44
7C
42
42
42
62
5C
00
00
00
ENDCHAR

STARTCHAR LATIN
ENCODING 224
SWIDTH 500 0
DWIDTH 8 0
BBX 8 18 0 -3
BITMAP
00
00
00
30
0C
00
00
3C
42
02
3E
42
42
46
3A
00
00
00
ENDCHAR

STARTCHAR LATIN
ENCODING 225
SWIDTH 500 0
DWIDTH 8 0
BBX 8 18 0 -3
BITMAP
00
00
00
0C
30
00
00
3C
42
02
3E
42
42
46
3A
00
00
00
ENDCHAR

STARTCHAR LATIN
ENCODING 226
SWIDTH 500 0
DWIDTH 8 0
BBX 8 18 0 -3
BITMAP
00
00
00
18
24
00
00
3C
42
02
3E
42
42
46
3A
00
00
00
ENDCHAR

STARTCHAR LATIN
ENCODING 227
SWIDTH 500 0
DWIDTH 8 0
BBX 8 18 0 -3
BITMAP
00
00
00
32
4C
00
00
3C
42
02
3E
42
42
46
3A
00
00
00
ENDCHAR

STARTCHAR LATIN
ENCODING 228
SWIDTH 500 0
DWIDTH 8 0
BBX 8 18 0 -3
BITMAP
00
00
00
24
24
00
00
3C
42
02
3E
42
42
46
3A
00
00
00
ENDCHAR

STARTCHAR LATIN
ENCODING 229
SWIDTH 500 0
DWIDTH 8 0
BBX 8 18 0 -3
BITMAP
00
00
18
24
18
00
00
3C
42
02
3E
42
42
46
3A
00
00
00
ENDCHAR

STARTCHAR LATIN
ENCODING 230
SWIDTH 500 0
DWIDTH 8 0
BBX 8 18 0 -3
BITMAP
00
00
00
00
00
00
00
3E
49
09
3F
48
48
49
3E
00
00
00
ENDCHAR

STARTCHAR LATIN
ENCODING 231
SWIDTH 500 0
DWIDTH 8 0
BBX 8 18 0 -3
BITMAP
00
00
00
00
00
00
00
3C
42
40
40
40
40
42
3C
08
30
00
ENDCHAR

STARTCHAR LATIN
ENCODING 232
SWIDTH 500 0
DWIDTH 8 0
BBX 8 18 0 -3
BITMAP
00
00
00
30
0C
00
00
3C
42
42
7E
40
40
42
3C
00
00
00
ENDCHAR

STARTCHAR LATIN
ENCODING 233
SWIDTH 500 0
DWIDTH 8 0
BBX 8 18 0 -3
BITMAP
00
00
00
0C
30
00
00
3C
42
42
7E
40
40
42
3C
00
00
00
ENDCHAR

STARTCHAR LATIN
ENCODING 234
SWIDTH 500 0
DWIDTH 8 0
BBX 8 18 0 -3
BITMAP
00
00
00
18
24
00
00
3C
42
42
7E
40
40
42
3C
00
00
00
ENDCHAR

STARTCHAR LATIN
ENCODING 235
SWIDTH 500 0
DWIDTH 8 0
BBX 8 18 0 -3
BITMAP
00
00
00
24
24
00
00
3C
42
42
7E
40
40
42
3C
00
00
00
ENDCHAR

STARTCHAR LATIN
ENCODING 236
SWIDTH 500 0
DWIDTH 8 0
BBX 8 18 0 -3
BITMAP
00
00
00
30
0C
00
00
18
08
08
08
08
08
08
3E
00
00
00
ENDCHAR

STARTCHAR LATIN
ENCODING 237
SWIDTH 500 0
DWIDTH 8 0
BBX 8 18 0 -3
BITMAP
00
00
00
0C
30
00
00
18
08
08
08
08
08
08
3E
00
00
00
ENDCHAR

STARTCHAR LATIN
ENCODING 238
SWIDTH 500 0
DWIDTH 8 0
BBX 8 18 0 -3
BITMAP
00
00
00
18
24
00
00
18
08
08
08
08
08
08
3E
00
00
00
ENDCHAR

STARTCHAR LATIN
ENCODING 239
SWIDTH 500 0
DWIDTH 8 0
BBX 8 18 0 -3
BITMAP
00
00
00
24
24
00
00
18
08
08
08
08
08
08
3E
00
00
00
ENDCHAR

STARTCHAR LATIN
ENCODING 240
SWIDTH 500 0
DWIDTH 8 0
BBX 8 18 0 -3
BITMAP
00
00
00
32
0C
14
22
02
3E
42
42
42
42
42
3C
00
00
00
ENDCHAR

STARTCHAR LATIN
ENCODING 241
SWIDTH 500 0
DWIDTH 8 0
BBX 8 18 0 -3
BITMAP
00
00
00
32
4C
00
00
5C
62
42
42
42
42
42
42
00
00
00
ENDCHAR

STARTCHAR LATIN
ENCODING 242
SWIDTH 500 0
DWIDTH 8 0
BBX 8 18 0 -3
BITMAP
00
00
00
30
0C
00
00
3C
42
42
42
42
42
42
3C
00
00
00
ENDCHAR

STARTCHAR LATIN
ENCODING 243
SWIDTH 500 0
DWIDTH 8 0
BBX 8 18 0 -3
BITMAP
00
00
00
0C
30
00
00
3C
42
42
42
42
42
42
3C
00
00
00
ENDCHAR

STARTCHAR LATIN
ENCODING 244
SWIDTH 500 0
DWIDTH 8 0
BBX 8 18 0 -3
BITMAP
00
00
00
18
24
00
00
3C
42
42
42
42
42
42
3C
00
00
00
ENDCHAR

STARTCHAR LATIN
ENCODING 245
SWIDTH 500 0
DWIDTH 8 0
BBX 8 18 0 -3
BITMAP
00
00
00
32
4C
00
00
3C
42
42
42
42
42
42
3C
00
00
00
ENDCHAR

STARTCHAR LATIN
ENCODING 246
SWIDTH 500 0
DWIDTH 8 0
BBX 8 18 0 -3
BITMAP
00
00
00
24
24
00
00
3C
42
42
42
42
42
42
3C
00
00
00
ENDCHAR

STARTCHAR DIVISION
ENCODING 247
SWIDTH 500 0
DWIDTH 8 0
BBX 8 18 0 -3
BITMAP
00
00
00
00
00
00
00
18
00
00
7E
00
00
18
00
00
00
00
ENDCHAR

STARTCHAR LATIN
ENCODING 248
SWIDTH 500 0
DWIDTH 8 0
BBX 8 18 0 -3
BITMAP
00
00
00
00
00
00
02
3C
46
4A
4A
52
52
62
3C
40
00
00
ENDCHAR

STARTCHAR LATIN
ENCODING 249
SWIDTH 500 0
DWIDTH 8 0
BBX 8 18 0 -3
BITMAP
00
00
00
30
0C
00
00
42
42
42
42
42
42
46
3A
00
00
00
ENDCHAR

STARTCHAR LATIN
ENCODING 250
SWIDTH 500 0
DWIDTH 8 0
BBX 8 18 0 -3
BITMAP
00
00
00
0C
30
00
00
42
42
42
42
42
42
46
3A
00
00
00
ENDCHAR

STARTCHAR LATIN
ENCODING 251
SWIDTH 500 0
DWIDTH 8 0
BBX 8 18 0 -3
BITMAP
00
00
00
18
24
00
00
42
42
42
42
42
42
46
3A
00
00
00
ENDCHAR

STARTCHAR LATIN
ENCODING 252
SWIDTH 500 0
DWIDTH 8 0
BBX 8 18 0 -3
BITMAP
00
00
00
24
24
00
00
42
42
42
42
42
42
46
3A
00
00
00
ENDCHAR

STARTCHAR LATIN
ENCODING 253
SWIDTH 500 0
DWIDTH 8 0
BBX 8 18 0 -3
BITMAP
00
00
00
0C
30
00
00
42
42
42
42
42
26
1A
02
02
3C
00
ENDCHAR

STARTCHAR LATIN
ENCODING 254
SWIDTH 500 0
DWIDTH 8 0
BBX 8 18 0 -3
BITMAP
00
00
00
00
00
20
20
3C
22
22
22
24
28
30
20
20
20
00
ENDCHAR

STARTCHAR LATIN
ENCODING 255
SWIDTH 500 0
DWIDTH 8 0
BBX 8 18 0 -3
BITMAP
00
00
00
24
24
00
00
42
42
42
42
42
26
1A
02
02
3C
00
ENDCHAR

STARTCHAR LATIN
ENCODING 256
SWIDTH 500 0
DWIDTH 8 0
BBX 8 18 0 -3
BITMAP
00
00
3C
00
00
18
24
24
42
42
7E
42
42
42
42
00
00
00
ENDCHAR

STARTCHAR LATIN
ENCODING 257
SWIDTH 500 0
DWIDTH 8 0
BBX 8 18 0 -3
BITMAP
00
00
00
00
3C
00
00
3C
42
02
3E
42
42
46
3A
00
00
00
ENDCHAR

STARTCHAR LATIN
ENCODING 258
SWIDTH 500 0
DWIDTH 8 0
BBX 8 18 0 -3
BITMAP
00
42
42
3C
00
18
24
24
42
42
7E
42
42
42
42
00
00
00
ENDCHAR

STARTCHAR LATIN
ENCODING 259
SWIDTH 500 0
DWIDTH 8 0
BBX 8 18 0 -3
BITMAP
00
00
42
42
3C
00
00
3C
42
02
3E
42
42
46
3A
00
00
00
ENDCHAR

STARTCHAR LATIN
ENCODING 260
SWIDTH 500 0
DWIDTH 8 0
BBX 8 18 0 -3
BITMAP
00
00
00
00
00
18
24
24
42
42
7E
42
42
42
42
04
03
00
ENDCHAR

STARTCHAR LATIN
ENCODING 261
SWIDTH 500 0
DWIDTH 8 0
BBX 8 18 0 -3
BITMAP
00
00
00
00
00
00
00
3C
42
02
3E
42
42
46
3A
04
03
00
ENDCHAR

STARTCHAR LATIN
ENCODING 262
SWIDTH 500 0
DWIDTH 8 0
BBX 8 18 0 -3
BITMAP
00
0C
30
00
00
3C
42
42
40
40
40
40
42
42
3C
00
00
00
ENDCHAR

STARTCHAR LATIN
ENCODING 263
SWIDTH 500 0
DWIDTH 8 0
BBX 8 18 0 -3
BITMAP
00
00
00
0C
30
00
00
3C
42
40
40
40
40
42
3C
00
00
00
ENDCHAR

STARTCHAR LATIN
ENCODING 264
SWIDTH 500 0
DWIDTH 8 0
BBX 8 18 0 -3
BITMAP
00
18
24
00
00
3C
42
42
40
40
40
40
42
42
3C
00
00
00
ENDCHAR

STARTCHAR LATIN
ENCODING 265
SWIDTH 500 0
DWIDTH 8 0
BBX 8 18 0 -3
BITMAP
00
00
00
18
24
00
00
3C
42
40
40
40
40
42
3C
00
00
00
ENDCHAR

STARTCHAR LATIN
ENCODING 266
SWIDTH 500 0
DWIDTH 8 0
BBX 8 18 0 -3
BITMAP
00
10
10
00
00
3C
42
42
40
40
40
40
42
42
3C
00
00
00
ENDCHAR

STARTCHAR LATIN
ENCODING 267
SWIDTH 500 0
DWIDTH 8 0
BBX 8 18 0 -3
BITMAP
00
00
00
10
10
00
00
3C
42
40
40
40
40
42
3C
00
00
00
ENDCHAR

STARTCHAR LATIN
ENCODING 268
SWIDTH 500 0
DWIDTH 8 0
BBX 8 18 0 -3
BITMAP
00
24
18
00
00
3C
42
42
40
40
40
40
42
42
3C
00
00
00
ENDCHAR

STARTCHAR LATIN
ENCODING 269
SWIDTH 500 0
DWIDTH 8 0
BBX 8 18 0 -3
BITMAP
00
00
00
24
18
00
00
3C
42
40
40
40
40
42
3C
00
00
00
ENDCHAR

STARTCHAR LATIN
ENCODING 270
SWIDTH 500 0
DWIDTH 8 0
BBX 8 18 0 -3
BITMAP
00
48
30
00
00
78
44
42
42
42
42
42
42
44
78
00
00
00
ENDCHAR

STARTCHAR LATIN
ENCODING 271
SWIDTH 500 0
DWIDTH 8 0
BBX 8 18 0 -3
BITMAP
00
00
00
03
09
09
0A
38
48
48
48
48
48
58
28
00
00
00
ENDCHAR

STARTCHAR LATIN
ENCODING 272
SWIDTH 500 0
DWIDTH 8 0
BBX 8 18 0 -3
BITMAP
00
00
00
00
00
78
44
42
42
F2
42
42
42
44
78
00
00
00
ENDCHAR

STARTCHAR LATIN
ENCODING 273
SWIDTH 500 0
DWIDTH 8 0
BBX 8 18 0 -3
BITMAP
00
00
00
02
0F
02
02
3A
46
42
42
42
42
46
3A
00
00
00
ENDCHAR

STARTCHAR LATIN
ENCODING 274
SWIDTH 500 0
DWIDTH 8 0
BBX 8 18 0 -3
BITMAP
00
00
3C
00
00
7E
40
40
40
7C
40
40
40
40
7E
00
00
00
ENDCHAR

STARTCHAR LATIN
ENCODING 275
SWIDTH 500 0
DWIDTH 8 0
BBX 8 18 0 -3
BITMAP
00
00
00
00
3C
00
00
3C
42
42
7E
40
40
42
3C
00
00
00
ENDCHAR

STARTCHAR LATIN
ENCODING 276
SWIDTH 500 0
DWIDTH 8 0
BBX 8 18 0 -3
BITMAP
00
42
42
3C
00
7E
40
40
40
7C
40
40
40
40
7E
00
00
00
ENDCHAR

STARTCHAR LATIN
ENCODING 277
SWIDTH 500 0
DWIDTH 8 0
BBX 8 18 0 -3
BITMAP
00
00
00
42
42
3C
00
3C
42
42
7E
40
40
42
3C
00
00
00
ENDCHAR

STARTCHAR LATIN
ENCODING 278
SWIDTH 500 0
DWIDTH 8 0
BBX 8 18 0 -3
BITMAP
00
10
10
00
00
7E
40
40
40
7C
40
40
40
40
7E
00
00
00
ENDCHAR

STARTCHAR LATIN
ENCODING 279
SWIDTH 500 0
DWIDTH 8 0
BBX 8 18 0 -3
BITMAP
00
00
00
10
10
00
00
3C
42
42
7E
40
40
42
3C
00
00
00
ENDCHAR

STARTCHAR LATIN
ENCODING 280
SWIDTH 500 0
DWIDTH 8 0
BBX 8 18 0 -3
BITMAP
00
00
00
00
00
7E
40
40
40
7C
40
40
40
40
7E
08
06
00
ENDCHAR

STARTCHAR LATIN
ENCODING 281
SWIDTH 500 0
DWIDTH 8 0
BBX 8 18 0 -3
BITMAP
00
00
00
00
00
00
00
3C
42
42
7E
40
40
42
3C
10
0C
00
ENDCHAR

STARTCHAR LATIN
ENCODING 282
SWIDTH 500 0
DWIDTH 8 0
BBX 8 18 0 -3
BITMAP
00
24
18
00
00
7E
40
40
40
7C
40
40
40
40
7E
00
00
00
ENDCHAR

STARTCHAR LATIN
ENCODING 283
SWIDTH 500 0
DWIDTH 8 0
BBX 8 18 0 -3
BITMAP
00
00
00
24
18
00
00
3C
42
42
7E
40
40
42
3C
00
00
00
ENDCHAR

STARTCHAR LATIN
ENCODING 284
SWIDTH 500 0
DWIDTH 8 0
BBX 8 18 0 -3
BITMAP
00
18
24
00
00
3C
42
42
40
40
4E
42
42
46
3A
00
00
00
ENDCHAR

STARTCHAR LATIN
ENCODING 285
SWIDTH 500 0
DWIDTH 8 0
BBX 8 18 0 -3
BITMAP
00
00
00
18
24
00
02
3A
44
44
44
38
20
3C
42
42
3C
00
ENDCHAR

STARTCHAR LATIN
ENCODING 286
SWIDTH 500 0
DWIDTH 8 0
BBX 8 18 0 -3
BITMAP
00
42
42
3C
00
3C
42
42
40
40
4E
42
42
46
3A
00
00
00
ENDCHAR

STARTCHAR LATIN
ENCODING 287
SWIDTH 500 0
DWIDTH 8 0
BBX 8 18 0 -3
BITMAP
00
00
42
42
3C
00
02
3A
44
44
44
38
20
3C
42
42
3C
00
ENDCHAR

STARTCHAR LATIN
ENCODING 288
SWIDTH 500 0
DWIDTH 8 0
BBX 8 18 0 -3
BITMAP
00
10
10
00
00
3C
42
42
40
40
4E
42
42
46
3A
00
00
00
ENDCHAR

STARTCHAR LATIN
ENCODING 289
SWIDTH 500 0
DWIDTH 8 0
BBX 8 18 0 -3
BITMAP
00
00
00
10
10
00
02
3A
44
44
44
38
20
3C
42
42
3C
00
ENDCHAR

STARTCHAR LATIN
ENCODING 290
SWIDTH 500 0
DWIDTH 8 0
BBX 8 18 0 -3
BITMAP
00
00
00
00
00
3C
42
42
40
40
4E
42
42
46
3A
08
30
00
ENDCHAR

STARTCHAR LATIN
ENCODING 291
SWIDTH 500 0
DWIDTH 8 0
BBX 8 18 0 -3
BITMAP
00
00
00
0C
10
00
02
3A
44
44
44
38
20
3C
42
42
3C
00
ENDCHAR

STARTCHAR LATIN
ENCODING 292
SWIDTH 500 0
DWIDTH 8 0
BBX 8 18 0 -3
BITMAP
00
18
24
00
00
42
42
42
42
7E
42
42
42
42
42
00
00
00
ENDCHAR

STARTCHAR LATIN
ENCODING 293
SWIDTH 500 0
DWIDTH 8 0
BBX 8 18 0 -3
BITMAP
00
30
48
00
40
40
40
5C
62
42
42
42
42
42
42
00
00
00
ENDCHAR

STARTCHAR LATIN
ENCODING 294
SWIDTH 500 0
DWIDTH 8 0
BBX 8 18 0 -3
BITMAP
00
00
00
00
00
42
42
FF
42
42
7E
42
42
42
42
00
00
00
ENDCHAR

STARTCHAR LATIN
ENCODING 295
SWIDTH 500 0
DWIDTH 8 0
BBX 8 18 0 -3
BITMAP
00
00
00
40
F0
40
40
5C
62
42
42
42
42
42
00
00
00
00
ENDCHAR

STARTCHAR LATIN
ENCODING 296
SWIDTH 500 0
DWIDTH 8 0
BBX 8 18 0 -3
BITMAP
00
32
4C
00
00
3E
08
08
08
08
08
08
08
08
3E
00
00
00
ENDCHAR

STARTCHAR LATIN
ENCODING 297
SWIDTH 500 0
DWIDTH 8 0
BBX 8 18 0 -3
BITMAP
00
00
00
32
4C
00
00
18
08
08
08
08
08
08
3E
00
00
00
ENDCHAR

STARTCHAR LATIN
ENCODING 298
SWIDTH 500 0
DWIDTH 8 0
BBX 8 18 0 -3
BITMAP
00
00
3C
00
00
3E
08
08
08
08
08
08
08
08
3E
00
00
00
ENDCHAR

STARTCHAR LATIN
ENCODING 299
SWIDTH 500 0
DWIDTH 8 0
BBX 8 18 0 -3
BITMAP
00
00
00
00
3C
00
00
18
08
08
08
08
08
08
3E
00
00
00
ENDCHAR

STARTCHAR LATIN
ENCODING 300
SWIDTH 500 0
DWIDTH 8 0
BBX 8 18 0 -3
BITMAP
00
42
42
3C
00
3E
08
08
08
08
08
08
08
08
3E
00
00
00
ENDCHAR

STARTCHAR LATIN
ENCODING 301
SWIDTH 500 0
DWIDTH 8 0
BBX 8 18 0 -3
BITMAP
00
00
00
42
42
3C
00
18
08
08
08
08
08
08
3E
00
00
00
ENDCHAR

STARTCHAR LATIN
ENCODING 302
SWIDTH 500 0
DWIDTH 8 0
BBX 8 18 0 -3
BITMAP
00
00
00
00
00
3E
08
08
08
08
08
08
08
08
3E
08
06
00
ENDCHAR

STARTCHAR LATIN
ENCODING 303
SWIDTH 500 0
DWIDTH 8 0
BBX 8 18 0 -3
BITMAP
00
00
00
00
08
08
00
18
08
08
08
08
08
08
3E
08
06
00
ENDCHAR

STARTCHAR LATIN
ENCODING 304
SWIDTH 500 0
DWIDTH 8 0
BBX 8 18 0 -3
BITMAP
00
08
08
00
00
3E
08
08
08
08
08
08
08
08
3E
00
00
00
ENDCHAR

STARTCHAR LATIN
ENCODING 305
SWIDTH 500 0
DWIDTH 8 0
BBX 8 18 0 -3
BITMAP
00
00
00
00
00
00
00
18
08
08
08
08
08
08
3E
00
00
00
ENDCHAR

STARTCHAR LATIN
ENCODING 306
SWIDTH 500 0
DWIDTH 8 0
BBX 8 18 0 -3
BITMAP
00
00
00
00
00
77
22
22
22
22
22
22
2A
2A
76
00
00
00
ENDCHAR

STARTCHAR LATIN
ENCODING 307
SWIDTH 500 0
DWIDTH 8 0
BBX 8 18 0 -3
BITMAP
00
00
00
00
22
22
00
66
22
22
22
22
22
22
72
04
18
00
ENDCHAR

STARTCHAR LATIN
ENCODING 308
SWIDTH 500 0
DWIDTH 8 0
BBX 8 18 0 -3
BITMAP
00
0C
12
00
00
1F
04
04
04
04
04
04
44
44
38
00
00
00
ENDCHAR

STARTCHAR LATIN
ENCODING 309
SWIDTH 500 0
DWIDTH 8 0
BBX 8 18 0 -3
BITMAP
00
00
00
0C
12
00
00
0C
04
04
04
04
04
04
04
48
30
00
ENDCHAR

STARTCHAR LATIN
ENCODING 310
SWIDTH 500 0
DWIDTH 8 0
BBX 8 18 0 -3
BITMAP
00
00
00
00
00
42
44
48
50
60
60
50
48
44
42
20
C0
00
ENDCHAR

STARTCHAR LATIN
ENCODING 311
SWIDTH 500 0
DWIDTH 8 0
BBX 8 18 0 -3
BITMAP
00
00
00
00
00
40
40
44
48
50
60
50
48
44
42
20
C0
00
ENDCHAR

STARTCHAR LATIN
ENCODING 312
SWIDTH 500 0
DWIDTH 8 0
BBX 8 18 0 -3
BITMAP
00
00
00
00
00
00
00
42
44
48
70
70
48
44
42
00
00
00
ENDCHAR

STARTCHAR LATIN
ENCODING 313
SWIDTH 500 0
DWIDTH 8 0
BBX 8 18 0 -3
BITMAP
00
18
60
00
00
40
40
40
40
40
40
40
40
40
7E
00
00
00
ENDCHAR

STARTCHAR LATIN
ENCODING 314
SWIDTH 500 0
DWIDTH 8 0
BBX 8 18 0 -3
BITMAP
00
0C
30
00
00
18
08
08
08
08
08
08
08
08
3E
00
00
00
ENDCHAR

STARTCHAR LATIN
ENCODING 315
SWIDTH 500 0
DWIDTH 8 0
BBX 8 18 0 -3
BITMAP
00
00
00
00
00
40
40
40
40
40
40
40
40
40
7E
08
30
00
ENDCHAR

STARTCHAR LATIN
ENCODING 316
SWIDTH 500 0
DWIDTH 8 0
BBX 8 18 0 -3
BITMAP
00
00
00
00
00
18
08
08
08
08
08
08
08
08
3E
08
30
00
ENDCHAR

STARTCHAR LATIN
ENCODING 317
SWIDTH 500 0
DWIDTH 8 0
BBX 8 18 0 -3
BITMAP
00
00
00
00
18
48
48
50
40
40
40
40
40
40
7E
00
00
00
ENDCHAR

STARTCHAR LATIN
ENCODING 318
SWIDTH 500 0
DWIDTH 8 0
BBX 8 18 0 -3
BITMAP
00
00
00
00
06
32
12
14
10
10
10
10
10
10
7C
00
00
00
ENDCHAR

STARTCHAR LATIN
ENCODING 319
SWIDTH 500 0
DWIDTH 8 0
BBX 8 18 0 -3
BITMAP
00
00
00
00
00
40
40
40
40
44
44
40
40
40
7E
00
00
00
ENDCHAR

STARTCHAR LATIN
ENCODING 320
SWIDTH 500 0
DWIDTH 8 0
BBX 8 18 0 -3
BITMAP
00
00
00
00
00
30
10
10
10
14
14
10
10
10
7C
00
00
00
ENDCHAR

STARTCHAR LATIN
ENCODING 321
SWIDTH 500 0
DWIDTH 8 0
BBX 8 18 0 -3
BITMAP
00
00
00
00
00
40
40
48
50
60
C0
40
40
40
7E
00
00
00
ENDCHAR

STARTCHAR LATIN
ENCODING 322
SWIDTH 500 0
DWIDTH 8 0
BBX 8 18 0 -3
BITMAP
00
00
00
00
00
18
08
0A
0C
18
28
08
08
08
3E
00
00
00
ENDCHAR

STARTCHAR LATIN
ENCODING 323
SWIDTH 500 0
DWIDTH 8 0
BBX 8 18 0 -3
BITMAP
00
0C
30
00
00
42
62
62
52
52
4A
4A
46
46
42
00
00
00
ENDCHAR

STARTCHAR LATIN
ENCODING 324
SWIDTH 500 0
DWIDTH 8 0
BBX 8 18 0 -3
BITMAP
00
00
00
0C
30
00
00
5C
62
42
42
42
42
42
42
00
00
00
ENDCHAR

STARTCHAR LATIN
ENCODING 325
SWIDTH 500 0
DWIDTH 8 0
BBX 8 18 0 -3
BITMAP
00
00
00
00
00
42
62
62
52
52
4A
4A
46
46
42
20
C0
00
ENDCHAR

STARTCHAR LATIN
ENCODING 326
SWIDTH 500 0
DWIDTH 8 0
BBX 8 18 0 -3
BITMAP
00
00
00
00
00
00
00
5C
62
42
42
42
42
42
42
20
C0
00
ENDCHAR

STARTCHAR LATIN
ENCODING 327
SWIDTH 500 0
DWIDTH 8 0
BBX 8 18 0 -3
BITMAP
00
24
18
00
00
42
62
62
52
52
4A
4A
46
46
42
00
00
00
ENDCHAR

STARTCHAR LATIN
ENCODING 328
SWIDTH 500 0
DWIDTH 8 0
BBX 8 18 0 -3
BITMAP
00
00
00
24
18
00
00
5C
62
42
42
42
42
42
42
00
00
00
ENDCHAR

STARTCHAR LATIN
ENCODING 329
SWIDTH 500 0
DWIDTH 8 0
BBX 8 18 0 -3
BITMAP
00
00
60
20
20
40
00
5C
62
42
42
42
42
42
42
00
00
00
ENDCHAR

STARTCHAR LATIN
ENCODING 330
SWIDTH 500 0
DWIDTH 8 0
BBX 8 18 0 -3
BITMAP
00
00
00
00
00
5C
62
42
42
42
42
42
42
42
4C
00
00
00
ENDCHAR

STARTCHAR LATIN
ENCODING 331
SWIDTH 500 0
DWIDTH 8 0
BBX 8 18 0 -3
BITMAP
00
00
00
00
00
00
00
5C
62
42
42
42
42
42
42
02
0C
00
ENDCHAR

STARTCHAR LATIN
ENCODING 332
SWIDTH 500 0
DWIDTH 8 0
BBX 8 18 0 -3
BITMAP
00
00
3C
00
00
3C
42
42
42
42
42
42
42
42
3C
00
00
00
ENDCHAR

STARTCHAR LATIN
ENCODING 333
SWIDTH 500 0
DWIDTH 8 0
BBX 8 18 0 -3
BITMAP
00
00
00
00
3C
00
00
3C
42
42
42
42
42
42
3C
00
00
00
ENDCHAR

STARTCHAR LATIN
ENCODING 334
SWIDTH 500 0
DWIDTH 8 0
BBX 8 18 0 -3
BITMAP
00
42
42
3C
00
3C
42
42
42
42
42
42
42
42
3C
00
00
00
ENDCHAR

STARTCHAR LATIN
ENCODING 335
SWIDTH 500 0
DWIDTH 8 0
BBX 8 18 0 -3
BITMAP
00
00
00
42
42
3C
00
3C
42
42
42
42
42
42
3C
00
00
00
ENDCHAR

STARTCHAR LATIN
ENCODING 336
SWIDTH 500 0
DWIDTH 8 0
BBX 8 18 0 -3
BITMAP
00
33
44
00
00
3C
42
42
42
42
42
42
42
42
3C
00
00
00
ENDCHAR

STARTCHAR LATIN
ENCODING 337
SWIDTH 500 0
DWIDTH 8 0
BBX 8 18 0 -3
BITMAP
00
00
00
33
44
00
00
3C
42
42
42
42
42
42
3C
00
00
00
ENDCHAR

STARTCHAR LATIN
ENCODING 338
SWIDTH 500 0
DWIDTH 8 0
BBX 8 18 0 -3
BITMAP
00
00
00
00
00
37
48
48
48
4E
48
48
48
48
37
00
00
00
ENDCHAR

STARTCHAR LATIN
ENCODING 339
SWIDTH 500 0
DWIDTH 8 0
BBX 8 18 0 -3
BITMAP
00
00
00
00
00
00
00
36
49
49
4F
48
48
49
36
00
00
00
ENDCHAR

STARTCHAR LATIN
ENCODING 340
SWIDTH 500 0
DWIDTH 8 0
BBX 8 18 0 -3
BITMAP
00
0C
30
00
00
7C
42
42
42
7C
48
44
44
42
42
00
00
00
ENDCHAR

STARTCHAR LATIN
ENCODING 341
SWIDTH 500 0
DWIDTH 8 0
BBX 8 18 0 -3
BITMAP
00
00
00
0C
30
00
00
5C
62
42
40
40
40
40
40
00
00
00
ENDCHAR

STARTCHAR LATIN
ENCODING 342
SWIDTH 500 0
DWIDTH 8 0
BBX 8 18 0 -3
BITMAP
00
00
00
00
00
7C
42
42
42
7C
48
44
44
42
42
20
C0
00
ENDCHAR

STARTCHAR LATIN
ENCODING 343
SWIDTH 500 0
DWIDTH 8 0
BBX 8 18 0 -3
BITMAP
00
00
00
00
00
00
00
5C
62
42
40
40
40
40
40
20
C0
00
ENDCHAR

STARTCHAR LATIN
ENCODING 344
SWIDTH 500 0
DWIDTH 8 0
BBX 8 18 0 -3
BITMAP
00
24
18
00
00
7C
42
42
42
7C
48
44
44
42
42
00
00
00
ENDCHAR

STARTCHAR LATIN
ENCODING 345
SWIDTH 500 0
DWIDTH 8 0
BBX 8 18 0 -3
BITMAP
00
00
00
24
18
00
00
5C
62
42
40
40
40
40
40
00
00
00
ENDCHAR

STARTCHAR LATIN
ENCODING 346
SWIDTH 500 0
DWIDTH 8 0
BBX 8 18 0 -3
BITMAP
00
0C
30
00
00
3C
42
42
40
30
0C
02
42
42
3C
00
00
00
ENDCHAR

STARTCHAR LATIN
ENCODING 347
SWIDTH 500 0
DWIDTH 8 0
BBX 8 18 0 -3
BITMAP
00
00
00
0C
30
00
00
3C
42
40
30
0C
42
42
3C
00
00
00
ENDCHAR

STARTCHAR LATIN
ENCODING 348
SWIDTH 500 0
DWIDTH 8 0
BBX 8 18 0 -3
BITMAP
00
18
24
00
00
3C
42
42
40
30
0C
02
42
42
3C
00
00
00
ENDCHAR

STARTCHAR LATIN
ENCODING 349
SWIDTH 500 0
DWIDTH 8 0
BBX 8 18 0 -3
BITMAP
00
00
00
18
24
00
00
3C
42
40
30
0C
02
42
3C
00
00
00
ENDCHAR

STARTCHAR LATIN
ENCODING 350
SWIDTH 500 0
DWIDTH 8 0
BBX 8 18 0 -3
BITMAP
00
00
00
00
00
3C
42
42
40
30
0C
02
42
42
3C
08
30
00
ENDCHAR

STARTCHAR LATIN
ENCODING 351
SWIDTH 500 0
DWIDTH 8 0
BBX 8 18 0 -3
BITMAP
00
00
00
00
00
00
00
3C
42
40
30
0C
02
42
3C
08
30
00
ENDCHAR

STARTCHAR LATIN
ENCODING 352
SWIDTH 500 0
DWIDTH 8 0
BBX 8 18 0 -3
BITMAP
00
24
18
00
00
3C
42
42
40
30
0C
02
42
42
3C
00
00
00
ENDCHAR

STARTCHAR LATIN
ENCODING 353
SWIDTH 500 0
DWIDTH 8 0
BBX 8 18 0 -3
BITMAP
00
00
00
24
18
00
00
3C
42
40
30
0C
02
42
3C
00
00
00
ENDCHAR

STARTCHAR LATIN
ENCODING 354
SWIDTH 500 0
DWIDTH 8 0
BBX 8 18 0 -3
BITMAP
00
00
00
00
00
7F
08
08
08
08
08
08
08
08
08
08
30
00
ENDCHAR

STARTCHAR LATIN
ENCODING 355
SWIDTH 500 0
DWIDTH 8 0
BBX 8 18 0 -3
BITMAP
00
00
00
00
00
10
10
7C
10
10
10
10
10
10
0C
08
30
00
ENDCHAR

STARTCHAR LATIN
ENCODING 356
SWIDTH 500 0
DWIDTH 8 0
BBX 8 18 0 -3
BITMAP
00
24
18
00
00
7F
08
08
08
08
08
08
08
08
08
00
00
00
ENDCHAR

STARTCHAR LATIN
ENCODING 357
SWIDTH 500 0
DWIDTH 8 0
BBX 8 18 0 -3
BITMAP
00
00
00
06
02
12
14
10
7C
10
10
10
10
10
0C
00
00
00
ENDCHAR

STARTCHAR LATIN
ENCODING 358
SWIDTH 500 0
DWIDTH 8 0
BBX 8 18 0 -3
BITMAP
00
00
00
00
00
7F
08
08
0A
0C
18
28
08
08
08
00
00
00
ENDCHAR

STARTCHAR LATIN
ENCODING 359
SWIDTH 500 0
DWIDTH 8 0
BBX 8 18 0 -3
BITMAP
00
00
00
00
00
10
10
7C
10
14
18
30
50
10
0C
00
00
00
ENDCHAR

STARTCHAR LATIN
ENCODING 360
SWIDTH 500 0
DWIDTH 8 0
BBX 8 18 0 -3
BITMAP
00
32
4C
00
00
42
42
42
42
42
42
42
42
42
3C
00
00
00
ENDCHAR

STARTCHAR LATIN
ENCODING 361
SWIDTH 500 0
DWIDTH 8 0
BBX 8 18 0 -3
BITMAP
00
00
00
32
4C
00
00
42
42
42
42
42
42
46
3A
00
00
00
ENDCHAR

STARTCHAR LATIN
ENCODING 362
SWIDTH 500 0
DWIDTH 8 0
BBX 8 18 0 -3
BITMAP
00
00
3C
00
00
42
42
42
42
42
42
42
42
42
3C
00
00
00
ENDCHAR

STARTCHAR LATIN
ENCODING 363
SWIDTH 500 0
DWIDTH 8 0
BBX 8 18 0 -3
BITMAP
00
00
00
00
3C
00
00
42
42
42
42
42
42
46
3A
00
00
00
ENDCHAR

STARTCHAR LATIN
ENCODING 364
SWIDTH 500 0
DWIDTH 8 0
BBX 8 18 0 -3
BITMAP
00
42
42
3C
00
42
42
42
42
42
42
42
42
42
3C
00
00
00
ENDCHAR

STARTCHAR LATIN
ENCODING 365
SWIDTH 500 0
DWIDTH 8 0
BBX 8 18 0 -3
BITMAP
00
00
42
42
3C
00
00
42
42
42
42
42
42
46
3A
00
00
00
ENDCHAR

STARTCHAR LATIN
ENCODING 366
SWIDTH 500 0
DWIDTH 8 0
BBX 8 18 0 -3
BITMAP
00
18
24
18
00
42
42
42
42
42
42
42
42
42
3C
00
00
00
ENDCHAR

STARTCHAR LATIN
ENCODING 367
SWIDTH 500 0
DWIDTH 8 0
BBX 8 18 0 -3
BITMAP
00
00
00
18
24
18
00
42
42
42
42
42
42
46
3A
00
00
00
ENDCHAR

STARTCHAR LATIN
ENCODING 368
SWIDTH 500 0
DWIDTH 8 0
BBX 8 18 0 -3
BITMAP
00
33
44
00
00
42
42
42
42
42
42
42
42
42
3C
00
00
00
ENDCHAR

STARTCHAR LATIN
ENCODING 369
SWIDTH 500 0
DWIDTH 8 0
BBX 8 18 0 -3
BITMAP
00
00
00
33
44
00
00
42
42
42
42
42
42
46
3A
00
00
00
ENDCHAR

STARTCHAR LATIN
ENCODING 370
SWIDTH 500 0
DWIDTH 8 0
BBX 8 18 0 -3
BITMAP
00
00
00
00
00
42
42
42
42
42
42
42
42
42
3C
10
0C
00
ENDCHAR

STARTCHAR LATIN
ENCODING 371
SWIDTH 500 0
DWIDTH 8 0
BBX 8 18 0 -3
BITMAP
00
00
00
00
00
00
00
42
42
42
42
42
42
46
3A
04
03
00
ENDCHAR

STARTCHAR LATIN
ENCODING 372
SWIDTH 500 0
DWIDTH 8 0
BBX 8 18 0 -3
BITMAP
00
18
24
00
00
42
42
42
42
5A
5A
66
66
42
42
00
00
00
ENDCHAR

STARTCHAR LATIN
ENCODING 373
SWIDTH 500 0
DWIDTH 8 0
BBX 8 18 0 -3
BITMAP
00
00
00
18
24
00
00
41
49
49
49
49
49
49
36
00
00
00
ENDCHAR

STARTCHAR LATIN
ENCODING 374
SWIDTH 500 0
DWIDTH 8 0
BBX 8 18 0 -3
BITMAP
00
18
24
00
00
41
41
22
22
14
08
08
08
08
08
00
00
00
ENDCHAR

STARTCHAR LATIN
ENCODING 375
SWIDTH 500 0
DWIDTH 8 0
BBX 8 18 0 -3
BITMAP
00
00
00
18
24
00
00
42
42
42
42
42
26
1A
02
02
3C
00
ENDCHAR

STARTCHAR LATIN
ENCODING 376
SWIDTH 500 0
DWIDTH 8 0
BBX 8 18 0 -3
BITMAP
00
24
24
00
00
41
41
22
22
14
08
08
08
08
08
00
00
00
ENDCHAR

STARTCHAR LATIN
ENCODING 377
SWIDTH 500 0
DWIDTH 8 0
BBX 8 18 0 -3
BITMAP
00
0C
30
00
00
7E
02
02
04
08
10
20
40
40
7E
00
00
00
ENDCHAR

STARTCHAR LATIN
ENCODING 378
SWIDTH 500 0
DWIDTH 8 0
BBX 8 18 0 -3
BITMAP
00
00
00
0C
30
00
00
7E
02
04
08
10
20
40
7E
00
00
00
ENDCHAR

STARTCHAR LATIN
ENCODING 379
SWIDTH 500 0
DWIDTH 8 0
BBX 8 18 0 -3
BITMAP
00
10
10
00
00
7E
02
02
04
08
10
20
40
40
7E
00
00
00
ENDCHAR

STARTCHAR LATIN
ENCODING 380
SWIDTH 500 0
DWIDTH 8 0
BBX 8 18 0 -3
BITMAP
00
00
00
10
10
00
00
7E
02
04
08
10
20
40
7E
00
00
00
ENDCHAR

STARTCHAR LATIN
ENCODING 381
SWIDTH 500 0
DWIDTH 8 0
BBX 8 18 0 -3
BITMAP
00
24
18
00
00
7E
02
02
04
08
10
20
40
40
7E
00
00
00
ENDCHAR

STARTCHAR LATIN
ENCODING 382
SWIDTH 500 0
DWIDTH 8 0
BBX 8 18 0 -3
BITMAP
00
00
00
24
18
00
00
7E
02
04
08
10
20
40
7E
00
00
00
ENDCHAR

STARTCHAR LATIN
ENCODING 383
SWIDTH 500 0
DWIDTH 8 0
BBX 8 18 0 -3
BITMAP
00
00
00
00
0C
10
10
10
30
10
10
10
10
10
10
00
00
00
ENDCHAR

STARTCHAR LATIN
ENCODING 384
SWIDTH 500 0
DWIDTH 8 0
BBX 8 18 0 -3
BITMAP
00
00
00
00
40
F0
40
5C
62
42
42
42
42
62
5C
00
00
00
ENDCHAR

STARTCHAR LATIN
ENCODING 385
SWIDTH 500 0
DWIDTH 8 0
BBX 8 18 0 -3
BITMAP
00
00
00
00
00
7C
A2
A2
22
3C
22
22
22
22
3C
00
00
00
ENDCHAR

STARTCHAR LATIN
ENCODING 386
SWIDTH 500 0
DWIDTH 8 0
BBX 8 18 0 -3
BITMAP
00
00
00
00
00
7E
40
40
40
7C
42
42
42
42
7C
00
00
00
ENDCHAR

STARTCHAR LATIN
ENCODING 387
SWIDTH 500 0
DWIDTH 8 0
BBX 8 18 0 -3
BITMAP
00
00
00
00
00
7E
40
40
5C
62
42
42
42
62
5C
00
00
00
ENDCHAR

STARTCHAR LATIN
ENCODING 388
SWIDTH 500 0
DWIDTH 8 0
BBX 8 18 0 -3
BITMAP
00
00
00
00
00
60
20
20
20
3C
22
22
22
22
3C
00
00
00
ENDCHAR

STARTCHAR LATIN
ENCODING 389
SWIDTH 500 0
DWIDTH 8 0
BBX 8 18 0 -3
BITMAP
00
00
00
00
00
00
00
60
20
20
20
3C
22
22
3C
00
00
00
ENDCHAR

STARTCHAR LATIN
ENCODING 390
SWIDTH 500 0
DWIDTH 8 0
BBX 8 18 0 -3
BITMAP
00
00
00
00
00
3C
42
42
02
02
02
02
42
42
7C
00
00
00
ENDCHAR

STARTCHAR LATIN
ENCODING 391
SWIDTH 500 0
DWIDTH 8 0
BBX 8 18 0 -3
BITMAP
00
00
00
03
04
3C
44
44
40
40
40
40
44
44
38
00
00
00
ENDCHAR

STARTCHAR LATIN
ENCODING 392
SWIDTH 500 0
DWIDTH 8 0
BBX 8 18 0 -3
BITMAP
00
00
00
00
00
03
04
3C
44
40
40
40
40
44
38
00
00
00
ENDCHAR

STARTCHAR LATIN
ENCODING 393
SWIDTH 500 0
DWIDTH 8 0
BBX 8 18 0 -3
BITMAP
00
00
00
00
00
78
44
42
42
F2
42
42
42
44
78
00
00
00
ENDCHAR

STARTCHAR LATIN
ENCODING 394
SWIDTH 500 0
DWIDTH 8 0
BBX 8 18 0 -3
BITMAP
00
00
00
00
00
78
A4
A2
22
22
22
22
22
24
38
00
00
00
ENDCHAR

STARTCHAR LATIN
ENCODING 395
SWIDTH 500 0
DWIDTH 8 0
BBX 8 18 0 -3
BITMAP
00
00
00
00
00
7E
02
02
02
3E
42
42
42
42
3E
00
00
00
ENDCHAR

STARTCHAR LATIN
ENCODING 396
SWIDTH 500 0
DWIDTH 8 0
BBX 8 18 0 -3
BITMAP
00
00
00
00
00
7E
02
02
3A
46
42
42
42
46
3A
00
00
00
ENDCHAR

STARTCHAR LATIN
ENCODING 397
SWIDTH 500 0
DWIDTH 8 0
BBX 8 18 0 -3
BITMAP
00
00
00
00
00
00
00
3C
42
42
42
42
24
18
04
04
38
00
ENDCHAR

STARTCHAR LATIN
ENCODING 398
SWIDTH 500 0
DWIDTH 8 0
BBX 8 18 0 -3
BITMAP
00
00
00
00
00
7E
02
02
02
3E
02
02
02
02
7E
00
00
00
ENDCHAR

STARTCHAR LATIN
ENCODING 399
SWIDTH 500 0
DWIDTH 8 0
BBX 8 18 0 -3
BITMAP
00
00
00
00
00
18
24
42
02
02
7E
42
42
24
18
00
00
00
ENDCHAR

STARTCHAR LATIN
ENCODING 400
SWIDTH 500 0
DWIDTH 8 0
BBX 8 18 0 -3
BITMAP
00
00
00
00
00
3C
42
42
40
38
40
40
42
42
3C
00
00
00
ENDCHAR

STARTCHAR LATIN
ENCODING 401
SWIDTH 500 0
DWIDTH 8 0
BBX 8 18 0 -3
BITMAP
00
00
00
00
00
1F
10
10
10
1E
10
10
10
10
10
60
00
00
ENDCHAR

STARTCHAR LATIN
ENCODING 402
SWIDTH 500 0
DWIDTH 8 0
BBX 8 18 0 -3
BITMAP
00
00
00
00
0C
10
10
10
7C
10
10
10
10
10
10
60
00
00
ENDCHAR

STARTCHAR LATIN
ENCODING 403
SWIDTH 500 0
DWIDTH 8 0
BBX 8 18 0 -3
BITMAP
00
00
00
00
03
3C
44
44
40
40
5C
44
44
4C
34
00
00
00
ENDCHAR

STARTCHAR LATIN
ENCODING 404
SWIDTH 500 0
DWIDTH 8 0
BBX 8 18 0 -3
BITMAP
00
00
00
00
00
42
42
42
24
24
18
18
24
24
18
00
00
00
ENDCHAR

STARTCHAR LATIN
ENCODING 405
SWIDTH 500 0
DWIDTH 8 0
BBX 8 18 0 -3
BITMAP
00
00
00
00
40
40
40
40
72
4A
4A
4A
4A
4A
44
00
00
00
ENDCHAR

STARTCHAR LATIN
ENCODING 406
SWIDTH 500 0
DWIDTH 8 0
BBX 8 18 0 -3
BITMAP
00
00
00
00
00
70
10
10
10
10
10
10
10
10
0C
00
00
00
ENDCHAR

STARTCHAR LATIN
ENCODING 407
SWIDTH 500 0
DWIDTH 8 0
BBX 8 18 0 -3
BITMAP
00
00
00
00
00
3E
08
08
08
3E
08
08
08
08
3E
00
00
00
ENDCHAR

STARTCHAR LATIN
ENCODING 408
SWIDTH 500 0
DWIDTH 8 0
BBX 8 18 0 -3
BITMAP
00
00
00
00
00
46
4A
50
50
60
60
50
48
44
42
00
00
00
ENDCHAR

STARTCHAR LATIN
ENCODING 409
SWIDTH 500 0
DWIDTH 8 0
BBX 8 18 0 -3
BITMAP
00
00
00
00
30
40
40
44
48
50
60
50
48
44
42
00
00
00
ENDCHAR

STARTCHAR LATIN
ENCODING 410
SWIDTH 500 0
DWIDTH 8 0
BBX 8 18 0 -3
BITMAP
00
00
00
00
00
18
08
08
08
3E
08
08
08
08
3E
00
00
00
ENDCHAR

STARTCHAR LATIN
ENCODING 411
SWIDTH 500 0
DWIDTH 8 0
BBX 8 18 0 -3
BITMAP
00
00
00
00
00
24
28
10
30
48
18
24
24
42
42
00
00
00
ENDCHAR

STARTCHAR LATIN
ENCODING 412
SWIDTH 500 0
DWIDTH 8 0
BBX 8 18 0 -3
BITMAP
00
00
00
00
00
49
49
49
49
49
49
49
49
49
37
00
00
00
ENDCHAR

STARTCHAR LATIN
ENCODING 413
SWIDTH 500 0
DWIDTH 8 0
BBX 8 18 0 -3
BITMAP
00
00
00
00
00
22
22
32
32
2A
2A
26
26
22
22
C0
00
00
ENDCHAR

STARTCHAR LATIN
ENCODING 414
SWIDTH 500 0
DWIDTH 8 0
BBX 8 18 0 -3
BITMAP
00
00
00
00
00
00
00
5C
62
42
42
42
42
42
42
02
02
00
ENDCHAR

STARTCHAR LATIN
ENCODING 415
SWIDTH 500 0
DWIDTH 8 0
BBX 8 18 0 -3
BITMAP
00
00
00
00
00
3C
42
42
42
7E
42
42
42
42
3C
00
00
00
ENDCHAR

STARTCHAR LATIN
ENCODING 416
SWIDTH 500 0
DWIDTH 8 0
BBX 8 18 0 -3
BITMAP
00
00
00
00
02
3A
44
44
44
44
44
44
44
44
38
00
00
00
ENDCHAR

STARTCHAR LATIN
ENCODING 417
SWIDTH 500 0
DWIDTH 8 0
BBX 8 18 0 -3
BITMAP
00
00
00
00
00
00
02
3A
44
44
44
44
44
44
38
00
00
00
ENDCHAR

STARTCHAR LATIN
ENCODING 418
SWIDTH 500 0
DWIDTH 8 0
BBX 8 18 0 -3
BITMAP
00
00
00
00
00
36
4A
4A
4A
4A
4A
4A
4A
4A
32
02
02
00
ENDCHAR

STARTCHAR LATIN
ENCODING 419
SWIDTH 500 0
DWIDTH 8 0
BBX 8 18 0 -3
BITMAP
00
00
00
00
00
00
00
36
4A
4A
4A
4A
4A
4A
32
02
02
00
ENDCHAR

STARTCHAR LATIN
ENCODING 420
SWIDTH 500 0
DWIDTH 8 0
BBX 8 18 0 -3
BITMAP
00
00
00
00
00
3E
51
51
11
1E
10
10
10
10
10
00
00
00
ENDCHAR

STARTCHAR LATIN
ENCODING 421
SWIDTH 500 0
DWIDTH 8 0
BBX 8 18 0 -3
BITMAP
00
00
00
00
00
00
03
5C
64
44
44
44
44
64
58
40
40
00
ENDCHAR

STARTCHAR LATIN
ENCODING 422
SWIDTH 500 0
DWIDTH 8 0
BBX 8 18 0 -3
BITMAP
00
00
00
00
00
70
20
3C
22
22
3C
28
24
22
21
00
00
00
ENDCHAR

STARTCHAR LATIN
ENCODING 423
SWIDTH 500 0
DWIDTH 8 0
BBX 8 18 0 -3
BITMAP
00
00
00
00
00
3C
42
42
02
0C
30
40
42
42
3C
00
00
00
ENDCHAR

STARTCHAR LATIN
ENCODING 424
SWIDTH 500 0
DWIDTH 8 0
BBX 8 18 0 -3
BITMAP
00
00
00
00
00
00
00
3C
42
02
0C
30
40
42
3C
00
00
00
ENDCHAR

STARTCHAR LATIN
ENCODING 425
SWIDTH 500 0
DWIDTH 8 0
BBX 8 18 0 -3
BITMAP
00
00
00
00
00
7E
40
20
10
08
08
10
20
40
7E
00
00
00
ENDCHAR

STARTCHAR LATIN
ENCODING 426
SWIDTH 500 0
DWIDTH 8 0
BBX 8 18 0 -3
BITMAP
00
00
00
00
20
50
50
30
10
10
10
10
10
10
10
0C
00
00
ENDCHAR

STARTCHAR LATIN
ENCODING 427
SWIDTH 500 0
DWIDTH 8 0
BBX 8 18 0 -3
BITMAP
00
00
00
00
00
10
10
7C
10
10
10
10
10
10
0C
04
18
00
ENDCHAR

STARTCHAR LATIN
ENCODING 428
SWIDTH 500 0
DWIDTH 8 0
BBX 8 18 0 -3
BITMAP
00
00
00
00
00
3F
48
48
08
08
08
08
08
08
08
00
00
00
ENDCHAR

STARTCHAR LATIN
ENCODING 429
SWIDTH 500 0
DWIDTH 8 0
BBX 8 18 0 -3
BITMAP
00
00
00
00
0C
10
10
10
7C
10
10
10
10
10
0C
00
00
00
ENDCHAR

STARTCHAR LATIN
ENCODING 430
SWIDTH 500 0
DWIDTH 8 0
BBX 8 18 0 -3
BITMAP
00
00
00
00
00
7F
08
08
08
08
08
08
08
08
08
06
00
00
ENDCHAR

STARTCHAR LATIN
ENCODING 431
SWIDTH 500 0
DWIDTH 8 0
BBX 8 18 0 -3
BITMAP
00
00
00
01
01
46
44
44
44
44
44
44
44
44
38
00
00
00
ENDCHAR

STARTCHAR LATIN
ENCODING 432
SWIDTH 500 0
DWIDTH 8 0
BBX 8 18 0 -3
BITMAP
00
00
00
00
00
01
01
46
44
44
44
44
44
4C
34
00
00
00
ENDCHAR

STARTCHAR LATIN
ENCODING 433
SWIDTH 500 0
DWIDTH 8 0
BBX 8 18 0 -3
BITMAP
00
00
00
00
00
42
24
24
42
42
42
42
42
24
18
00
00
00
ENDCHAR

STARTCHAR LATIN
ENCODING 434
SWIDTH 500 0
DWIDTH 8 0
BBX 8 18 0 -3
BITMAP
00
00
00
00
00
4C
42
42
42
42
42
42
44
48
30
00
00
00
ENDCHAR

STARTCHAR LATIN
ENCODING 435
SWIDTH 500 0
DWIDTH 8 0
BBX 8 18 0 -3
BITMAP
00
00
00
00
00
31
51
11
0A
0A
04
04
04
04
04
00
00
00
ENDCHAR

STARTCHAR LATIN
ENCODING 436
SWIDTH 500 0
DWIDTH 8 0
BBX 8 18 0 -3
BITMAP
00
00
00
00
00
00
03
44
44
44
44
44
24
1C
04
04
38
00
ENDCHAR

STARTCHAR LATIN
ENCODING 437
SWIDTH 500 0
DWIDTH 8 0
BBX 8 18 0 -3
BITMAP
00
00
00
00
00
7E
02
04
08
3C
10
20
40
40
7E
00
00
00
ENDCHAR

STARTCHAR LATIN
ENCODING 438
SWIDTH 500 0
DWIDTH 8 0
BBX 8 18 0 -3
BITMAP
00
00
00
00
00
00
00
7E
04
08
3C
10
20
40
7E
00
00
00
ENDCHAR

STARTCHAR LATIN
ENCODING 439
SWIDTH 500 0
DWIDTH 8 0
BBX 8 18 0 -3
BITMAP
00
00
00
00
00
7E
04
08
10
1C
02
02
02
46
3C
00
00
00
ENDCHAR

STARTCHAR LATIN
ENCODING 440
SWIDTH 500 0
DWIDTH 8 0
BBX 8 18 0 -3
BITMAP
00
00
00
00
00
7E
20
10
08
38
40
40
40
62
3C
00
00
00
ENDCHAR

STARTCHAR LATIN
ENCODING 441
SWIDTH 500 0
DWIDTH 8 0
BBX 8 18 0 -3
BITMAP
00
00
00
00
00
00
00
7C
20
10
08
38
40
40
40
42
3C
00
ENDCHAR

STARTCHAR LATIN
ENCODING 442
SWIDTH 500 0
DWIDTH 8 0
BBX 8 18 0 -3
BITMAP
00
00
00
00
00
00
00
3E
04
08
1C
02
02
3C
40
42
3C
00
ENDCHAR

STARTCHAR LATIN
ENCODING 443
SWIDTH 500 0
DWIDTH 8 0
BBX 8 18 0 -3
BITMAP
00
00
00
00
00
3C
42
42
04
08
7E
20
40
40
7E
00
00
00
ENDCHAR

STARTCHAR LATIN
ENCODING 444
SWIDTH 500 0
DWIDTH 8 0
BBX 8 18 0 -3
BITMAP
00
00
00
00
00
7E
20
20
20
3C
02
02
02
42
3C
00
00
00
ENDCHAR

STARTCHAR LATIN
ENCODING 445
SWIDTH 500 0
DWIDTH 8 0
BBX 8 18 0 -3
BITMAP
00
00
00
00
00
00
00
7E
20
20
3C
02
02
42
3C
00
00
00
ENDCHAR

STARTCHAR LATIN
ENCODING 446
SWIDTH 500 0
DWIDTH 8 0
BBX 8 18 0 -3
BITMAP
00
00
00
00
00
10
10
7C
10
10
18
04
04
44
38
00
00
00
ENDCHAR

STARTCHAR LATIN
ENCODING 447
SWIDTH 500 0
DWIDTH 8 0
BBX 8 18 0 -3
BITMAP
00
00
00
00
00
00
00
5C
62
42
42
44
48
50
60
40
40
00
ENDCHAR

STARTCHAR LATIN
ENCODING 448
SWIDTH 500 0
DWIDTH 8 0
BBX 8 18 0 -3
BITMAP
00
00
00
00
10
10
10
10
10
10
10
10
10
10
10
00
00
00
ENDCHAR

STARTCHAR LATIN
ENCODING 449
SWIDTH 500 0
DWIDTH 8 0
BBX 8 18 0 -3
BITMAP
00
00
00
00
28
28
28
28
28
28
28
28
28
28
28
00
00
00
ENDCHAR

STARTCHAR LATIN
ENCODING 450
SWIDTH 500 0
DWIDTH 8 0
BBX 8 18 0 -3
BITMAP
00
00
00
00
10
10
10
10
7C
10
7C
10
10
10
10
00
00
00
ENDCHAR

STARTCHAR LATIN
ENCODING 451
SWIDTH 500 0
DWIDTH 8 0
BBX 8 18 0 -3
BITMAP
00
00
00
00
00
08
08
08
08
08
08
08
00
08
08
00
00
00
ENDCHAR

STARTCHAR LATIN
ENCODING 452
SWIDTH 500 0
DWIDTH 8 0
BBX 8 18 0 -3
BITMAP
00
05
02
00
00
67
51
51
51
52
52
54
54
54
67
00
00
00
ENDCHAR

STARTCHAR LATIN
ENCODING 453
SWIDTH 500 0
DWIDTH 8 0
BBX 8 18 0 -3
BITMAP
00
00
00
05
02
60
50
57
51
51
52
52
54
54
67
00
00
00
ENDCHAR

STARTCHAR LATIN
ENCODING 454
SWIDTH 500 0
DWIDTH 8 0
BBX 8 18 0 -3
BITMAP
00
00
00
05
12
10
10
37
51
51
52
52
54
54
37
00
00
00
ENDCHAR

STARTCHAR LATIN
ENCODING 455
SWIDTH 500 0
DWIDTH 8 0
BBX 8 18 0 -3
BITMAP
00
00
00
00
00
47
41
41
41
41
41
41
49
49
76
00
00
00
ENDCHAR

STARTCHAR LATIN
ENCODING 456
SWIDTH 500 0
DWIDTH 8 0
BBX 8 18 0 -3
BITMAP
00
00
00
00
01
41
40
43
41
41
41
41
41
41
79
02
0C
00
ENDCHAR

STARTCHAR LATIN
ENCODING 457
SWIDTH 500 0
DWIDTH 8 0
BBX 8 18 0 -3
BITMAP
00
00
00
00
01
61
20
23
21
21
21
21
21
21
F9
02
0C
00
ENDCHAR

STARTCHAR LATIN
ENCODING 458
SWIDTH 500 0
DWIDTH 8 0
BBX 8 18 0 -3
BITMAP
00
00
00
00
00
4B
49
49
69
69
59
59
4D
4D
4A
00
00
00
ENDCHAR

STARTCHAR LATIN
ENCODING 459
SWIDTH 500 0
DWIDTH 8 0
BBX 8 18 0 -3
BITMAP
00
00
00
00
01
49
48
6B
69
69
59
59
59
49
49
12
0C
00
ENDCHAR

STARTCHAR LATIN
ENCODING 460
SWIDTH 500 0
DWIDTH 8 0
BBX 8 18 0 -3
BITMAP
00
00
00
00
01
01
00
53
69
49
49
49
49
49
49
12
0C
00
ENDCHAR

STARTCHAR LATIN
ENCODING 461
SWIDTH 500 0
DWIDTH 8 0
BBX 8 18 0 -3
BITMAP
00
24
18
00
00
18
24
24
42
42
7E
42
42
42
42
00
00
00
ENDCHAR

STARTCHAR LATIN
ENCODING 462
SWIDTH 500 0
DWIDTH 8 0
BBX 8 18 0 -3
BITMAP
00
00
00
24
18
00
00
3C
42
02
3E
42
42
46
3A
00
00
00
ENDCHAR

STARTCHAR LATIN
ENCODING 463
SWIDTH 500 0
DWIDTH 8 0
BBX 8 18 0 -3
BITMAP
00
24
18
00
00
3E
08
08
08
08
08
08
08
08
3E
00
00
00
ENDCHAR

STARTCHAR LATIN
ENCODING 464
SWIDTH 500 0
DWIDTH 8 0
BBX 8 18 0 -3
BITMAP
00
00
00
24
18
00
00
18
08
08
08
08
08
08
3E
00
00
00
ENDCHAR

STARTCHAR LATIN
ENCODING 465
SWIDTH 500 0
DWIDTH 8 0
BBX 8 18 0 -3
BITMAP
00
24
18
00
00
3C
42
42
42
42
42
42
42
42
3C
00
00
00
ENDCHAR

STARTCHAR LATIN
ENCODING 466
SWIDTH 500 0
DWIDTH 8 0
BBX 8 18 0 -3
BITMAP
00
00
00
24
18
00
00
3C
42
42
42
42
42
42
3C
00
00
00
ENDCHAR

STARTCHAR LATIN
ENCODING 467
SWIDTH 500 0
DWIDTH 8 0
BBX 8 18 0 -3
BITMAP
00
24
18
00
00
42
42
42
42
42
42
42
42
42
3C
00
00
00
ENDCHAR

STARTCHAR LATIN
ENCODING 468
SWIDTH 500 0
DWIDTH 8 0
BBX 8 18 0 -3
BITMAP
00
00
00
24
18
00
00
42
42
42
42
42
42
46
3A
00
00
00
ENDCHAR

STARTCHAR LATIN
ENCODING 469
SWIDTH 500 0
DWIDTH 8 0
BBX 8 18 0 -3
BITMAP
00
3C
00
24
00
42
42
42
42
42
42
42
42
42
3C
00
00
00
ENDCHAR

STARTCHAR LATIN
ENCODING 470
SWIDTH 500 0
DWIDTH 8 0
BBX 8 18 0 -3
BITMAP
00
00
3C
00
24
24
00
42
42
42
42
42
42
46
3A
00
00
00
ENDCHAR

STARTCHAR LATIN
ENCODING 471
SWIDTH 500 0
DWIDTH 8 0
BBX 8 18 0 -3
BITMAP
00
0C
30
00
24
00
42
42
42
42
42
42
42
42
3C
00
00
00
ENDCHAR

STARTCHAR LATIN
ENCODING 472
SWIDTH 500 0
DWIDTH 8 0
BBX 8 18 0 -3
BITMAP
00
0C
30
00
24
24
00
42
42
42
42
42
42
46
3A
00
00
00
ENDCHAR

STARTCHAR LATIN
ENCODING 473
SWIDTH 500 0
DWIDTH 8 0
BBX 8 18 0 -3
BITMAP
00
24
18
00
24
00
42
42
42
42
42
42
42
42
3C
00
00
00
ENDCHAR

STARTCHAR LATIN
ENCODING 474
SWIDTH 500 0
DWIDTH 8 0
BBX 8 18 0 -3
BITMAP
00
24
18
00
24
24
00
42
42
42
42
42
42
46
3A
00
00
00
ENDCHAR

STARTCHAR LATIN
ENCODING 475
SWIDTH 500 0
DWIDTH 8 0
BBX 8 18 0 -3
BITMAP
00
30
0C
00
24
00
42
42
42
42
42
42
42
42
3C
00
00
00
ENDCHAR

STARTCHAR LATIN
ENCODING 476
SWIDTH 500 0
DWIDTH 8 0
BBX 8 18 0 -3
BITMAP
00
30
0C
00
24
24
00
42
42
42
42
42
42
46
3A
00
00
00
ENDCHAR

STARTCHAR LATIN
ENCODING 477
SWIDTH 500 0
DWIDTH 8 0
BBX 8 18 0 -3
BITMAP
00
00
00
00
00
00
00
3C
42
02
02
7E
42
42
3C
00
00
00
ENDCHAR

STARTCHAR LATIN
ENCODING 478
SWIDTH 500 0
DWIDTH 8 0
BBX 8 18 0 -3
BITMAP
00
3C
00
24
00
18
24
24
42
42
7E
42
42
42
42
00
00
00
ENDCHAR

STARTCHAR LATIN
ENCODING 479
SWIDTH 500 0
DWIDTH 8 0
BBX 8 18 0 -3
BITMAP
00
00
3C
00
24
24
00
3C
42
02
3E
42
42
46
3A
00
00
00
ENDCHAR

STARTCHAR LATIN
ENCODING 480
SWIDTH 500 0
DWIDTH 8 0
BBX 8 18 0 -3
BITMAP
00
3C
00
18
00
18
24
24
42
42
7E
42
42
42
42
00
00
00
ENDCHAR

STARTCHAR LATIN
ENCODING 481
SWIDTH 500 0
DWIDTH 8 0
BBX 8 18 0 -3
BITMAP
00
00
3C
00
10
10
00
3C
42
02
3E
42
42
46
3A
00
00
00
ENDCHAR

STARTCHAR LATIN
ENCODING 482
SWIDTH 500 0
DWIDTH 8 0
BBX 8 18 0 -3
BITMAP
00
00
3C
00
00
1F
28
48
48
7F
48
48
48
48
4F
00
00
00
ENDCHAR

STARTCHAR LATIN
ENCODING 483
SWIDTH 500 0
DWIDTH 8 0
BBX 8 18 0 -3
BITMAP
00
00
00
00
3C
00
00
3E
49
09
3F
48
48
49
3E
00
00
00
ENDCHAR

STARTCHAR LATIN
ENCODING 484
SWIDTH 500 0
DWIDTH 8 0
BBX 8 18 0 -3
BITMAP
00
00
00
00
00
3C
42
42
40
40
4E
42
4F
42
3E
00
00
00
ENDCHAR

STARTCHAR LATIN
ENCODING 485
SWIDTH 500 0
DWIDTH 8 0
BBX 8 18 0 -3
BITMAP
00
00
00
00
00
00
02
3A
44
44
44
38
20
3C
4F
42
3C
00
ENDCHAR

STARTCHAR LATIN
ENCODING 486
SWIDTH 500 0
DWIDTH 8 0
BBX 8 18 0 -3
BITMAP
00
24
18
00
00
3C
42
42
40
40
4E
42
42
46
3A
00
00
00
ENDCHAR

STARTCHAR LATIN
ENCODING 487
SWIDTH 500 0
DWIDTH 8 0
BBX 8 18 0 -3
BITMAP
00
00
00
24
18
00
02
3A
44
44
44
38
20
3C
42
42
3C
00
ENDCHAR

STARTCHAR LATIN
ENCODING 488
SWIDTH 500 0
DWIDTH 8 0
BBX 8 18 0 -3
BITMAP
00
24
18
00
00
42
44
48
50
60
60
50
48
44
42
00
00
00
ENDCHAR

STARTCHAR LATIN
ENCODING 489
SWIDTH 500 0
DWIDTH 8 0
BBX 8 18 0 -3
BITMAP
00
48
30
00
00
40
40
44
48
50
60
50
48
44
42
00
00
00
ENDCHAR

STARTCHAR LATIN
ENCODING 490
SWIDTH 500 0
DWIDTH 8 0
BBX 8 18 0 -3
BITMAP
00
00
00
00
00
3C
42
42
42
42
42
42
42
42
3C
10
0C
00
ENDCHAR

STARTCHAR LATIN
ENCODING 491
SWIDTH 500 0
DWIDTH 8 0
BBX 8 18 0 -3
BITMAP
00
00
00
00
00
00
00
3C
42
42
42
42
42
42
3C
10
0C
00
ENDCHAR

STARTCHAR LATIN
ENCODING 492
SWIDTH 500 0
DWIDTH 8 0
BBX 8 18 0 -3
BITMAP
00
00
3C
00
00
3C
42
42
42
42
42
42
42
42
3C
10
0C
00
ENDCHAR

STARTCHAR LATIN
ENCODING 493
SWIDTH 500 0
DWIDTH 8 0
BBX 8 18 0 -3
BITMAP
00
00
00
00
3C
00
00
3C
42
42
42
42
42
42
3C
10
0C
00
ENDCHAR

STARTCHAR LATIN
ENCODING 494
SWIDTH 500 0
DWIDTH 8 0
BBX 8 18 0 -3
BITMAP
00
24
18
00
00
7E
04
08
10
1C
02
02
02
46
3C
00
00
00
ENDCHAR

STARTCHAR LATIN
ENCODING 495
SWIDTH 500 0
DWIDTH 8 0
BBX 8 18 0 -3
BITMAP
00
00
00
24
18
00
00
3E
04
08
10
1C
02
02
02
42
3C
00
ENDCHAR

STARTCHAR LATIN
ENCODING 496
SWIDTH 500 0
DWIDTH 8 0
BBX 8 18 0 -3
BITMAP
00
00
00
12
0C
00
00
0C
04
04
04
04
04
04
04
48
30
00
ENDCHAR

STARTCHAR LATIN
ENCODING 497
SWIDTH 500 0
DWIDTH 8 0
BBX 8 18 0 -3
BITMAP
00
00
00
00
00
67
51
51
51
52
52
54
54
54
67
00
00
00
ENDCHAR

STARTCHAR LATIN
ENCODING 498
SWIDTH 500 0
DWIDTH 8 0
BBX 8 18 0 -3
BITMAP
00
00
00
00
00
60
50
57
51
51
52
52
54
54
67
00
00
00
ENDCHAR

STARTCHAR LATIN
ENCODING 499
SWIDTH 500 0
DWIDTH 8 0
BBX 8 18 0 -3
BITMAP
00
00
00
00
10
10
10
37
51
51
52
52
54
54
37
00
00
00
ENDCHAR

STARTCHAR LATIN
ENCODING 500
SWIDTH 500 0
DWIDTH 8 0
BBX 8 18 0 -3
BITMAP
00
0C
30
00
00
3C
42
42
40
40
4E
42
42
46
3A
00
00
00
ENDCHAR

STARTCHAR LATIN
ENCODING 501
SWIDTH 500 0
DWIDTH 8 0
BBX 8 18 0 -3
BITMAP
00
00
00
0C
30
00
02
3A
44
44
44
38
20
3C
42
42
3C
00
ENDCHAR

STARTCHAR LATIN
ENCODING 506
SWIDTH 500 0
DWIDTH 8 0
BBX 8 18 0 -3
BITMAP
00
0C
30
18
24
18
18
24
24
42
7E
42
42
42
42
00
00
00
ENDCHAR

STARTCHAR LATIN
ENCODING 507
SWIDTH 500 0
DWIDTH 8 0
BBX 8 18 0 -3
BITMAP
00
0C
30
00
18
24
18
00
3C
42
02
3E
42
46
3A
00
00
00
ENDCHAR

STARTCHAR LATIN
ENCODING 508
SWIDTH 500 0
DWIDTH 8 0
BBX 8 18 0 -3
BITMAP
00
06
18
00
00
1F
28
48
48
7F
48
48
48
48
4F
00
00
00
ENDCHAR

STARTCHAR LATIN
ENCODING 509
SWIDTH 500 0
DWIDTH 8 0
BBX 8 18 0 -3
BITMAP
00
00
00
06
18
00
00
3E
49
09
3F
48
48
49
3E
00
00
00
ENDCHAR

STARTCHAR LATIN
ENCODING 510
SWIDTH 500 0
DWIDTH 8 0
BBX 8 18 0 -3
BITMAP
00
0C
30
00
02
3A
44
46
4A
4A
52
52
62
22
5C
40
00
00
ENDCHAR

STARTCHAR LATIN
ENCODING 511
SWIDTH 500 0
DWIDTH 8 0
BBX 8 18 0 -3
BITMAP
00
00
00
0C
30
00
02
3C
46
4A
4A
52
52
62
3C
40
00
00
ENDCHAR

STARTCHAR LATIN
ENCODING 512
SWIDTH 500 0
DWIDTH 8 0
BBX 8 18 0 -3
BITMAP
00
CC
22
00
00
18
24
24
42
42
7E
42
42
42
42
00
00
00
ENDCHAR

STARTCHAR LATIN
ENCODING 513
SWIDTH 500 0
DWIDTH 8 0
BBX 8 18 0 -3
BITMAP
00
00
00
CC
22
00
00
3C
42
02
3E
42
42
46
3A
00
00
00
ENDCHAR

STARTCHAR LATIN
ENCODING 514
SWIDTH 500 0
DWIDTH 8 0
BBX 8 18 0 -3
BITMAP
00
3C
42
42
00
18
24
24
42
42
7E
42
42
42
42
00
00
00
ENDCHAR

STARTCHAR LATIN
ENCODING 515
SWIDTH 500 0
DWIDTH 8 0
BBX 8 18 0 -3
BITMAP
00
00
00
3C
42
42
00
3C
42
02
3E
42
42
46
3A
00
00
00
ENDCHAR

STARTCHAR LATIN
ENCODING 516
SWIDTH 500 0
DWIDTH 8 0
BBX 8 18 0 -3
BITMAP
00
CC
22
00
00
7E
40
40
40
7C
40
40
40
40
7E
00
00
00
ENDCHAR

STARTCHAR LATIN
ENCODING 517
SWIDTH 500 0
DWIDTH 8 0
BBX 8 18 0 -3
BITMAP
00
00
00
CC
22
00
00
3C
42
42
7E
40
40
42
3C
00
00
00
ENDCHAR

STARTCHAR LATIN
ENCODING 518
SWIDTH 500 0
DWIDTH 8 0
BBX 8 18 0 -3
BITMAP
00
3C
42
42
00
7E
40
40
40
7C
40
40
40
40
7E
00
00
00
ENDCHAR

STARTCHAR LATIN
ENCODING 519
SWIDTH 500 0
DWIDTH 8 0
BBX 8 18 0 -3
BITMAP
00
00
00
3C
42
42
00
3C
42
42
7E
40
40
42
3C
00
00
00
ENDCHAR

STARTCHAR LATIN
ENCODING 520
SWIDTH 500 0
DWIDTH 8 0
BBX 8 18 0 -3
BITMAP
00
CC
22
00
00
3E
08
08
08
08
08
08
08
08
3E
00
00
00
ENDCHAR

STARTCHAR LATIN
ENCODING 521
SWIDTH 500 0
DWIDTH 8 0
BBX 8 18 0 -3
BITMAP
00
00
00
CC
22
00
00
18
08
08
08
08
08
08
3E
00
00
00
ENDCHAR

STARTCHAR LATIN
ENCODING 522
SWIDTH 500 0
DWIDTH 8 0
BBX 8 18 0 -3
BITMAP
00
3C
42
42
00
3E
08
08
08
08
08
08
08
08
3E
00
00
00
ENDCHAR

STARTCHAR LATIN
ENCODING 523
SWIDTH 500 0
DWIDTH 8 0
BBX 8 18 0 -3
BITMAP
00
00
00
3C
42
42
00
18
08
08
08
08
08
08
3E
00
00
00
ENDCHAR

STARTCHAR LATIN
ENCODING 524
SWIDTH 500 0
DWIDTH 8 0
BBX 8 18 0 -3
BITMAP
00
CC
22
00
00
3C
42
42
42
42
42
42
42
42
3C
00
00
00
ENDCHAR

STARTCHAR LATIN
ENCODING 525
SWIDTH 500 0
DWIDTH 8 0
BBX 8 18 0 -3
BITMAP
00
00
00
CC
22
00
00
3C
42
42
42
42
42
42
3C
00
00
00
ENDCHAR

STARTCHAR LATIN
ENCODING 526
SWIDTH 500 0
DWIDTH 8 0
BBX 8 18 0 -3
BITMAP
00
3C
42
42
00
3C
42
42
42
42
42
42
42
42
3C
00
00
00
ENDCHAR

STARTCHAR LATIN
ENCODING 527
SWIDTH 500 0
DWIDTH 8 0
BBX 8 18 0 -3
BITMAP
00
00
00
3C
42
42
00
3C
42
42
42
42
42
42
3C
00
00
00
ENDCHAR

STARTCHAR LATIN
ENCODING 528
SWIDTH 500 0
DWIDTH 8 0
BBX 8 18 0 -3
BITMAP
00
CC
22
00
00
7C
42
42
42
7C
48
44
44
42
42
00
00
00
ENDCHAR

STARTCHAR LATIN
ENCODING 529
SWIDTH 500 0
DWIDTH 8 0
BBX 8 18 0 -3
BITMAP
00
00
00
CC
22
00
00
5C
62
42
40
40
40
40
40
00
00
00
ENDCHAR

STARTCHAR LATIN
ENCODING 530
SWIDTH 500 0
DWIDTH 8 0
BBX 8 18 0 -3
BITMAP
00
3C
42
42
00
7C
42
42
42
7C
48
44
44
42
42
00
00
00
ENDCHAR

STARTCHAR LATIN
ENCODING 531
SWIDTH 500 0
DWIDTH 8 0
BBX 8 18 0 -3
BITMAP
00
00
00
3C
42
42
00
5C
62
42
40
40
40
40
40
00
00
00
ENDCHAR

STARTCHAR LATIN
ENCODING 532
SWIDTH 500 0
DWIDTH 8 0
BBX 8 18 0 -3
BITMAP
00
CC
22
00
00
42
42
42
42
42
42
42
42
42
3C
00
00
00
ENDCHAR

STARTCHAR LATIN
ENCODING 533
SWIDTH 500 0
DWIDTH 8 0
BBX 8 18 0 -3
BITMAP
00
00
00
CC
22
00
00
42
42
42
42
42
42
46
3A
00
00
00
ENDCHAR

STARTCHAR LATIN
ENCODING 534
SWIDTH 500 0
DWIDTH 8 0
BBX 8 18 0 -3
BITMAP
00
3C
42
42
00
42
42
42
42
42
42
42
42
42
3C
00
00
00
ENDCHAR

STARTCHAR LATIN
ENCODING 535
SWIDTH 500 0
DWIDTH 8 0
BBX 8 18 0 -3
BITMAP
00
00
00
3C
42
42
00
42
42
42
42
42
42
46
3A
00
00
00
ENDCHAR

STARTCHAR LATIN
ENCODING 592
SWIDTH 500 0
DWIDTH 8 0
BBX 8 18 0 -3
BITMAP
00
00
00
00
00
00
00
5C
62
42
42
7C
40
42
3C
00
00
00
ENDCHAR

STARTCHAR LATIN
ENCODING 593
SWIDTH 500 0
DWIDTH 8 0
BBX 8 18 0 -3
BITMAP
00
00
00
00
00
00
00
3A
46
42
42
42
46
4A
32
00
00
00
ENDCHAR

STARTCHAR LATIN
ENCODING 594
SWIDTH 500 0
DWIDTH 8 0
BBX 8 18 0 -3
BITMAP
00
00
00
00
00
00
00
4C
52
62
42
42
42
62
5C
00
00
00
ENDCHAR

STARTCHAR LATIN
ENCODING 595
SWIDTH 500 0
DWIDTH 8 0
BBX 8 18 0 -3
BITMAP
00
00
00
00
38
40
40
5C
62
42
42
42
42
62
5C
00
00
00
ENDCHAR

STARTCHAR LATIN
ENCODING 596
SWIDTH 500 0
DWIDTH 8 0
BBX 8 18 0 -3
BITMAP
00
00
00
00
00
00
00
3C
42
02
02
02
02
42
3C
00
00
00
ENDCHAR

STARTCHAR LATIN
ENCODING 597
SWIDTH 500 0
DWIDTH 8 0
BBX 8 18 0 -3
BITMAP
00
00
00
00
00
00
00
3C
42
40
40
40
4C
52
3C
40
00
00
ENDCHAR

STARTCHAR LATIN
ENCODING 598
SWIDTH 500 0
DWIDTH 8 0
BBX 8 18 0 -3
BITMAP
00
00
00
00
04
04
04
34
4C
44
44
44
44
4C
34
03
00
00
ENDCHAR

STARTCHAR LATIN
ENCODING 599
SWIDTH 500 0
DWIDTH 8 0
BBX 8 18 0 -3
BITMAP
00
00
00
00
03
04
04
34
4C
44
44
44
44
4C
34
00
00
00
ENDCHAR

STARTCHAR LATIN
ENCODING 600
SWIDTH 500 0
DWIDTH 8 0
BBX 8 18 0 -3
BITMAP
00
00
00
00
00
00
00
3C
42
42
7E
02
02
42
3C
00
00
00
ENDCHAR

STARTCHAR LATIN
ENCODING 601
SWIDTH 500 0
DWIDTH 8 0
BBX 8 18 0 -3
BITMAP
00
00
00
00
00
00
00
3C
42
02
02
7E
42
42
3C
00
00
00
ENDCHAR

STARTCHAR LATIN
ENCODING 602
SWIDTH 500 0
DWIDTH 8 0
BBX 8 18 0 -3
BITMAP
00
00
00
00
00
00
00
39
46
04
04
7C
44
44
38
00
00
00
ENDCHAR

STARTCHAR LATIN
ENCODING 603
SWIDTH 500 0
DWIDTH 8 0
BBX 8 18 0 -3
BITMAP
00
00
00
00
00
00
00
3C
42
40
3C
40
40
42
3C
00
00
00
ENDCHAR

STARTCHAR LATIN
ENCODING 604
SWIDTH 500 0
DWIDTH 8 0
BBX 8 18 0 -3
BITMAP
00
00
00
00
00
00
00
3C
42
02
3C
02
02
42
3C
00
00
00
ENDCHAR

STARTCHAR LATIN
ENCODING 605
SWIDTH 500 0
DWIDTH 8 0
BBX 8 18 0 -3
BITMAP
00
00
00
00
00
00
00
39
46
04
38
04
04
44
38
00
00
00
ENDCHAR

STARTCHAR LATIN
ENCODING 606
SWIDTH 500 0
DWIDTH 8 0
BBX 8 18 0 -3
BITMAP
00
00
00
00
00
00
00
3C
42
42
5C
42
42
42
3C
00
00
00
ENDCHAR

STARTCHAR LATIN
ENCODING 607
SWIDTH 500 0
DWIDTH 8 0
BBX 8 18 0 -3
BITMAP
00
00
00
00
00
00
00
0C
04
04
04
1F
04
04
04
48
30
00
ENDCHAR

STARTCHAR LATIN
ENCODING 608
SWIDTH 500 0
DWIDTH 8 0
BBX 8 18 0 -3
BITMAP
00
00
00
00
00
00
03
3D
44
44
44
38
20
3C
42
42
3C
00
ENDCHAR

STARTCHAR LATIN
ENCODING 609
SWIDTH 500 0
DWIDTH 8 0
BBX 8 18 0 -3
BITMAP
00
00
00
00
00
00
00
3A
46
42
42
42
46
3A
02
42
3C
00
ENDCHAR

STARTCHAR LATIN
ENCODING 610
SWIDTH 500 0
DWIDTH 8 0
BBX 8 18 0 -3
BITMAP
00
00
00
00
00
00
00
3C
42
40
40
4E
42
42
3E
00
00
00
ENDCHAR

STARTCHAR LATIN
ENCODING 611
SWIDTH 500 0
DWIDTH 8 0
BBX 8 18 0 -3
BITMAP
00
00
00
00
00
00
00
42
42
42
24
24
18
18
24
24
18
00
ENDCHAR

STARTCHAR LATIN
ENCODING 612
SWIDTH 500 0
DWIDTH 8 0
BBX 8 18 0 -3
BITMAP
00
00
00
00
00
00
00
42
42
24
24
18
18
24
18
00
00
00
ENDCHAR

STARTCHAR LATIN
ENCODING 613
SWIDTH 500 0
DWIDTH 8 0
BBX 8 18 0 -3
BITMAP
00
00
00
00
00
00
42
42
42
42
42
42
46
3A
02
02
02
00
ENDCHAR

STARTCHAR LATIN
ENCODING 614
SWIDTH 500 0
DWIDTH 8 0
BBX 8 18 0 -3
BITMAP
00
00
00
00
38
40
40
5C
62
42
42
42
42
42
42
00
00
00
ENDCHAR

STARTCHAR LATIN
ENCODING 615
SWIDTH 500 0
DWIDTH 8 0
BBX 8 18 0 -3
BITMAP
00
00
00
00
38
40
40
5C
62
42
42
42
42
42
4C
00
00
00
ENDCHAR

STARTCHAR LATIN
ENCODING 616
SWIDTH 500 0
DWIDTH 8 0
BBX 8 18 0 -3
BITMAP
00
00
00
00
08
08
00
18
08
08
3E
08
08
08
3E
00
00
00
ENDCHAR

STARTCHAR LATIN
ENCODING 617
SWIDTH 500 0
DWIDTH 8 0
BBX 8 18 0 -3
BITMAP
00
00
00
00
00
00
00
10
10
10
10
10
10
10
0C
00
00
00
ENDCHAR

STARTCHAR LATIN
ENCODING 618
SWIDTH 500 0
DWIDTH 8 0
BBX 8 18 0 -3
BITMAP
00
00
00
00
00
00
00
3E
08
08
08
08
08
08
3E
00
00
00
ENDCHAR

STARTCHAR LATIN
ENCODING 619
SWIDTH 500 0
DWIDTH 8 0
BBX 8 18 0 -3
BITMAP
00
00
00
00
00
18
08
08
08
3A
4C
08
08
08
3E
00
00
00
ENDCHAR

STARTCHAR LATIN
ENCODING 620
SWIDTH 500 0
DWIDTH 8 0
BBX 8 18 0 -3
BITMAP
00
00
00
00
00
18
08
08
38
48
3E
08
08
08
3E
00
00
00
ENDCHAR

STARTCHAR LATIN
ENCODING 621
SWIDTH 500 0
DWIDTH 8 0
BBX 8 18 0 -3
BITMAP
00
00
00
00
00
18
08
08
08
08
08
08
08
08
08
06
00
00
ENDCHAR

STARTCHAR LATIN
ENCODING 622
SWIDTH 500 0
DWIDTH 8 0
BBX 8 18 0 -3
BITMAP
00
00
00
00
00
30
10
1F
11
12
14
16
11
11
7D
09
06
00
ENDCHAR

STARTCHAR LATIN
ENCODING 623
SWIDTH 500 0
DWIDTH 8 0
BBX 8 18 0 -3
BITMAP
00
00
00
00
00
00
00
49
49
49
49
49
49
49
37
00
00
00
ENDCHAR

STARTCHAR LATIN
ENCODING 624
SWIDTH 500 0
DWIDTH 8 0
BBX 8 18 0 -3
BITMAP
00
00
00
00
00
00
00
49
49
49
49
49
49
49
37
01
01
00
ENDCHAR

STARTCHAR LATIN
ENCODING 625
SWIDTH 500 0
DWIDTH 8 0
BBX 8 18 0 -3
BITMAP
00
00
00
00
00
00
00
76
49
49
49
49
49
49
41
06
00
00
ENDCHAR

STARTCHAR LATIN
ENCODING 626
SWIDTH 500 0
DWIDTH 8 0
BBX 8 18 0 -3
BITMAP
00
00
00
00
00
00
00
16
19
11
11
11
11
11
11
60
00
00
ENDCHAR

STARTCHAR LATIN
ENCODING 627
SWIDTH 500 0
DWIDTH 8 0
BBX 8 18 0 -3
BITMAP
00
00
00
00
00
00
00
58
64
44
44
44
44
44
44
03
00
00
ENDCHAR

STARTCHAR LATIN
ENCODING 628
SWIDTH 500 0
DWIDTH 8 0
BBX 8 18 0 -3
BITMAP
00
00
00
00
00
00
00
42
42
62
52
4A
46
42
42
00
00
00
ENDCHAR

STARTCHAR LATIN
ENCODING 629
SWIDTH 500 0
DWIDTH 8 0
BBX 8 18 0 -3
BITMAP
00
00
00
00
00
00
00
3C
42
42
7E
42
42
42
3C
00
00
00
ENDCHAR

STARTCHAR LATIN
ENCODING 630
SWIDTH 500 0
DWIDTH 8 0
BBX 8 18 0 -3
BITMAP
00
00
00
00
00
00
00
37
48
48
4E
48
48
48
37
00
00
00
ENDCHAR

STARTCHAR LATIN
ENCODING 631
SWIDTH 500 0
DWIDTH 8 0
BBX 8 18 0 -3
BITMAP
00
00
00
00
00
00
00
3E
41
41
49
49
49
49
36
00
00
00
ENDCHAR

STARTCHAR LATIN
ENCODING 632
SWIDTH 500 0
DWIDTH 8 0
BBX 8 18 0 -3
BITMAP
00
00
00
00
00
08
08
3E
49
49
49
49
49
49
3E
08
08
00
ENDCHAR

STARTCHAR LATIN
ENCODING 633
SWIDTH 500 0
DWIDTH 8 0
BBX 8 18 0 -3
BITMAP
00
00
00
00
00
00
00
02
02
02
02
02
42
46
3A
00
00
00
ENDCHAR

STARTCHAR LATIN
ENCODING 634
SWIDTH 500 0
DWIDTH 8 0
BBX 8 18 0 -3
BITMAP
00
00
00
00
00
02
02
02
02
02
02
02
42
46
3A
00
00
00
ENDCHAR

STARTCHAR LATIN
ENCODING 635
SWIDTH 500 0
DWIDTH 8 0
BBX 8 18 0 -3
BITMAP
00
00
00
00
00
00
00
04
04
04
04
04
44
4C
34
03
00
00
ENDCHAR

STARTCHAR LATIN
ENCODING 636
SWIDTH 500 0
DWIDTH 8 0
BBX 8 18 0 -3
BITMAP
00
00
00
00
00
00
00
5C
62
42
40
40
40
40
40
40
40
00
ENDCHAR

STARTCHAR LATIN
ENCODING 637
SWIDTH 500 0
DWIDTH 8 0
BBX 8 18 0 -3
BITMAP
00
00
00
00
00
00
00
5C
62
42
40
40
40
40
40
30
00
00
ENDCHAR

STARTCHAR LATIN
ENCODING 638
SWIDTH 500 0
DWIDTH 8 0
BBX 8 18 0 -3
BITMAP
00
00
00
00
00
00
00
3C
42
42
40
40
40
40
40
00
00
00
ENDCHAR

STARTCHAR LATIN
ENCODING 639
SWIDTH 500 0
DWIDTH 8 0
BBX 8 18 0 -3
BITMAP
00
00
00
00
00
00
00
3C
42
42
02
02
02
02
02
00
00
00
ENDCHAR

STARTCHAR LATIN
ENCODING 640
SWIDTH 500 0
DWIDTH 8 0
BBX 8 18 0 -3
BITMAP
00
00
00
00
00
00
00
7C
42
42
7C
44
42
42
42
00
00
00
ENDCHAR

STARTCHAR LATIN
ENCODING 641
SWIDTH 500 0
DWIDTH 8 0
BBX 8 18 0 -3
BITMAP
00
00
00
00
00
00
00
42
42
42
44
7C
42
42
7C
00
00
00
ENDCHAR

STARTCHAR LATIN
ENCODING 642
SWIDTH 500 0
DWIDTH 8 0
BBX 8 18 0 -3
BITMAP
00
00
00
00
00
00
00
3C
42
40
30
0C
02
42
7C
40
30
00
ENDCHAR

STARTCHAR LATIN
ENCODING 643
SWIDTH 500 0
DWIDTH 8 0
BBX 8 18 0 -3
BITMAP
00
00
00
00
0C
10
10
10
10
10
10
10
10
10
10
60
00
00
ENDCHAR

STARTCHAR LATIN
ENCODING 644
SWIDTH 500 0
DWIDTH 8 0
BBX 8 18 0 -3
BITMAP
00
00
00
00
0C
10
10
10
7C
10
10
7C
10
10
10
60
00
00
ENDCHAR

STARTCHAR LATIN
ENCODING 645
SWIDTH 500 0
DWIDTH 8 0
BBX 8 18 0 -3
BITMAP
00
00
00
00
00
00
00
60
10
10
10
10
10
10
10
0C
00
00
ENDCHAR

STARTCHAR LATIN
ENCODING 646
SWIDTH 500 0
DWIDTH 8 0
BBX 8 18 0 -3
BITMAP
00
00
00
00
06
08
08
08
08
08
08
08
08
38
4E
30
00
00
ENDCHAR

STARTCHAR LATIN
ENCODING 647
SWIDTH 500 0
DWIDTH 8 0
BBX 8 18 0 -3
BITMAP
00
00
00
00
00
60
10
10
10
10
10
10
7C
10
10
00
00
00
ENDCHAR

STARTCHAR LATIN
ENCODING 648
SWIDTH 500 0
DWIDTH 8 0
BBX 8 18 0 -3
BITMAP
00
00
00
00
00
10
10
7C
10
10
10
10
10
10
10
0E
00
00
ENDCHAR

STARTCHAR LATIN
ENCODING 649
SWIDTH 500 0
DWIDTH 8 0
BBX 8 18 0 -3
BITMAP
00
00
00
00
00
00
00
22
22
22
7F
22
22
26
1A
00
00
00
ENDCHAR

STARTCHAR LATIN
ENCODING 650
SWIDTH 500 0
DWIDTH 8 0
BBX 8 18 0 -3
BITMAP
00
00
00
00
00
00
00
42
24
42
42
42
42
24
18
00
00
00
ENDCHAR

STARTCHAR LATIN
ENCODING 651
SWIDTH 500 0
DWIDTH 8 0
BBX 8 18 0 -3
BITMAP
00
00
00
00
00
00
00
4C
42
42
42
42
44
48
30
00
00
00
ENDCHAR

STARTCHAR LATIN
ENCODING 652
SWIDTH 500 0
DWIDTH 8 0
BBX 8 18 0 -3
BITMAP
00
00
00
00
00
00
00
18
18
24
24
24
42
42
42
00
00
00
ENDCHAR

STARTCHAR LATIN
ENCODING 653
SWIDTH 500 0
DWIDTH 8 0
BBX 8 18 0 -3
BITMAP
00
00
00
00
00
00
00
36
49
49
49
49
49
49
41
00
00
00
ENDCHAR

STARTCHAR LATIN
ENCODING 654
SWIDTH 500 0
DWIDTH 8 0
BBX 8 18 0 -3
BITMAP
00
00
00
00
00
00
00
3C
40
40
58
64
42
42
42
42
42
00
ENDCHAR

STARTCHAR LATIN
ENCODING 655
SWIDTH 500 0
DWIDTH 8 0
BBX 8 18 0 -3
BITMAP
00
00
00
00
00
00
00
41
41
22
14
08
08
08
08
00
00
00
ENDCHAR

STARTCHAR LATIN
ENCODING 656
SWIDTH 500 0
DWIDTH 8 0
BBX 8 18 0 -3
BITMAP
00
00
00
00
00
00
00
7C
08
08
10
10
20
20
7C
04
03
00
ENDCHAR

STARTCHAR LATIN
ENCODING 657
SWIDTH 500 0
DWIDTH 8 0
BBX 8 18 0 -3
BITMAP
00
00
00
00
00
00
00
7E
02
04
08
10
26
49
7E
10
00
00
ENDCHAR

STARTCHAR LATIN
ENCODING 658
SWIDTH 500 0
DWIDTH 8 0
BBX 8 18 0 -3
BITMAP
00
00
00
00
00
00
00
3E
04
08
10
1C
02
02
02
42
3C
00
ENDCHAR

STARTCHAR LATIN
ENCODING 659
SWIDTH 500 0
DWIDTH 8 0
BBX 8 18 0 -3
BITMAP
00
00
00
00
00
00
00
3E
04
08
10
1C
02
02
32
4A
3C
00
ENDCHAR

STARTCHAR LATIN
ENCODING 660
SWIDTH 500 0
DWIDTH 8 0
BBX 8 18 0 -3
BITMAP
00
00
00
00
00
3C
42
42
02
04
08
08
08
08
08
00
00
00
ENDCHAR

STARTCHAR LATIN
ENCODING 661
SWIDTH 500 0
DWIDTH 8 0
BBX 8 18 0 -3
BITMAP
00
00
00
00
00
3C
42
42
40
20
10
10
10
10
10
00
00
00
ENDCHAR

STARTCHAR LATIN
ENCODING 662
SWIDTH 500 0
DWIDTH 8 0
BBX 8 18 0 -3
BITMAP
00
00
00
00
00
08
08
08
08
08
04
02
42
42
3C
00
00
00
ENDCHAR

STARTCHAR LATIN
ENCODING 663
SWIDTH 500 0
DWIDTH 8 0
BBX 8 18 0 -3
BITMAP
00
00
00
00
00
00
00
3C
42
40
40
40
40
40
40
42
3C
00
ENDCHAR

STARTCHAR LATIN
ENCODING 664
SWIDTH 500 0
DWIDTH 8 0
BBX 8 18 0 -3
BITMAP
00
00
00
00
00
00
00
3C
42
42
5A
5A
42
42
3C
00
00
00
ENDCHAR

STARTCHAR LATIN
ENCODING 665
SWIDTH 500 0
DWIDTH 8 0
BBX 8 18 0 -3
BITMAP
00
00
00
00
00
00
00
7C
42
42
7C
42
42
42
7C
00
00
00
ENDCHAR

STARTCHAR LATIN
ENCODING 666
SWIDTH 500 0
DWIDTH 8 0
BBX 8 18 0 -3
BITMAP
00
00
00
00
00
00
00
3C
42
42
3A
42
42
42
3C
00
00
00
ENDCHAR

STARTCHAR LATIN
ENCODING 667
SWIDTH 500 0
DWIDTH 8 0
BBX 8 18 0 -3
BITMAP
00
00
00
00
00
00
00
3B
44
40
40
4C
44
44
3C
00
00
00
ENDCHAR

STARTCHAR LATIN
ENCODING 668
SWIDTH 500 0
DWIDTH 8 0
BBX 8 18 0 -3
BITMAP
00
00
00
00
00
00
00
22
22
22
3E
22
22
22
22
00
00
00
ENDCHAR

STARTCHAR LATIN
ENCODING 669
SWIDTH 500 0
DWIDTH 8 0
BBX 8 18 0 -3
BITMAP
00
00
00
00
04
04
00
0C
04
04
04
04
04
04
3E
48
30
00
ENDCHAR

STARTCHAR LATIN
ENCODING 670
SWIDTH 500 0
DWIDTH 8 0
BBX 8 18 0 -3
BITMAP
00
00
00
00
00
00
00
42
22
12
0A
06
0A
12
22
02
02
00
ENDCHAR

STARTCHAR LATIN
ENCODING 671
SWIDTH 500 0
DWIDTH 8 0
BBX 8 18 0 -3
BITMAP
00
00
00
00
00
00
00
40
40
40
40
40
40
40
7E
00
00
00
ENDCHAR

STARTCHAR LATIN
ENCODING 672
SWIDTH 500 0
DWIDTH 8 0
BBX 8 18 0 -3
BITMAP
00
00
00
00
00
00
03
34
4C
44
44
44
44
4C
34
04
04
00
ENDCHAR

STARTCHAR LATIN
ENCODING 673
SWIDTH 500 0
DWIDTH 8 0
BBX 8 18 0 -3
BITMAP
00
00
00
00
00
3C
42
42
02
04
08
08
3E
08
08
00
00
00
ENDCHAR

STARTCHAR LATIN
ENCODING 674
SWIDTH 500 0
DWIDTH 8 0
BBX 8 18 0 -3
BITMAP
00
00
00
00
00
3C
42
42
40
20
10
10
7C
10
10
00
00
00
ENDCHAR

STARTCHAR LATIN
ENCODING 675
SWIDTH 500 0
DWIDTH 8 0
BBX 8 18 0 -3
BITMAP
00
00
00
00
10
10
10
3F
51
52
52
54
54
58
3F
00
00
00
ENDCHAR

STARTCHAR LATIN
ENCODING 676
SWIDTH 500 0
DWIDTH 8 0
BBX 8 18 0 -3
BITMAP
00
00
00
00
10
10
10
3F
51
52
54
56
51
51
31
09
06
00
ENDCHAR

STARTCHAR LATIN
ENCODING 677
SWIDTH 500 0
DWIDTH 8 0
BBX 8 18 0 -3
BITMAP
00
00
00
00
10
10
10
3F
51
52
54
58
5A
55
3E
04
00
00
ENDCHAR

STARTCHAR LATIN
ENCODING 678
SWIDTH 500 0
DWIDTH 8 0
BBX 8 18 0 -3
BITMAP
00
00
00
00
00
20
20
76
28
28
24
22
21
21
1E
00
00
00
ENDCHAR

STARTCHAR LATIN
ENCODING 679
SWIDTH 500 0
DWIDTH 8 0
BBX 8 18 0 -3
BITMAP
00
00
00
00
03
24
24
7C
24
24
24
24
24
24
1C
04
18
00
ENDCHAR

STARTCHAR LATIN
ENCODING 680
SWIDTH 500 0
DWIDTH 8 0
BBX 8 18 0 -3
BITMAP
00
00
00
00
00
20
20
76
29
28
28
28
2A
2D
1E
04
00
00
ENDCHAR

STARTCHAR MODIFIER
ENCODING 700
SWIDTH 500 0
DWIDTH 8 0
BBX 8 18 0 -3
BITMAP
00
00
00
18
08
08
10
00
00
00
00
00
00
00
00
00
00
00
ENDCHAR

STARTCHAR MODIFIER
ENCODING 701
SWIDTH 500 0
DWIDTH 8 0
BBX 8 18 0 -3
BITMAP
00
00
00
18
10
10
08
00
00
00
00
00
00
00
00
00
00
00
ENDCHAR

STARTCHAR MODIFIER
ENCODING 710
SWIDTH 500 0
DWIDTH 8 0
BBX 8 18 0 -3
BITMAP
00
18
24
00
00
00
00
00
00
00
00
00
00
00
00
00
00
00
ENDCHAR

STARTCHAR CARON
ENCODING 711
SWIDTH 500 0
DWIDTH 8 0
BBX 8 18 0 -3
BITMAP
00
24
18
00
00
00
00
00
00
00
00
00
00
00
00
00
00
00
ENDCHAR

STARTCHAR MODIFIER
ENCODING 713
SWIDTH 500 0
DWIDTH 8 0
BBX 8 18 0 -3
BITMAP
00
00
3C
00
00
00
00
00
00
00
00
00
00
00
00
00
00
00
ENDCHAR

STARTCHAR BREVE
ENCODING 728
SWIDTH 500 0
DWIDTH 8 0
BBX 8 18 0 -3
BITMAP
00
42
42
3C
00
00
00
00
00
00
00
00
00
00
00
00
00
00
ENDCHAR

STARTCHAR DOT
ENCODING 729
SWIDTH 500 0
DWIDTH 8 0
BBX 8 18 0 -3
BITMAP
00
10
10
00
00
00
00
00
00
00
00
00
00
00
00
00
00
00
ENDCHAR

STARTCHAR RING
ENCODING 730
SWIDTH 500 0
DWIDTH 8 0
BBX 8 18 0 -3
BITMAP
00
18
24
18
00
00
00
00
00
00
00
00
00
00
00
00
00
00
ENDCHAR

STARTCHAR OGONEK
ENCODING 731
SWIDTH 500 0
DWIDTH 8 0
BBX 8 18 0 -3
BITMAP
00
00
00
00
00
00
00
00
00
00
00
00
00
00
00
08
06
00
ENDCHAR

STARTCHAR SMALL
ENCODING 732
SWIDTH 500 0
DWIDTH 8 0
BBX 8 18 0 -3
BITMAP
00
32
4C
00
00
00
00
00
00
00
00
00
00
00
00
00
00
00
ENDCHAR

STARTCHAR DOUBLE
ENCODING 733
SWIDTH 500 0
DWIDTH 8 0
BBX 8 18 0 -3
BITMAP
00
33
44
00
00
00
00
00
00
00
00
00
00
00
00
00
00
00
ENDCHAR

STARTCHAR COMBINING
ENCODING 768
SWIDTH 500 0
DWIDTH 8 0
BBX 8 18 0 -3
BITMAP
00
30
0C
00
00
00
00
00
00
00
00
00
00
00
00
00
00
00
ENDCHAR

STARTCHAR COMBINING
ENCODING 769
SWIDTH 500 0
DWIDTH 8 0
BBX 8 18 0 -3
BITMAP
00
0C
30
00
00
00
00
00
00
00
00
00
00
00
00
00
00
00
ENDCHAR

STARTCHAR COMBINING
ENCODING 770
SWIDTH 500 0
DWIDTH 8 0
BBX 8 18 0 -3
BITMAP
00
18
24
42
00
00
00
00
00
00
00
00
00
00
00
00
00
00
ENDCHAR

STARTCHAR COMBINING
ENCODING 771
SWIDTH 500 0
DWIDTH 8 0
BBX 8 18 0 -3
BITMAP
00
32
4C
00
00
00
00
00
00
00
00
00
00
00
00
00
00
00
ENDCHAR

STARTCHAR COMBINING
ENCODING 772
SWIDTH 500 0
DWIDTH 8 0
BBX 8 18 0 -3
BITMAP
00
00
3C
00
00
00
00
00
00
00
00
00
00
00
00
00
00
00
ENDCHAR

STARTCHAR COMBINING
ENCODING 773
SWIDTH 500 0
DWIDTH 8 0
BBX 8 18 0 -3
BITMAP
00
00
FF
00
00
00
00
00
00
00
00
00
00
00
00
00
00
00
ENDCHAR

STARTCHAR COMBINING
ENCODING 774
SWIDTH 500 0
DWIDTH 8 0
BBX 8 18 0 -3
BITMAP
00
42
42
3C
00
00
00
00
00
00
00
00
00
00
00
00
00
00
ENDCHAR

STARTCHAR COMBINING
ENCODING 775
SWIDTH 500 0
DWIDTH 8 0
BBX 8 18 0 -3
BITMAP
00
10
10
00
00
00
00
00
00
00
00
00
00
00
00
00
00
00
ENDCHAR

STARTCHAR COMBINING
ENCODING 776
SWIDTH 500 0
DWIDTH 8 0
BBX 8 18 0 -3
BITMAP
00
24
24
00
00
00
00
00
00
00
00
00
00
00
00
00
00
00
ENDCHAR

STARTCHAR COMBINING
ENCODING 777
SWIDTH 500 0
DWIDTH 8 0
BBX 8 18 0 -3
BITMAP
00
18
08
00
00
00
00
00
00
00
00
00
00
00
00
00
00
00
ENDCHAR

STARTCHAR COMBINING
ENCODING 778
SWIDTH 500 0
DWIDTH 8 0
BBX 8 18 0 -3
BITMAP
00
18
24
18
00
00
00
00
00
00
00
00
00
00
00
00
00
00
ENDCHAR

STARTCHAR COMBINING
ENCODING 779
SWIDTH 500 0
DWIDTH 8 0
BBX 8 18 0 -3
BITMAP
00
33
44
00
00
00
00
00
00
00
00
00
00
00
00
00
00
00
ENDCHAR

STARTCHAR COMBINING
ENCODING 780
SWIDTH 500 0
DWIDTH 8 0
BBX 8 18 0 -3
BITMAP
00
22
14
08
00
00
00
00
00
00
00
00
00
00
00
00
00
00
ENDCHAR

STARTCHAR COMBINING
ENCODING 781
SWIDTH 500 0
DWIDTH 8 0
BBX 8 18 0 -3
BITMAP
00
08
08
08
08
00
00
00
00
00
00
00
00
00
00
00
00
00
ENDCHAR

STARTCHAR COMBINING
ENCODING 782
SWIDTH 500 0
DWIDTH 8 0
BBX 8 18 0 -3
BITMAP
00
14
14
14
14
00
00
00
00
00
00
00
00
00
00
00
00
00
ENDCHAR

STARTCHAR COMBINING
ENCODING 783
SWIDTH 500 0
DWIDTH 8 0
BBX 8 18 0 -3
BITMAP
00
CC
22
00
00
00
00
00
00
00
00
00
00
00
00
00
00
00
ENDCHAR

STARTCHAR COMBINING
ENCODING 784
SWIDTH 500 0
DWIDTH 8 0
BBX 8 18 0 -3
BITMAP
00
18
5A
42
3C
00
00
00
00
00
00
00
00
00
00
00
00
00
ENDCHAR

STARTCHAR COMBINING
ENCODING 785
SWIDTH 500 0
DWIDTH 8 0
BBX 8 18 0 -3
BITMAP
00
3C
42
42
00
00
00
00
00
00
00
00
00
00
00
00
00
00
ENDCHAR

STARTCHAR COMBINING
ENCODING 786
SWIDTH 500 0
DWIDTH 8 0
BBX 8 18 0 -3
BITMAP
00
00
00
10
20
30
00
00
00
00
00
00
00
00
00
00
00
00
ENDCHAR

STARTCHAR COMBINING
ENCODING 787
SWIDTH 500 0
DWIDTH 8 0
BBX 8 18 0 -3
BITMAP
00
00
00
30
10
20
00
00
00
00
00
00
00
00
00
00
00
00
ENDCHAR

STARTCHAR COMBINING
ENCODING 788
SWIDTH 500 0
DWIDTH 8 0
BBX 8 18 0 -3
BITMAP
00
00
00
30
20
10
00
00
00
00
00
00
00
00
00
00
00
00
ENDCHAR

STARTCHAR COMBINING
ENCODING 789
SWIDTH 500 0
DWIDTH 8 0
BBX 8 18 0 -3
BITMAP
00
00
00
06
02
04
00
00
00
00
00
00
00
00
00
00
00
00
ENDCHAR

STARTCHAR COMBINING
ENCODING 790
SWIDTH 500 0
DWIDTH 8 0
BBX 8 18 0 -3
BITMAP
00
00
00
00
00
00
00
00
00
00
00
00
00
00
00
30
0C
00
ENDCHAR

STARTCHAR COMBINING
ENCODING 791
SWIDTH 500 0
DWIDTH 8 0
BBX 8 18 0 -3
BITMAP
00
00
00
00
00
00
00
00
00
00
00
00
00
00
00
0C
30
00
ENDCHAR

STARTCHAR COMBINING
ENCODING 792
SWIDTH 500 0
DWIDTH 8 0
BBX 8 18 0 -3
BITMAP
00
00
00
00
00
00
00
00
00
00
00
00
04
04
3C
04
04
00
ENDCHAR

STARTCHAR COMBINING
ENCODING 793
SWIDTH 500 0
DWIDTH 8 0
BBX 8 18 0 -3
BITMAP
00
00
00
00
00
00
00
00
00
00
00
00
20
20
3C
20
20
00
ENDCHAR

STARTCHAR COMBINING
ENCODING 794
SWIDTH 500 0
DWIDTH 8 0
BBX 8 18 0 -3
BITMAP
00
00
3C
04
04
00
00
00
00
00
00
00
00
00
00
00
00
00
ENDCHAR

STARTCHAR COMBINING
ENCODING 795
SWIDTH 500 0
DWIDTH 8 0
BBX 8 18 0 -3
BITMAP
00
00
00
01
01
06
00
00
00
00
00
00
00
00
00
00
00
00
ENDCHAR

STARTCHAR COMBINING
ENCODING 796
SWIDTH 500 0
DWIDTH 8 0
BBX 8 18 0 -3
BITMAP
00
00
00
00
00
00
00
00
00
00
00
00
00
00
18
20
18
00
ENDCHAR

STARTCHAR COMBINING
ENCODING 797
SWIDTH 500 0
DWIDTH 8 0
BBX 8 18 0 -3
BITMAP
00
00
00
00
00
00
00
00
00
00
00
00
00
08
08
1C
00
00
ENDCHAR

STARTCHAR COMBINING
ENCODING 798
SWIDTH 500 0
DWIDTH 8 0
BBX 8 18 0 -3
BITMAP
00
00
00
00
00
00
00
00
00
00
00
00
00
00
1C
08
08
00
ENDCHAR

STARTCHAR COMBINING
ENCODING 799
SWIDTH 500 0
DWIDTH 8 0
BBX 8 18 0 -3
BITMAP
00
00
00
00
00
00
00
00
00
00
00
00
08
08
3E
08
08
00
ENDCHAR

STARTCHAR COMBINING
ENCODING 800
SWIDTH 500 0
DWIDTH 8 0
BBX 8 18 0 -3
BITMAP
00
00
00
00
00
00
00
00
00
00
00
00
00
00
00
3C
00
00
ENDCHAR

STARTCHAR COMBINING
ENCODING 801
SWIDTH 500 0
DWIDTH 8 0
BBX 8 18 0 -3
BITMAP
00
00
00
00
00
00
00
00
00
00
00
00
00
02
02
0A
04
00
ENDCHAR

STARTCHAR COMBINING
ENCODING 802
SWIDTH 500 0
DWIDTH 8 0
BBX 8 18 0 -3
BITMAP
00
00
00
00
00
00
00
00
00
00
00
00
00
04
04
05
02
00
ENDCHAR

STARTCHAR COMBINING
ENCODING 803
SWIDTH 500 0
DWIDTH 8 0
BBX 8 18 0 -3
BITMAP
00
00
00
00
00
00
00
00
00
00
00
00
00
00
00
18
18
00
ENDCHAR

STARTCHAR COMBINING
ENCODING 804
SWIDTH 500 0
DWIDTH 8 0
BBX 8 18 0 -3
BITMAP
00
00
00
00
00
00
00
00
00
00
00
00
00
00
00
24
24
00
ENDCHAR

STARTCHAR COMBINING
ENCODING 805
SWIDTH 500 0
DWIDTH 8 0
BBX 8 18 0 -3
BITMAP
00
00
00
00
00
00
00
00
00
00
00
00
00
00
18
24
18
00
ENDCHAR

STARTCHAR COMBINING
ENCODING 806
SWIDTH 500 0
DWIDTH 8 0
BBX 8 18 0 -3
BITMAP
00
00
00
00
00
00
00
00
00
00
00
00
00
18
08
10
00
00
ENDCHAR

STARTCHAR COMBINING
ENCODING 807
SWIDTH 500 0
DWIDTH 8 0
BBX 8 18 0 -3
BITMAP
00
00
00
00
00
00
00
00
00
00
00
00
00
10
10
48
30
00
ENDCHAR

STARTCHAR COMBINING
ENCODING 808
SWIDTH 500 0
DWIDTH 8 0
BBX 8 18 0 -3
BITMAP
00
00
00
00
00
00
00
00
00
00
00
00
00
00
04
09
06
00
ENDCHAR

STARTCHAR COMBINING
ENCODING 809
SWIDTH 500 0
DWIDTH 8 0
BBX 8 18 0 -3
BITMAP
00
00
00
00
00
00
00
00
00
00
00
00
00
00
10
10
10
00
ENDCHAR

STARTCHAR COMBINING
ENCODING 810
SWIDTH 500 0
DWIDTH 8 0
BBX 8 18 0 -3
BITMAP
00
00
00
00
00
00
00
00
00
00
00
00
00
00
7E
42
42
00
ENDCHAR

STARTCHAR COMBINING
ENCODING 811
SWIDTH 500 0
DWIDTH 8 0
BBX 8 18 0 -3
BITMAP
00
00
00
00
00
00
00
00
00
00
00
00
00
00
54
54
28
00
ENDCHAR

STARTCHAR COMBINING
ENCODING 812
SWIDTH 500 0
DWIDTH 8 0
BBX 8 18 0 -3
BITMAP
00
00
00
00
00
00
00
00
00
00
00
00
00
00
22
14
08
00
ENDCHAR

STARTCHAR COMBINING
ENCODING 813
SWIDTH 500 0
DWIDTH 8 0
BBX 8 18 0 -3
BITMAP
00
00
00
00
00
00
00
00
00
00
00
00
00
00
18
24
42
00
ENDCHAR

STARTCHAR COMBINING
ENCODING 814
SWIDTH 500 0
DWIDTH 8 0
BBX 8 18 0 -3
BITMAP
00
00
00
00
00
00
00
00
00
00
00
00
00
00
42
42
3C
00
ENDCHAR

STARTCHAR COMBINING
ENCODING 815
SWIDTH 500 0
DWIDTH 8 0
BBX 8 18 0 -3
BITMAP
00
00
00
00
00
00
00
00
00
00
00
00
00
00
3C
42
42
00
ENDCHAR

STARTCHAR COMBINING
ENCODING 816
SWIDTH 500 0
DWIDTH 8 0
BBX 8 18 0 -3
BITMAP
00
00
00
00
00
00
00
00
00
00
00
00
00
00
00
32
4C
00
ENDCHAR

STARTCHAR COMBINING
ENCODING 817
SWIDTH 500 0
DWIDTH 8 0
BBX 8 18 0 -3
BITMAP
00
00
00
00
00
00
00
00
00
00
00
00
00
00
00
7E
00
00
ENDCHAR

STARTCHAR COMBINING
ENCODING 818
SWIDTH 500 0
DWIDTH 8 0
BBX 8 18 0 -3
BITMAP
00
00
00
00
00
00
00
00
00
00
00
00
00
00
00
FF
00
00
ENDCHAR

STARTCHAR COMBINING
ENCODING 819
SWIDTH 500 0
DWIDTH 8 0
BBX 8 18 0 -3
BITMAP
00
00
00
00
00
00
00
00
00
00
00
00
00
00
FF
00
FF
00
ENDCHAR

STARTCHAR COMBINING
ENCODING 820
SWIDTH 500 0
DWIDTH 8 0
BBX 8 18 0 -3
BITMAP
00
00
00
00
00
00
00
32
5A
4C
00
00
00
00
00
00
00
00
ENDCHAR

STARTCHAR COMBINING
ENCODING 821
SWIDTH 500 0
DWIDTH 8 0
BBX 8 18 0 -3
BITMAP
00
00
00
00
00
00
00
00
3C
00
00
00
00
00
00
00
00
00
ENDCHAR

STARTCHAR COMBINING
ENCODING 822
SWIDTH 500 0
DWIDTH 8 0
BBX 8 18 0 -3
BITMAP
00
00
00
00
00
00
00
00
FF
00
00
00
00
00
00
00
00
00
ENDCHAR

STARTCHAR COMBINING
ENCODING 823
SWIDTH 500 0
DWIDTH 8 0
BBX 8 18 0 -3
BITMAP
00
00
00
00
00
00
00
02
04
08
10
20
40
00
00
00
00
00
ENDCHAR

STARTCHAR COMBINING
ENCODING 824
SWIDTH 500 0
DWIDTH 8 0
BBX 8 18 0 -3
BITMAP
00
00
00
00
02
04
04
08
08
10
10
20
20
40
00
00
00
00
ENDCHAR

STARTCHAR COMBINING
ENCODING 825
SWIDTH 500 0
DWIDTH 8 0
BBX 8 18 0 -3
BITMAP
00
00
00
00
00
00
00
00
00
00
00
00
00
00
18
04
18
00
ENDCHAR

STARTCHAR COMBINING
ENCODING 826
SWIDTH 500 0
DWIDTH 8 0
BBX 8 18 0 -3
BITMAP
00
00
00
00
00
00
00
00
00
00
00
00
00
00
42
42
7E
00
ENDCHAR

STARTCHAR COMBINING
ENCODING 827
SWIDTH 500 0
DWIDTH 8 0
BBX 8 18 0 -3
BITMAP
00
00
00
00
00
00
00
00
00
00
00
00
00
00
38
28
38
00
ENDCHAR

STARTCHAR COMBINING
ENCODING 828
SWIDTH 500 0
DWIDTH 8 0
BBX 8 18 0 -3
BITMAP
00
00
00
00
00
00
00
00
00
00
00
00
00
00
6C
92
00
00
ENDCHAR

STARTCHAR COMBINING
ENCODING 829
SWIDTH 500 0
DWIDTH 8 0
BBX 8 18 0 -3
BITMAP
00
00
66
18
66
00
00
00
00
00
00
00
00
00
00
00
00
00
ENDCHAR

STARTCHAR COMBINING
ENCODING 830
SWIDTH 500 0
DWIDTH 8 0
BBX 8 18 0 -3
BITMAP
00
0C
18
08
0C
18
00
00
00
00
00
00
00
00
00
00
00
00
ENDCHAR

STARTCHAR COMBINING
ENCODING 831
SWIDTH 500 0
DWIDTH 8 0
BBX 8 18 0 -3
BITMAP
00
7E
00
7E
00
00
00
00
00
00
00
00
00
00
00
00
00
00
ENDCHAR

STARTCHAR COMBINING
ENCODING 832
SWIDTH 500 0
DWIDTH 8 0
BBX 8 18 0 -3
BITMAP
00
30
0C
00
00
00
00
00
00
00
00
00
00
00
00
00
00
00
ENDCHAR

STARTCHAR COMBINING
ENCODING 833
SWIDTH 500 0
DWIDTH 8 0
BBX 8 18 0 -3
BITMAP
00
0C
30
00
00
00
00
00
00
00
00
00
00
00
00
00
00
00
ENDCHAR

STARTCHAR COMBINING
ENCODING 834
SWIDTH 500 0
DWIDTH 8 0
BBX 8 18 0 -3
BITMAP
00
64
98
00
00
00
00
00
00
00
00
00
00
00
00
00
00
00
ENDCHAR

STARTCHAR COMBINING
ENCODING 835
SWIDTH 500 0
DWIDTH 8 0
BBX 8 18 0 -3
BITMAP
00
00
00
30
10
20
00
00
00
00
00
00
00
00
00
00
00
00
ENDCHAR

STARTCHAR COMBINING
ENCODING 836
SWIDTH 500 0
DWIDTH 8 0
BBX 8 18 0 -3
BITMAP
00
10
54
10
00
00
00
00
00
00
00
00
00
00
00
00
00
00
ENDCHAR

STARTCHAR COMBINING
ENCODING 837
SWIDTH 500 0
DWIDTH 8 0
BBX 8 18 0 -3
BITMAP
00
00
00
00
00
00
00
00
00
00
00
00
00
00
00
10
18
00
ENDCHAR

STARTCHAR COMBINING
ENCODING 838
SWIDTH 500 0
DWIDTH 8 0
BBX 8 18 0 -3
BITMAP
00
3C
24
24
00
00
00
00
00
00
00
00
00
00
00
00
00
00
ENDCHAR

STARTCHAR COMBINING
ENCODING 839
SWIDTH 500 0
DWIDTH 8 0
BBX 8 18 0 -3
BITMAP
00
00
00
00
00
00
00
00
00
00
00
00
00
00
3C
00
3C
00
ENDCHAR

STARTCHAR COMBINING
ENCODING 840
SWIDTH 500 0
DWIDTH 8 0
BBX 8 18 0 -3
BITMAP
00
00
00
00
00
00
00
00
00
00
00
00
00
00
14
14
14
00
ENDCHAR

STARTCHAR COMBINING
ENCODING 841
SWIDTH 500 0
DWIDTH 8 0
BBX 8 18 0 -3
BITMAP
00
00
00
00
00
00
00
00
00
00
00
00
00
00
3C
04
04
00
ENDCHAR

STARTCHAR COMBINING
ENCODING 842
SWIDTH 500 0
DWIDTH 8 0
BBX 8 18 0 -3
BITMAP
00
04
79
9E
20
00
00
00
00
00
00
00
00
00
00
00
00
00
ENDCHAR

STARTCHAR COMBINING
ENCODING 843
SWIDTH 500 0
DWIDTH 8 0
BBX 8 18 0 -3
BITMAP
00
04
71
8E
30
00
00
00
00
00
00
00
00
00
00
00
00
00
ENDCHAR

STARTCHAR COMBINING
ENCODING 844
SWIDTH 500 0
DWIDTH 8 0
BBX 8 18 0 -3
BITMAP
00
32
4C
32
4C
00
00
00
00
00
00
00
00
00
00
00
00
00
ENDCHAR

STARTCHAR COMBINING
ENCODING 845
SWIDTH 500 0
DWIDTH 8 0
BBX 8 18 0 -3
BITMAP
00
00
00
00
00
00
00
00
00
00
00
00
24
42
FF
42
24
00
ENDCHAR

STARTCHAR COMBINING
ENCODING 846
SWIDTH 500 0
DWIDTH 8 0
BBX 8 18 0 -3
BITMAP
00
00
00
00
00
00
00
00
00
00
00
00
00
10
38
54
10
00
ENDCHAR

STARTCHAR GREEK
ENCODING 884
SWIDTH 500 0
DWIDTH 8 0
BBX 8 18 0 -3
BITMAP
00
00
00
00
00
0C
18
10
20
00
00
00
00
00
00
00
00
00
ENDCHAR

STARTCHAR GREEK
ENCODING 885
SWIDTH 500 0
DWIDTH 8 0
BBX 8 18 0 -3
BITMAP
00
00
00
00
00
00
00
00
00
00
00
00
00
0C
18
10
20
00
ENDCHAR

STARTCHAR GREEK
ENCODING 890
SWIDTH 500 0
DWIDTH 8 0
BBX 8 18 0 -3
BITMAP
00
00
00
00
00
00
00
00
00
00
00
00
00
00
00
10
18
00
ENDCHAR

STARTCHAR GREEK
ENCODING 894
SWIDTH 500 0
DWIDTH 8 0
BBX 8 18 0 -3
BITMAP
00
00
00
00
00
00
00
00
00
18
18
00
00
18
08
08
10
00
ENDCHAR

STARTCHAR GREEK
ENCODING 900
SWIDTH 500 0
DWIDTH 8 0
BBX 8 18 0 -3
BITMAP
00
10
10
10
00
00
00
00
00
00
00
00
00
00
00
00
00
00
ENDCHAR

STARTCHAR GREEK
ENCODING 901
SWIDTH 500 0
DWIDTH 8 0
BBX 8 18 0 -3
BITMAP
00
10
10
10
44
44
00
00
00
00
00
00
00
00
00
00
00
00
ENDCHAR

STARTCHAR GREEK
ENCODING 902
SWIDTH 500 0
DWIDTH 8 0
BBX 8 18 0 -3
BITMAP
00
40
40
40
00
18
24
24
42
42
7E
42
42
42
42
00
00
00
ENDCHAR

STARTCHAR GREEK
ENCODING 903
SWIDTH 500 0
DWIDTH 8 0
BBX 8 18 0 -3
BITMAP
00
00
00
00
00
00
00
00
00
08
1C
08
00
00
00
00
00
00
ENDCHAR

STARTCHAR GREEK
ENCODING 904
SWIDTH 500 0
DWIDTH 8 0
BBX 8 18 0 -3
BITMAP
00
40
40
40
00
7E
40
40
40
7C
40
40
40
40
7E
00
00
00
ENDCHAR

STARTCHAR GREEK
ENCODING 905
SWIDTH 500 0
DWIDTH 8 0
BBX 8 18 0 -3
BITMAP
00
40
40
40
00
42
42
42
42
7E
42
42
42
42
42
00
00
00
ENDCHAR

STARTCHAR GREEK
ENCODING 906
SWIDTH 500 0
DWIDTH 8 0
BBX 8 18 0 -3
BITMAP
00
40
40
40
00
3E
08
08
08
08
08
08
08
08
3E
00
00
00
ENDCHAR

STARTCHAR GREEK
ENCODING 908
SWIDTH 500 0
DWIDTH 8 0
BBX 8 18 0 -3
BITMAP
00
40
40
40
00
3C
42
42
42
42
42
42
42
42
3C
00
00
00
ENDCHAR

STARTCHAR GREEK
ENCODING 910
SWIDTH 500 0
DWIDTH 8 0
BBX 8 18 0 -3
BITMAP
00
40
40
40
00
41
41
22
22
14
08
08
08
08
08
00
00
00
ENDCHAR

STARTCHAR GREEK
ENCODING 911
SWIDTH 500 0
DWIDTH 8 0
BBX 8 18 0 -3
BITMAP
00
40
40
40
00
3E
41
41
41
41
41
41
22
14
14
77
00
00
ENDCHAR

STARTCHAR GREEK
ENCODING 912
SWIDTH 500 0
DWIDTH 8 0
BBX 8 18 0 -3
BITMAP
00
10
10
10
44
44
00
10
10
10
10
10
10
10
0C
00
00
00
ENDCHAR

STARTCHAR GREEK
ENCODING 913
SWIDTH 500 0
DWIDTH 8 0
BBX 8 18 0 -3
BITMAP
00
00
00
00
00
18
24
24
42
42
7E
42
42
42
42
00
00
00
ENDCHAR

STARTCHAR GREEK
ENCODING 914
SWIDTH 500 0
DWIDTH 8 0
BBX 8 18 0 -3
BITMAP
00
00
00
00
00
7C
42
42
42
7C
42
42
42
42
7C
00
00
00
ENDCHAR

STARTCHAR GREEK
ENCODING 915
SWIDTH 500 0
DWIDTH 8 0
BBX 8 18 0 -3
BITMAP
00
00
00
00
00
7E
40
40
40
40
40
40
40
40
40
00
00
00
ENDCHAR

STARTCHAR GREEK
ENCODING 916
SWIDTH 500 0
DWIDTH 8 0
BBX 8 18 0 -3
BITMAP
00
00
00
00
00
08
08
14
14
22
22
22
41
41
7F
00
00
00
ENDCHAR

STARTCHAR GREEK
ENCODING 917
SWIDTH 500 0
DWIDTH 8 0
BBX 8 18 0 -3
BITMAP
00
00
00
00
00
7E
40
40
40
7C
40
40
40
40
7E
00
00
00
ENDCHAR

STARTCHAR GREEK
ENCODING 918
SWIDTH 500 0
DWIDTH 8 0
BBX 8 18 0 -3
BITMAP
00
00
00
00
00
7E
02
02
04
08
10
20
40
40
7E
00
00
00
ENDCHAR

STARTCHAR GREEK
ENCODING 919
SWIDTH 500 0
DWIDTH 8 0
BBX 8 18 0 -3
BITMAP
00
00
00
00
00
42
42
42
42
7E
42
42
42
42
42
00
00
00
ENDCHAR

STARTCHAR GREEK
ENCODING 920
SWIDTH 500 0
DWIDTH 8 0
BBX 8 18 0 -3
BITMAP
00
00
00
00
00
3C
42
42
42
7E
42
42
42
42
3C
00
00
00
ENDCHAR

STARTCHAR GREEK
ENCODING 921
SWIDTH 500 0
DWIDTH 8 0
BBX 8 18 0 -3
BITMAP
00
00
00
00
00
3E
08
08
08
08
08
08
08
08
3E
00
00
00
ENDCHAR

STARTCHAR GREEK
ENCODING 922
SWIDTH 500 0
DWIDTH 8 0
BBX 8 18 0 -3
BITMAP
00
00
00
00
00
42
44
48
50
60
60
50
48
44
42
00
00
00
ENDCHAR

STARTCHAR GREEK
ENCODING 923
SWIDTH 500 0
DWIDTH 8 0
BBX 8 18 0 -3
BITMAP
00
00
00
00
00
08
08
14
14
22
22
22
41
41
41
00
00
00
ENDCHAR

STARTCHAR GREEK
ENCODING 924
SWIDTH 500 0
DWIDTH 8 0
BBX 8 18 0 -3
BITMAP
00
00
00
00
00
42
42
66
66
5A
5A
42
42
42
42
00
00
00
ENDCHAR

STARTCHAR GREEK
ENCODING 925
SWIDTH 500 0
DWIDTH 8 0
BBX 8 18 0 -3
BITMAP
00
00
00
00
00
42
62
62
52
52
4A
4A
46
46
42
00
00
00
ENDCHAR

STARTCHAR GREEK
ENCODING 926
SWIDTH 500 0
DWIDTH 8 0
BBX 8 18 0 -3
BITMAP
00
00
00
00
00
7E
00
00
00
3C
00
00
00
00
7E
00
00
00
ENDCHAR

STARTCHAR GREEK
ENCODING 927
SWIDTH 500 0
DWIDTH 8 0
BBX 8 18 0 -3
BITMAP
00
00
00
00
00
3C
42
42
42
42
42
42
42
42
3C
00
00
00
ENDCHAR

STARTCHAR GREEK
ENCODING 928
SWIDTH 500 0
DWIDTH 8 0
BBX 8 18 0 -3
BITMAP
00
00
00
00
00
7F
22
22
22
22
22
22
22
22
22
00
00
00
ENDCHAR

STARTCHAR GREEK
ENCODING 929
SWIDTH 500 0
DWIDTH 8 0
BBX 8 18 0 -3
BITMAP
00
00
00
00
00
7C
42
42
42
7C
40
40
40
40
40
00
00
00
ENDCHAR

STARTCHAR GREEK
ENCODING 931
SWIDTH 500 0
DWIDTH 8 0
BBX 8 18 0 -3
BITMAP
00
00
00
00
00
7E
40
20
10
08
08
10
20
40
7E
00
00
00
ENDCHAR

STARTCHAR GREEK
ENCODING 932
SWIDTH 500 0
DWIDTH 8 0
BBX 8 18 0 -3
BITMAP
00
00
00
00
00
7F
08
08
08
08
08
08
08
08
08
00
00
00
ENDCHAR

STARTCHAR GREEK
ENCODING 933
SWIDTH 500 0
DWIDTH 8 0
BBX 8 18 0 -3
BITMAP
00
00
00
00
00
41
41
22
22
14
08
08
08
08
08
00
00
00
ENDCHAR

STARTCHAR GREEK
ENCODING 934
SWIDTH 500 0
DWIDTH 8 0
BBX 8 18 0 -3
BITMAP
00
00
00
00
00
7F
08
3E
49
49
49
49
3E
08
7F
00
00
00
ENDCHAR

STARTCHAR GREEK
ENCODING 935
SWIDTH 500 0
DWIDTH 8 0
BBX 8 18 0 -3
BITMAP
00
00
00
00
00
42
42
24
24
18
18
24
24
42
42
00
00
00
ENDCHAR

STARTCHAR GREEK
ENCODING 936
SWIDTH 500 0
DWIDTH 8 0
BBX 8 18 0 -3
BITMAP
00
00
00
00
00
49
49
49
49
49
3E
08
08
08
08
00
00
00
ENDCHAR

STARTCHAR GREEK
ENCODING 937
SWIDTH 500 0
DWIDTH 8 0
BBX 8 18 0 -3
BITMAP
00
00
00
00
00
3E
41
41
41
41
41
22
14
14
77
00
00
00
ENDCHAR

STARTCHAR GREEK
ENCODING 938
SWIDTH 500 0
DWIDTH 8 0
BBX 8 18 0 -3
BITMAP
00
24
24
00
00
3E
08
08
08
08
08
08
08
08
3E
00
00
00
ENDCHAR

STARTCHAR GREEK
ENCODING 939
SWIDTH 500 0
DWIDTH 8 0
BBX 8 18 0 -3
BITMAP
00
24
24
00
00
41
41
22
22
14
08
08
08
08
08
00
00
00
ENDCHAR

STARTCHAR GREEK
ENCODING 940
SWIDTH 500 0
DWIDTH 8 0
BBX 8 18 0 -3
BITMAP
00
00
10
10
10
00
00
32
4A
44
44
44
44
4A
32
00
00
00
ENDCHAR

STARTCHAR GREEK
ENCODING 941
SWIDTH 500 0
DWIDTH 8 0
BBX 8 18 0 -3
BITMAP
00
00
10
10
10
00
00
3E
40
40
3C
40
40
40
3E
00
00
00
ENDCHAR

STARTCHAR GREEK
ENCODING 942
SWIDTH 500 0
DWIDTH 8 0
BBX 8 18 0 -3
BITMAP
00
00
10
10
10
00
00
5C
62
42
42
42
42
42
42
02
02
00
ENDCHAR

STARTCHAR GREEK
ENCODING 943
SWIDTH 500 0
DWIDTH 8 0
BBX 8 18 0 -3
BITMAP
00
00
10
10
10
00
00
10
10
10
10
10
10
10
0C
00
00
00
ENDCHAR

STARTCHAR GREEK
ENCODING 944
SWIDTH 500 0
DWIDTH 8 0
BBX 8 18 0 -3
BITMAP
00
10
10
10
44
44
00
42
42
42
42
42
42
42
3C
00
00
00
ENDCHAR

STARTCHAR GREEK
ENCODING 945
SWIDTH 500 0
DWIDTH 8 0
BBX 8 18 0 -3
BITMAP
00
00
00
00
00
00
00
32
4A
44
44
44
44
4A
32
00
00
00
ENDCHAR

STARTCHAR GREEK
ENCODING 946
SWIDTH 500 0
DWIDTH 8 0
BBX 8 18 0 -3
BITMAP
00
00
00
00
00
38
44
44
44
7C
42
42
42
62
5C
40
40
00
ENDCHAR

STARTCHAR GREEK
ENCODING 947
SWIDTH 500 0
DWIDTH 8 0
BBX 8 18 0 -3
BITMAP
00
00
00
00
00
00
00
31
49
0A
04
08
08
10
10
00
00
00
ENDCHAR

STARTCHAR GREEK
ENCODING 948
SWIDTH 500 0
DWIDTH 8 0
BBX 8 18 0 -3
BITMAP
00
00
00
00
00
1C
20
20
20
18
24
42
42
42
3C
00
00
00
ENDCHAR

STARTCHAR GREEK
ENCODING 949
SWIDTH 500 0
DWIDTH 8 0
BBX 8 18 0 -3
BITMAP
00
00
00
00
00
00
00
3C
42
40
3C
40
40
42
3C
00
00
00
ENDCHAR

STARTCHAR GREEK
ENCODING 950
SWIDTH 500 0
DWIDTH 8 0
BBX 8 18 0 -3
BITMAP
00
00
00
00
00
20
20
1C
08
10
20
20
20
20
1C
02
1C
00
ENDCHAR

STARTCHAR GREEK
ENCODING 951
SWIDTH 500 0
DWIDTH 8 0
BBX 8 18 0 -3
BITMAP
00
00
00
00
00
00
00
5C
62
42
42
42
42
42
42
02
02
00
ENDCHAR

STARTCHAR GREEK
ENCODING 952
SWIDTH 500 0
DWIDTH 8 0
BBX 8 18 0 -3
BITMAP
00
00
00
00
00
18
24
24
42
7E
42
42
24
24
18
00
00
00
ENDCHAR

STARTCHAR GREEK
ENCODING 953
SWIDTH 500 0
DWIDTH 8 0
BBX 8 18 0 -3
BITMAP
00
00
00
00
00
00
00
10
10
10
10
10
10
10
0C
00
00
00
ENDCHAR

STARTCHAR GREEK
ENCODING 954
SWIDTH 500 0
DWIDTH 8 0
BBX 8 18 0 -3
BITMAP
00
00
00
00
00
00
00
22
24
28
30
30
28
24
22
00
00
00
ENDCHAR

STARTCHAR GREEK
ENCODING 955
SWIDTH 500 0
DWIDTH 8 0
BBX 8 18 0 -3
BITMAP
00
00
00
00
00
20
20
10
10
08
18
24
24
42
42
00
00
00
ENDCHAR

STARTCHAR GREEK
ENCODING 956
SWIDTH 500 0
DWIDTH 8 0
BBX 8 18 0 -3
BITMAP
00
00
00
00
00
00
00
42
42
42
42
66
66
5A
42
40
40
00
ENDCHAR

STARTCHAR GREEK
ENCODING 957
SWIDTH 500 0
DWIDTH 8 0
BBX 8 18 0 -3
BITMAP
00
00
00
00
00
00
00
42
42
42
44
44
48
50
60
00
00
00
ENDCHAR

STARTCHAR GREEK
ENCODING 958
SWIDTH 500 0
DWIDTH 8 0
BBX 8 18 0 -3
BITMAP
00
00
00
00
00
40
40
3C
40
40
3C
40
40
3C
02
02
3C
00
ENDCHAR

STARTCHAR GREEK
ENCODING 959
SWIDTH 500 0
DWIDTH 8 0
BBX 8 18 0 -3
BITMAP
00
00
00
00
00
00
00
3C
42
42
42
42
42
42
3C
00
00
00
ENDCHAR

STARTCHAR GREEK
ENCODING 960
SWIDTH 500 0
DWIDTH 8 0
BBX 8 18 0 -3
BITMAP
00
00
00
00
00
00
00
7E
24
24
24
24
24
24
24
00
00
00
ENDCHAR

STARTCHAR GREEK
ENCODING 961
SWIDTH 500 0
DWIDTH 8 0
BBX 8 18 0 -3
BITMAP
00
00
00
00
00
00
00
3C
42
42
42
42
42
62
5C
40
40
00
ENDCHAR

STARTCHAR GREEK
ENCODING 962
SWIDTH 500 0
DWIDTH 8 0
BBX 8 18 0 -3
BITMAP
00
00
00
00
00
00
00
1E
20
40
40
40
20
1C
02
02
1C
00
ENDCHAR

STARTCHAR GREEK
ENCODING 963
SWIDTH 500 0
DWIDTH 8 0
BBX 8 18 0 -3
BITMAP
00
00
00
00
00
00
00
3F
48
44
44
44
44
44
38
00
00
00
ENDCHAR

STARTCHAR GREEK
ENCODING 964
SWIDTH 500 0
DWIDTH 8 0
BBX 8 18 0 -3
BITMAP
00
00
00
00
00
00
00
7E
10
10
10
10
10
10
0C
00
00
00
ENDCHAR

STARTCHAR GREEK
ENCODING 965
SWIDTH 500 0
DWIDTH 8 0
BBX 8 18 0 -3
BITMAP
00
00
00
00
00
00
00
42
42
42
42
42
42
42
3C
00
00
00
ENDCHAR

STARTCHAR GREEK
ENCODING 966
SWIDTH 500 0
DWIDTH 8 0
BBX 8 18 0 -3
BITMAP
00
00
00
00
00
00
00
3E
49
49
49
49
49
49
3E
08
08
00
ENDCHAR

STARTCHAR GREEK
ENCODING 967
SWIDTH 500 0
DWIDTH 8 0
BBX 8 18 0 -3
BITMAP
00
00
00
00
00
00
00
42
42
24
24
18
18
24
24
42
42
00
ENDCHAR

STARTCHAR GREEK
ENCODING 968
SWIDTH 500 0
DWIDTH 8 0
BBX 8 18 0 -3
BITMAP
00
00
00
00
00
00
00
00
00
49
49
49
49
49
3E
08
08
00
ENDCHAR

STARTCHAR GREEK
ENCODING 969
SWIDTH 500 0
DWIDTH 8 0
BBX 8 18 0 -3
BITMAP
00
00
00
00
00
00
00
22
41
41
49
49
49
49
36
00
00
00
ENDCHAR

STARTCHAR GREEK
ENCODING 970
SWIDTH 500 0
DWIDTH 8 0
BBX 8 18 0 -3
BITMAP
00
00
00
24
24
00
00
10
10
10
10
10
10
10
0C
00
00
00
ENDCHAR

STARTCHAR GREEK
ENCODING 971
SWIDTH 500 0
DWIDTH 8 0
BBX 8 18 0 -3
BITMAP
00
00
00
24
24
00
00
42
42
42
42
42
42
42
3C
00
00
00
ENDCHAR

STARTCHAR GREEK
ENCODING 972
SWIDTH 500 0
DWIDTH 8 0
BBX 8 18 0 -3
BITMAP
00
00
10
10
10
00
00
3C
42
42
42
42
42
42
3C
00
00
00
ENDCHAR

STARTCHAR GREEK
ENCODING 973
SWIDTH 500 0
DWIDTH 8 0
BBX 8 18 0 -3
BITMAP
00
00
10
10
10
00
00
42
42
42
42
42
42
42
3C
00
00
00
ENDCHAR

STARTCHAR GREEK
ENCODING 974
SWIDTH 500 0
DWIDTH 8 0
BBX 8 18 0 -3
BITMAP
00
00
08
08
08
00
00
22
41
41
49
49
49
49
36
00
00
00
ENDCHAR

STARTCHAR CYRILLIC
ENCODING 1025
SWIDTH 500 0
DWIDTH 8 0
BBX 8 18 0 -3
BITMAP
00
24
24
00
00
7E
40
40
40
7C
40
40
40
40
7E
00
00
00
ENDCHAR

STARTCHAR CYRILLIC
ENCODING 1026
SWIDTH 500 0
DWIDTH 8 0
BBX 8 18 0 -3
BITMAP
00
00
00
00
00
7E
10
10
10
1E
11
11
11
11
1E
00
00
00
ENDCHAR

STARTCHAR CYRILLIC
ENCODING 1027
SWIDTH 500 0
DWIDTH 8 0
BBX 8 18 0 -3
BITMAP
00
0C
30
00
00
7E
40
40
40
40
40
40
40
40
40
00
00
00
ENDCHAR

STARTCHAR CYRILLIC
ENCODING 1028
SWIDTH 500 0
DWIDTH 8 0
BBX 8 18 0 -3
BITMAP
00
00
00
00
00
1C
22
40
40
7C
40
40
40
22
1C
00
00
00
ENDCHAR

STARTCHAR CYRILLIC
ENCODING 1029
SWIDTH 500 0
DWIDTH 8 0
BBX 8 18 0 -3
BITMAP
00
00
00
00
00
3C
42
42
40
30
0C
02
42
42
3C
00
00
00
ENDCHAR

STARTCHAR CYRILLIC
ENCODING 1030
SWIDTH 500 0
DWIDTH 8 0
BBX 8 18 0 -3
BITMAP
00
00
00
00
00
3E
08
08
08
08
08
08
08
08
3E
00
00
00
ENDCHAR

STARTCHAR CYRILLIC
ENCODING 1031
SWIDTH 500 0
DWIDTH 8 0
BBX 8 18 0 -3
BITMAP
00
24
24
00
00
3E
08
08
08
08
08
08
08
08
3E
00
00
00
ENDCHAR

STARTCHAR CYRILLIC
ENCODING 1032
SWIDTH 500 0
DWIDTH 8 0
BBX 8 18 0 -3
BITMAP
00
00
00
00
00
0E
04
04
04
04
04
04
44
44
38
00
00
00
ENDCHAR

STARTCHAR CYRILLIC
ENCODING 1033
SWIDTH 500 0
DWIDTH 8 0
BBX 8 18 0 -3
BITMAP
00
00
00
00
00
78
48
48
48
4E
49
49
49
49
8E
00
00
00
ENDCHAR

STARTCHAR CYRILLIC
ENCODING 1034
SWIDTH 500 0
DWIDTH 8 0
BBX 8 18 0 -3
BITMAP
00
00
00
00
00
48
48
48
48
7E
49
49
49
49
4E
00
00
00
ENDCHAR

STARTCHAR CYRILLIC
ENCODING 1035
SWIDTH 500 0
DWIDTH 8 0
BBX 8 18 0 -3
BITMAP
00
00
00
00
00
7E
10
10
10
1E
11
11
11
11
11
00
00
00
ENDCHAR

STARTCHAR CYRILLIC
ENCODING 1036
SWIDTH 500 0
DWIDTH 8 0
BBX 8 18 0 -3
BITMAP
00
0C
30
00
00
40
46
48
50
60
60
50
48
44
42
00
00
00
ENDCHAR

STARTCHAR CYRILLIC
ENCODING 1038
SWIDTH 500 0
DWIDTH 8 0
BBX 8 18 0 -3
BITMAP
00
42
42
3C
00
41
41
22
22
14
14
08
08
10
30
00
00
00
ENDCHAR

STARTCHAR CYRILLIC
ENCODING 1039
SWIDTH 500 0
DWIDTH 8 0
BBX 8 18 0 -3
BITMAP
00
00
00
00
00
41
41
41
41
41
41
7F
08
08
08
00
00
00
ENDCHAR

STARTCHAR CYRILLIC
ENCODING 1040
SWIDTH 500 0
DWIDTH 8 0
BBX 8 18 0 -3
BITMAP
00
00
00
00
00
18
24
24
42
42
7E
42
42
42
42
00
00
00
ENDCHAR

STARTCHAR CYRILLIC
ENCODING 1041
SWIDTH 500 0
DWIDTH 8 0
BBX 8 18 0 -3
BITMAP
00
00
00
00
00
7C
40
40
40
7C
42
42
42
42
7C
00
00
00
ENDCHAR

STARTCHAR CYRILLIC
ENCODING 1042
SWIDTH 500 0
DWIDTH 8 0
BBX 8 18 0 -3
BITMAP
00
00
00
00
00
7C
42
42
42
7C
42
42
42
42
7C
00
00
00
ENDCHAR

STARTCHAR CYRILLIC
ENCODING 1043
SWIDTH 500 0
DWIDTH 8 0
BBX 8 18 0 -3
BITMAP
00
00
00
00
00
7E
40
40
40
40
40
40
40
40
40
00
00
00
ENDCHAR

STARTCHAR CYRILLIC
ENCODING 1044
SWIDTH 500 0
DWIDTH 8 0
BBX 8 18 0 -3
BITMAP
00
00
00
00
00
0E
12
12
12
22
22
22
42
42
7F
01
01
00
ENDCHAR

STARTCHAR CYRILLIC
ENCODING 1045
SWIDTH 500 0
DWIDTH 8 0
BBX 8 18 0 -3
BITMAP
00
00
00
00
00
7E
40
40
40
7C
40
40
40
40
7E
00
00
00
ENDCHAR

STARTCHAR CYRILLIC
ENCODING 1046
SWIDTH 500 0
DWIDTH 8 0
BBX 8 18 0 -3
BITMAP
00
00
00
00
00
49
49
2A
2A
1C
1C
2A
2A
49
49
00
00
00
ENDCHAR

STARTCHAR CYRILLIC
ENCODING 1047
SWIDTH 500 0
DWIDTH 8 0
BBX 8 18 0 -3
BITMAP
00
00
00
00
00
3C
42
02
02
3C
04
02
02
42
3C
00
00
00
ENDCHAR

STARTCHAR CYRILLIC
ENCODING 1048
SWIDTH 500 0
DWIDTH 8 0
BBX 8 18 0 -3
BITMAP
00
00
00
00
00
42
46
46
4A
4A
52
52
62
62
42
00
00
00
ENDCHAR

STARTCHAR CYRILLIC
ENCODING 1049
SWIDTH 500 0
DWIDTH 8 0
BBX 8 18 0 -3
BITMAP
00
42
42
3C
00
42
46
46
4A
4A
52
52
62
62
42
00
00
00
ENDCHAR

STARTCHAR CYRILLIC
ENCODING 1050
SWIDTH 500 0
DWIDTH 8 0
BBX 8 18 0 -3
BITMAP
00
00
00
00
00
40
46
48
50
60
60
50
48
44
42
00
00
00
ENDCHAR

STARTCHAR CYRILLIC
ENCODING 1051
SWIDTH 500 0
DWIDTH 8 0
BBX 8 18 0 -3
BITMAP
00
00
00
00
00
1E
12
12
12
12
12
12
22
22
42
00
00
00
ENDCHAR

STARTCHAR CYRILLIC
ENCODING 1052
SWIDTH 500 0
DWIDTH 8 0
BBX 8 18 0 -3
BITMAP
00
00
00
00
00
42
42
66
66
5A
5A
42
42
42
42
00
00
00
ENDCHAR

STARTCHAR CYRILLIC
ENCODING 1053
SWIDTH 500 0
DWIDTH 8 0
BBX 8 18 0 -3
BITMAP
00
00
00
00
00
42
42
42
42
7E
42
42
42
42
42
00
00
00
ENDCHAR

STARTCHAR CYRILLIC
ENCODING 1054
SWIDTH 500 0
DWIDTH 8 0
BBX 8 18 0 -3
BITMAP
00
00
00
00
00
3C
42
42
42
42
42
42
42
42
3C
00
00
00
ENDCHAR

STARTCHAR CYRILLIC
ENCODING 1055
SWIDTH 500 0
DWIDTH 8 0
BBX 8 18 0 -3
BITMAP
00
00
00
00
00
7E
42
42
42
42
42
42
42
42
42
00
00
00
ENDCHAR

STARTCHAR CYRILLIC
ENCODING 1056
SWIDTH 500 0
DWIDTH 8 0
BBX 8 18 0 -3
BITMAP
00
00
00
00
00
7C
42
42
42
7C
40
40
40
40
40
00
00
00
ENDCHAR

STARTCHAR CYRILLIC
ENCODING 1057
SWIDTH 500 0
DWIDTH 8 0
BBX 8 18 0 -3
BITMAP
00
00
00
00
00
3C
42
42
40
40
40
40
42
42
3C
00
00
00
ENDCHAR

STARTCHAR CYRILLIC
ENCODING 1058
SWIDTH 500 0
DWIDTH 8 0
BBX 8 18 0 -3
BITMAP
00
00
00
00
00
7F
08
08
08
08
08
08
08
08
08
00
00
00
ENDCHAR

STARTCHAR CYRILLIC
ENCODING 1059
SWIDTH 500 0
DWIDTH 8 0
BBX 8 18 0 -3
BITMAP
00
00
00
00
00
41
41
22
22
14
14
08
08
10
30
00
00
00
ENDCHAR

STARTCHAR CYRILLIC
ENCODING 1060
SWIDTH 500 0
DWIDTH 8 0
BBX 8 18 0 -3
BITMAP
00
00
00
00
08
08
3E
49
49
49
49
49
3E
08
08
00
00
00
ENDCHAR

STARTCHAR CYRILLIC
ENCODING 1061
SWIDTH 500 0
DWIDTH 8 0
BBX 8 18 0 -3
BITMAP
00
00
00
00
00
42
42
24
24
18
18
24
24
42
42
00
00
00
ENDCHAR

STARTCHAR CYRILLIC
ENCODING 1062
SWIDTH 500 0
DWIDTH 8 0
BBX 8 18 0 -3
BITMAP
00
00
00
00
00
42
42
42
42
42
42
42
42
42
7F
01
01
00
ENDCHAR

STARTCHAR CYRILLIC
ENCODING 1063
SWIDTH 500 0
DWIDTH 8 0
BBX 8 18 0 -3
BITMAP
00
00
00
00
00
42
42
42
42
42
46
3A
02
02
02
00
00
00
ENDCHAR

STARTCHAR CYRILLIC
ENCODING 1064
SWIDTH 500 0
DWIDTH 8 0
BBX 8 18 0 -3
BITMAP
00
00
00
00
00
49
49
49
49
49
49
49
49
49
7F
00
00
00
ENDCHAR

STARTCHAR CYRILLIC
ENCODING 1065
SWIDTH 500 0
DWIDTH 8 0
BBX 8 18 0 -3
BITMAP
00
00
00
00
00
49
49
49
49
49
49
49
49
49
7F
01
01
00
ENDCHAR

STARTCHAR CYRILLIC
ENCODING 1066
SWIDTH 500 0
DWIDTH 8 0
BBX 8 18 0 -3
BITMAP
00
00
00
00
00
70
10
10
10
1E
11
11
11
11
1E
00
00
00
ENDCHAR

STARTCHAR CYRILLIC
ENCODING 1067
SWIDTH 500 0
DWIDTH 8 0
BBX 8 18 0 -3
BITMAP
00
00
00
00
00
42
42
42
42
72
4A
4A
4A
4A
72
00
00
00
ENDCHAR

STARTCHAR CYRILLIC
ENCODING 1068
SWIDTH 500 0
DWIDTH 8 0
BBX 8 18 0 -3
BITMAP
00
00
00
00
00
40
40
40
40
7C
42
42
42
42
7C
00
00
00
ENDCHAR

STARTCHAR CYRILLIC
ENCODING 1069
SWIDTH 500 0
DWIDTH 8 0
BBX 8 18 0 -3
BITMAP
00
00
00
00
00
38
44
02
02
3E
02
02
02
44
38
00
00
00
ENDCHAR

STARTCHAR CYRILLIC
ENCODING 1070
SWIDTH 500 0
DWIDTH 8 0
BBX 8 18 0 -3
BITMAP
00
00
00
00
00
4C
52
52
52
72
52
52
52
52
4C
00
00
00
ENDCHAR

STARTCHAR CYRILLIC
ENCODING 1071
SWIDTH 500 0
DWIDTH 8 0
BBX 8 18 0 -3
BITMAP
00
00
00
00
00
3E
42
42
42
3E
12
22
22
42
42
00
00
00
ENDCHAR

STARTCHAR CYRILLIC
ENCODING 1072
SWIDTH 500 0
DWIDTH 8 0
BBX 8 18 0 -3
BITMAP
00
00
00
00
00
00
00
3C
42
02
3E
42
42
46
3A
00
00
00
ENDCHAR

STARTCHAR CYRILLIC
ENCODING 1073
SWIDTH 500 0
DWIDTH 8 0
BBX 8 18 0 -3
BITMAP
00
00
00
00
00
00
00
7C
40
40
7C
42
42
42
7C
00
00
00
ENDCHAR

STARTCHAR CYRILLIC
ENCODING 1074
SWIDTH 500 0
DWIDTH 8 0
BBX 8 18 0 -3
BITMAP
00
00
00
00
00
00
00
7C
42
42
7C
42
42
42
7C
00
00
00
ENDCHAR

STARTCHAR CYRILLIC
ENCODING 1075
SWIDTH 500 0
DWIDTH 8 0
BBX 8 18 0 -3
BITMAP
00
00
00
00
00
00
00
7E
40
40
40
40
40
40
40
00
00
00
ENDCHAR

STARTCHAR CYRILLIC
ENCODING 1076
SWIDTH 500 0
DWIDTH 8 0
BBX 8 18 0 -3
BITMAP
00
00
00
00
00
00
00
1E
12
22
22
42
42
42
7F
01
00
00
ENDCHAR

STARTCHAR CYRILLIC
ENCODING 1077
SWIDTH 500 0
DWIDTH 8 0
BBX 8 18 0 -3
BITMAP
00
00
00
00
00
00
00
3C
42
42
7E
40
40
42
3C
00
00
00
ENDCHAR

STARTCHAR CYRILLIC
ENCODING 1078
SWIDTH 500 0
DWIDTH 8 0
BBX 8 18 0 -3
BITMAP
00
00
00
00
00
00
00
49
49
2A
1C
1C
2A
49
49
00
00
00
ENDCHAR

STARTCHAR CYRILLIC
ENCODING 1079
SWIDTH 500 0
DWIDTH 8 0
BBX 8 18 0 -3
BITMAP
00
00
00
00
00
00
00
3C
42
02
3C
04
02
42
3C
00
00
00
ENDCHAR

STARTCHAR CYRILLIC
ENCODING 1080
SWIDTH 500 0
DWIDTH 8 0
BBX 8 18 0 -3
BITMAP
00
00
00
00
00
00
00
46
46
4A
4A
52
52
62
62
00
00
00
ENDCHAR

STARTCHAR CYRILLIC
ENCODING 1081
SWIDTH 500 0
DWIDTH 8 0
BBX 8 18 0 -3
BITMAP
00
00
42
42
3C
00
00
46
46
4A
4A
52
52
62
62
00
00
00
ENDCHAR

STARTCHAR CYRILLIC
ENCODING 1082
SWIDTH 500 0
DWIDTH 8 0
BBX 8 18 0 -3
BITMAP
00
00
00
00
00
00
00
46
48
50
60
50
48
44
42
00
00
00
ENDCHAR

STARTCHAR CYRILLIC
ENCODING 1083
SWIDTH 500 0
DWIDTH 8 0
BBX 8 18 0 -3
BITMAP
00
00
00
00
00
00
00
1E
12
12
12
12
22
22
42
00
00
00
ENDCHAR

STARTCHAR CYRILLIC
ENCODING 1084
SWIDTH 500 0
DWIDTH 8 0
BBX 8 18 0 -3
BITMAP
00
00
00
00
00
00
00
42
66
66
5A
5A
42
42
42
00
00
00
ENDCHAR

STARTCHAR CYRILLIC
ENCODING 1085
SWIDTH 500 0
DWIDTH 8 0
BBX 8 18 0 -3
BITMAP
00
00
00
00
00
00
00
42
42
42
7E
42
42
42
42
00
00
00
ENDCHAR

STARTCHAR CYRILLIC
ENCODING 1086
SWIDTH 500 0
DWIDTH 8 0
BBX 8 18 0 -3
BITMAP
00
00
00
00
00
00
00
3C
42
42
42
42
42
42
3C
00
00
00
ENDCHAR

STARTCHAR CYRILLIC
ENCODING 1087
SWIDTH 500 0
DWIDTH 8 0
BBX 8 18 0 -3
BITMAP
00
00
00
00
00
00
00
7E
42
42
42
42
42
42
42
00
00
00
ENDCHAR

STARTCHAR CYRILLIC
ENCODING 1088
SWIDTH 500 0
DWIDTH 8 0
BBX 8 18 0 -3
BITMAP
00
00
00
00
00
00
00
5C
62
42
42
42
42
62
5C
40
40
00
ENDCHAR

STARTCHAR CYRILLIC
ENCODING 1089
SWIDTH 500 0
DWIDTH 8 0
BBX 8 18 0 -3
BITMAP
00
00
00
00
00
00
00
3C
42
40
40
40
40
42
3C
00
00
00
ENDCHAR

STARTCHAR CYRILLIC
ENCODING 1090
SWIDTH 500 0
DWIDTH 8 0
BBX 8 18 0 -3
BITMAP
00
00
00
00
00
00
00
7F
08
08
08
08
08
08
08
00
00
00
ENDCHAR

STARTCHAR CYRILLIC
ENCODING 1091
SWIDTH 500 0
DWIDTH 8 0
BBX 8 18 0 -3
BITMAP
00
00
00
00
00
00
00
42
42
24
24
18
18
10
10
20
60
00
ENDCHAR

STARTCHAR CYRILLIC
ENCODING 1092
SWIDTH 500 0
DWIDTH 8 0
BBX 8 18 0 -3
BITMAP
00
00
00
00
00
00
08
08
3E
49
49
49
49
3E
08
08
00
00
ENDCHAR

STARTCHAR CYRILLIC
ENCODING 1093
SWIDTH 500 0
DWIDTH 8 0
BBX 8 18 0 -3
BITMAP
00
00
00
00
00
00
00
42
42
24
18
18
24
42
42
00
00
00
ENDCHAR

STARTCHAR CYRILLIC
ENCODING 1094
SWIDTH 500 0
DWIDTH 8 0
BBX 8 18 0 -3
BITMAP
00
00
00
00
00
00
00
42
42
42
42
42
42
42
7F
01
01
00
ENDCHAR

STARTCHAR CYRILLIC
ENCODING 1095
SWIDTH 500 0
DWIDTH 8 0
BBX 8 18 0 -3
BITMAP
00
00
00
00
00
00
00
42
42
42
42
46
3A
02
02
00
00
00
ENDCHAR

STARTCHAR CYRILLIC
ENCODING 1096
SWIDTH 500 0
DWIDTH 8 0
BBX 8 18 0 -3
BITMAP
00
00
00
00
00
00
00
49
49
49
49
49
49
49
7F
00
00
00
ENDCHAR

STARTCHAR CYRILLIC
ENCODING 1097
SWIDTH 500 0
DWIDTH 8 0
BBX 8 18 0 -3
BITMAP
00
00
00
00
00
00
00
49
49
49
49
49
49
49
7F
01
01
00
ENDCHAR

STARTCHAR CYRILLIC
ENCODING 1098
SWIDTH 500 0
DWIDTH 8 0
BBX 8 18 0 -3
BITMAP
00
00
00
00
00
00
00
70
10
10
1E
11
11
11
1E
00
00
00
ENDCHAR

STARTCHAR CYRILLIC
ENCODING 1099
SWIDTH 500 0
DWIDTH 8 0
BBX 8 18 0 -3
BITMAP
00
00
00
00
00
00
00
42
42
42
72
4A
4A
4A
72
00
00
00
ENDCHAR

STARTCHAR CYRILLIC
ENCODING 1100
SWIDTH 500 0
DWIDTH 8 0
BBX 8 18 0 -3
BITMAP
00
00
00
00
00
00
00
40
40
40
7C
42
42
42
7C
00
00
00
ENDCHAR

STARTCHAR CYRILLIC
ENCODING 1101
SWIDTH 500 0
DWIDTH 8 0
BBX 8 18 0 -3
BITMAP
00
00
00
00
00
00
00
38
44
02
3E
02
02
44
38
00
00
00
ENDCHAR

STARTCHAR CYRILLIC
ENCODING 1102
SWIDTH 500 0
DWIDTH 8 0
BBX 8 18 0 -3
BITMAP
00
00
00
00
00
00
00
4C
52
52
72
52
52
52
4C
00
00
00
ENDCHAR

STARTCHAR CYRILLIC
ENCODING 1103
SWIDTH 500 0
DWIDTH 8 0
BBX 8 18 0 -3
BITMAP
00
00
00
00
00
00
00
3E
42
42
42
3E
12
22
42
00
00
00
ENDCHAR

STARTCHAR CYRILLIC
ENCODING 1105
SWIDTH 500 0
DWIDTH 8 0
BBX 8 18 0 -3
BITMAP
00
00
00
24
24
00
00
3C
42
42
7E
40
40
42
3C
00
00
00
ENDCHAR

STARTCHAR CYRILLIC
ENCODING 1106
SWIDTH 500 0
DWIDTH 8 0
BBX 8 18 0 -3
BITMAP
00
00
00
00
00
20
20
78
20
20
3C
22
22
22
22
0C
00
00
ENDCHAR

STARTCHAR CYRILLIC
ENCODING 1107
SWIDTH 500 0
DWIDTH 8 0
BBX 8 18 0 -3
BITMAP
00
00
00
0C
30
00
00
7E
40
40
40
40
40
40
40
00
00
00
ENDCHAR

STARTCHAR CYRILLIC
ENCODING 1108
SWIDTH 500 0
DWIDTH 8 0
BBX 8 18 0 -3
BITMAP
00
00
00
00
00
00
00
1C
22
40
7C
40
40
22
1C
00
00
00
ENDCHAR

STARTCHAR CYRILLIC
ENCODING 1109
SWIDTH 500 0
DWIDTH 8 0
BBX 8 18 0 -3
BITMAP
00
00
00
00
00
00
00
3C
42
40
30
0C
02
42
3C
00
00
00
ENDCHAR

STARTCHAR CYRILLIC
ENCODING 1110
SWIDTH 500 0
DWIDTH 8 0
BBX 8 18 0 -3
BITMAP
00
00
00
00
08
08
00
18
08
08
08
08
08
08
3E
00
00
00
ENDCHAR

STARTCHAR CYRILLIC
ENCODING 1111
SWIDTH 500 0
DWIDTH 8 0
BBX 8 18 0 -3
BITMAP
00
00
00
00
24
24
00
18
08
08
08
08
08
08
3E
00
00
00
ENDCHAR

STARTCHAR CYRILLIC
ENCODING 1112
SWIDTH 500 0
DWIDTH 8 0
BBX 8 18 0 -3
BITMAP
00
00
00
00
04
04
00
0C
04
04
04
04
04
04
04
48
30
00
ENDCHAR

STARTCHAR CYRILLIC
ENCODING 1113
SWIDTH 500 0
DWIDTH 8 0
BBX 8 18 0 -3
BITMAP
00
00
00
00
00
00
00
78
48
48
4E
49
49
49
8E
00
00
00
ENDCHAR

STARTCHAR CYRILLIC
ENCODING 1114
SWIDTH 500 0
DWIDTH 8 0
BBX 8 18 0 -3
BITMAP
00
00
00
00
00
00
00
48
48
48
7E
49
49
49
4E
00
00
00
ENDCHAR

STARTCHAR CYRILLIC
ENCODING 1115
SWIDTH 500 0
DWIDTH 8 0
BBX 8 18 0 -3
BITMAP
00
00
00
00
00
20
20
78
20
20
2C
32
22
22
22
00
00
00
ENDCHAR

STARTCHAR CYRILLIC
ENCODING 1116
SWIDTH 500 0
DWIDTH 8 0
BBX 8 18 0 -3
BITMAP
00
00
00
0C
30
00
00
46
48
50
60
50
48
44
42
00
00
00
ENDCHAR

STARTCHAR CYRILLIC
ENCODING 1118
SWIDTH 500 0
DWIDTH 8 0
BBX 8 18 0 -3
BITMAP
00
00
42
42
3C
00
00
42
42
24
24
18
18
10
10
20
60
00
ENDCHAR

STARTCHAR CYRILLIC
ENCODING 1119
SWIDTH 500 0
DWIDTH 8 0
BBX 8 18 0 -3
BITMAP
00
00
00
00
00
00
00
22
22
22
22
22
22
3E
08
08
08
00
ENDCHAR

STARTCHAR CYRILLIC
ENCODING 1120
SWIDTH 500 0
DWIDTH 8 0
BBX 8 18 0 -3
BITMAP
00
00
00
00
00
36
41
41
41
41
49
49
49
49
36
00
00
00
ENDCHAR

STARTCHAR CYRILLIC
ENCODING 1121
SWIDTH 500 0
DWIDTH 8 0
BBX 8 18 0 -3
BITMAP
00
00
00
00
00
00
00
22
41
41
49
49
49
49
36
00
00
00
ENDCHAR

STARTCHAR CYRILLIC
ENCODING 1122
SWIDTH 500 0
DWIDTH 8 0
BBX 8 18 0 -3
BITMAP
00
00
00
00
00
10
7C
10
10
1E
11
11
11
11
1E
00
00
00
ENDCHAR

STARTCHAR CYRILLIC
ENCODING 1123
SWIDTH 500 0
DWIDTH 8 0
BBX 8 18 0 -3
BITMAP
00
00
00
00
00
20
20
78
20
20
3C
22
22
22
3C
00
00
00
ENDCHAR

STARTCHAR CYRILLIC
ENCODING 1124
SWIDTH 500 0
DWIDTH 8 0
BBX 8 18 0 -3
BITMAP
00
00
00
00
00
46
49
50
50
7E
50
50
50
49
46
00
00
00
ENDCHAR

STARTCHAR CYRILLIC
ENCODING 1125
SWIDTH 500 0
DWIDTH 8 0
BBX 8 18 0 -3
BITMAP
00
00
00
00
00
00
00
46
49
50
7E
50
50
49
46
00
00
00
ENDCHAR

STARTCHAR CYRILLIC
ENCODING 1126
SWIDTH 500 0
DWIDTH 8 0
BBX 8 18 0 -3
BITMAP
00
00
00
00
00
08
08
14
14
22
36
2A
49
49
49
00
00
00
ENDCHAR

STARTCHAR CYRILLIC
ENCODING 1127
SWIDTH 500 0
DWIDTH 8 0
BBX 8 18 0 -3
BITMAP
00
00
00
00
00
00
00
08
14
14
22
36
49
49
49
00
00
00
ENDCHAR

STARTCHAR CYRILLIC
ENCODING 1128
SWIDTH 500 0
DWIDTH 8 0
BBX 8 18 0 -3
BITMAP
00
00
00
00
00
48
48
54
54
52
76
6A
49
49
49
00
00
00
ENDCHAR

STARTCHAR CYRILLIC
ENCODING 1129
SWIDTH 500 0
DWIDTH 8 0
BBX 8 18 0 -3
BITMAP
00
00
00
00
00
00
00
48
54
54
52
76
49
49
49
00
00
00
ENDCHAR

STARTCHAR CYRILLIC
ENCODING 1130
SWIDTH 500 0
DWIDTH 8 0
BBX 8 18 0 -3
BITMAP
00
00
00
00
00
3E
22
22
14
08
1C
2A
49
49
49
00
00
00
ENDCHAR

STARTCHAR CYRILLIC
ENCODING 1131
SWIDTH 500 0
DWIDTH 8 0
BBX 8 18 0 -3
BITMAP
00
00
00
00
00
00
00
3E
22
14
08
3E
49
49
49
00
00
00
ENDCHAR

STARTCHAR CYRILLIC
ENCODING 1132
SWIDTH 500 0
DWIDTH 8 0
BBX 8 18 0 -3
BITMAP
00
00
00
00
00
5F
51
51
4A
74
4E
55
55
55
55
00
00
00
ENDCHAR

STARTCHAR CYRILLIC
ENCODING 1133
SWIDTH 500 0
DWIDTH 8 0
BBX 8 18 0 -3
BITMAP
00
00
00
00
00
00
00
5F
51
4A
74
4E
55
55
55
00
00
00
ENDCHAR

STARTCHAR CYRILLIC
ENCODING 1134
SWIDTH 500 0
DWIDTH 8 0
BBX 8 18 0 -3
BITMAP
00
00
00
24
18
3C
42
02
02
3C
04
02
02
02
3C
40
40
00
ENDCHAR

STARTCHAR CYRILLIC
ENCODING 1135
SWIDTH 500 0
DWIDTH 8 0
BBX 8 18 0 -3
BITMAP
00
00
00
00
24
18
00
3C
42
02
3C
04
02
02
3C
40
40
00
ENDCHAR

STARTCHAR CYRILLIC
ENCODING 1136
SWIDTH 500 0
DWIDTH 8 0
BBX 8 18 0 -3
BITMAP
00
00
00
00
00
49
49
49
49
49
3E
08
08
08
08
00
00
00
ENDCHAR

STARTCHAR CYRILLIC
ENCODING 1137
SWIDTH 500 0
DWIDTH 8 0
BBX 8 18 0 -3
BITMAP
00
00
00
00
00
00
00
00
00
49
49
49
49
49
3E
08
08
00
ENDCHAR

STARTCHAR CYRILLIC
ENCODING 1138
SWIDTH 500 0
DWIDTH 8 0
BBX 8 18 0 -3
BITMAP
00
00
00
00
00
3C
42
42
42
7E
42
42
42
42
3C
00
00
00
ENDCHAR

STARTCHAR CYRILLIC
ENCODING 1139
SWIDTH 500 0
DWIDTH 8 0
BBX 8 18 0 -3
BITMAP
00
00
00
00
00
00
00
3C
42
42
7E
42
42
42
3C
00
00
00
ENDCHAR

STARTCHAR CYRILLIC
ENCODING 1140
SWIDTH 500 0
DWIDTH 8 0
BBX 8 18 0 -3
BITMAP
00
00
00
00
00
43
44
44
44
28
28
28
10
10
10
00
00
00
ENDCHAR

STARTCHAR CYRILLIC
ENCODING 1141
SWIDTH 500 0
DWIDTH 8 0
BBX 8 18 0 -3
BITMAP
00
00
00
00
00
00
00
46
48
48
28
28
28
10
10
00
00
00
ENDCHAR

STARTCHAR CYRILLIC
ENCODING 1142
SWIDTH 500 0
DWIDTH 8 0
BBX 8 18 0 -3
BITMAP
00
66
11
00
00
43
44
44
44
28
28
28
10
10
10
00
00
00
ENDCHAR

STARTCHAR CYRILLIC
ENCODING 1143
SWIDTH 500 0
DWIDTH 8 0
BBX 8 18 0 -3
BITMAP
00
00
00
66
11
00
00
46
48
48
28
28
28
10
10
00
00
00
ENDCHAR

STARTCHAR CYRILLIC
ENCODING 1144
SWIDTH 500 0
DWIDTH 8 0
BBX 8 18 0 -3
BITMAP
00
00
00
00
00
20
50
59
59
59
55
56
54
54
24
08
08
00
ENDCHAR

STARTCHAR CYRILLIC
ENCODING 1145
SWIDTH 500 0
DWIDTH 8 0
BBX 8 18 0 -3
BITMAP
00
00
00
00
00
00
00
29
59
59
55
56
54
54
24
08
08
00
ENDCHAR

STARTCHAR CYRILLIC
ENCODING 1146
SWIDTH 500 0
DWIDTH 8 0
BBX 8 18 0 -3
BITMAP
00
00
00
00
08
3E
49
41
41
41
41
41
41
49
3E
08
00
00
ENDCHAR

STARTCHAR CYRILLIC
ENCODING 1147
SWIDTH 500 0
DWIDTH 8 0
BBX 8 18 0 -3
BITMAP
00
00
00
00
00
00
08
3E
49
41
41
41
41
49
3E
08
00
00
ENDCHAR

STARTCHAR CYRILLIC
ENCODING 1148
SWIDTH 500 0
DWIDTH 8 0
BBX 8 18 0 -3
BITMAP
00
3C
43
18
00
36
41
41
41
41
49
49
49
49
36
00
00
00
ENDCHAR

STARTCHAR CYRILLIC
ENCODING 1149
SWIDTH 500 0
DWIDTH 8 0
BBX 8 18 0 -3
BITMAP
00
00
00
3C
43
18
00
22
41
41
49
49
49
49
36
00
00
00
ENDCHAR

STARTCHAR CYRILLIC
ENCODING 1150
SWIDTH 500 0
DWIDTH 8 0
BBX 8 18 0 -3
BITMAP
00
7F
08
00
00
36
41
41
41
41
49
49
49
49
36
00
00
00
ENDCHAR

STARTCHAR CYRILLIC
ENCODING 1151
SWIDTH 500 0
DWIDTH 8 0
BBX 8 18 0 -3
BITMAP
00
00
00
7F
08
00
00
22
41
41
49
49
49
49
36
00
00
00
ENDCHAR

STARTCHAR CYRILLIC
ENCODING 1152
SWIDTH 500 0
DWIDTH 8 0
BBX 8 18 0 -3
BITMAP
00
00
00
00
00
3C
42
42
40
40
40
40
40
3C
04
04
04
00
ENDCHAR

STARTCHAR CYRILLIC
ENCODING 1153
SWIDTH 500 0
DWIDTH 8 0
BBX 8 18 0 -3
BITMAP
00
00
00
00
00
00
00
3C
42
42
40
40
40
3C
04
04
04
00
ENDCHAR

STARTCHAR CYRILLIC
ENCODING 1154
SWIDTH 500 0
DWIDTH 8 0
BBX 8 18 0 -3
BITMAP
00
00
00
00
00
00
00
12
0C
44
2A
11
18
24
00
00
00
00
ENDCHAR

STARTCHAR CYRILLIC
ENCODING 1168
SWIDTH 500 0
DWIDTH 8 0
BBX 8 18 0 -3
BITMAP
00
00
00
02
02
7E
40
40
40
40
40
40
40
40
40
00
00
00
ENDCHAR

STARTCHAR CYRILLIC
ENCODING 1169
SWIDTH 500 0
DWIDTH 8 0
BBX 8 18 0 -3
BITMAP
00
00
00
00
00
02
02
7E
40
40
40
40
40
40
40
00
00
00
ENDCHAR

STARTCHAR CYRILLIC
ENCODING 1170
SWIDTH 500 0
DWIDTH 8 0
BBX 8 18 0 -3
BITMAP
00
00
00
00
00
1F
10
10
10
10
7C
10
10
10
10
00
00
00
ENDCHAR

STARTCHAR CYRILLIC
ENCODING 1171
SWIDTH 500 0
DWIDTH 8 0
BBX 8 18 0 -3
BITMAP
00
00
00
00
00
00
00
1F
10
10
10
7C
10
10
10
00
00
00
ENDCHAR

STARTCHAR CYRILLIC
ENCODING 1172
SWIDTH 500 0
DWIDTH 8 0
BBX 8 18 0 -3
BITMAP
00
00
00
00
00
7E
40
40
40
40
7C
42
42
42
42
0C
00
00
ENDCHAR

STARTCHAR CYRILLIC
ENCODING 1173
SWIDTH 500 0
DWIDTH 8 0
BBX 8 18 0 -3
BITMAP
00
00
00
00
00
00
00
7E
40
40
40
7C
42
42
42
0C
00
00
ENDCHAR

STARTCHAR CYRILLIC
ENCODING 1174
SWIDTH 500 0
DWIDTH 8 0
BBX 8 18 0 -3
BITMAP
00
00
00
00
00
49
49
2A
2A
1C
1C
2A
2A
49
49
01
01
00
ENDCHAR

STARTCHAR CYRILLIC
ENCODING 1175
SWIDTH 500 0
DWIDTH 8 0
BBX 8 18 0 -3
BITMAP
00
00
00
00
00
00
00
49
49
2A
1C
1C
2A
49
49
01
01
00
ENDCHAR

STARTCHAR CYRILLIC
ENCODING 1176
SWIDTH 500 0
DWIDTH 8 0
BBX 8 18 0 -3
BITMAP
00
00
00
00
00
3C
42
02
02
3C
04
02
02
42
3C
08
30
00
ENDCHAR

STARTCHAR CYRILLIC
ENCODING 1177
SWIDTH 500 0
DWIDTH 8 0
BBX 8 18 0 -3
BITMAP
00
00
00
00
00
00
00
3C
42
02
3C
04
02
42
3C
08
30
00
ENDCHAR

STARTCHAR CYRILLIC
ENCODING 1178
SWIDTH 500 0
DWIDTH 8 0
BBX 8 18 0 -3
BITMAP
00
00
00
00
00
40
46
48
50
60
60
50
48
44
42
02
02
00
ENDCHAR

STARTCHAR CYRILLIC
ENCODING 1179
SWIDTH 500 0
DWIDTH 8 0
BBX 8 18 0 -3
BITMAP
00
00
00
00
00
00
00
46
48
50
60
50
48
44
42
02
02
00
ENDCHAR

STARTCHAR CYRILLIC
ENCODING 1180
SWIDTH 500 0
DWIDTH 8 0
BBX 8 18 0 -3
BITMAP
00
00
00
00
00
40
43
54
54
78
54
54
54
42
41
00
00
00
ENDCHAR

STARTCHAR CYRILLIC
ENCODING 1181
SWIDTH 500 0
DWIDTH 8 0
BBX 8 18 0 -3
BITMAP
00
00
00
00
00
00
00
43
54
54
78
54
54
42
41
00
00
00
ENDCHAR

STARTCHAR CYRILLIC
ENCODING 1182
SWIDTH 500 0
DWIDTH 8 0
BBX 8 18 0 -3
BITMAP
00
00
00
00
00
20
73
24
28
30
30
28
24
22
21
00
00
00
ENDCHAR

STARTCHAR CYRILLIC
ENCODING 1183
SWIDTH 500 0
DWIDTH 8 0
BBX 8 18 0 -3
BITMAP
00
00
00
00
00
00
00
23
74
28
30
28
24
22
21
00
00
00
ENDCHAR

STARTCHAR CYRILLIC
ENCODING 1184
SWIDTH 500 0
DWIDTH 8 0
BBX 8 18 0 -3
BITMAP
00
00
00
00
00
E0
23
24
28
30
30
28
24
22
21
00
00
00
ENDCHAR

STARTCHAR CYRILLIC
ENCODING 1185
SWIDTH 500 0
DWIDTH 8 0
BBX 8 18 0 -3
BITMAP
00
00
00
00
00
00
00
E3
24
28
30
28
24
22
21
00
00
00
ENDCHAR

STARTCHAR CYRILLIC
ENCODING 1186
SWIDTH 500 0
DWIDTH 8 0
BBX 8 18 0 -3
BITMAP
00
00
00
00
00
42
42
42
42
7E
42
42
42
42
43
01
01
00
ENDCHAR

STARTCHAR CYRILLIC
ENCODING 1187
SWIDTH 500 0
DWIDTH 8 0
BBX 8 18 0 -3
BITMAP
00
00
00
00
00
00
00
42
42
42
7E
42
42
42
43
01
01
00
ENDCHAR

STARTCHAR CYRILLIC
ENCODING 1188
SWIDTH 500 0
DWIDTH 8 0
BBX 8 18 0 -3
BITMAP
00
00
00
00
00
47
44
44
44
7C
44
44
44
44
44
00
00
00
ENDCHAR

STARTCHAR CYRILLIC
ENCODING 1189
SWIDTH 500 0
DWIDTH 8 0
BBX 8 18 0 -3
BITMAP
00
00
00
00
00
00
00
47
44
44
7C
44
44
44
44
00
00
00
ENDCHAR

STARTCHAR CYRILLIC
ENCODING 1190
SWIDTH 500 0
DWIDTH 8 0
BBX 8 18 0 -3
BITMAP
00
00
00
00
00
78
48
48
48
48
4E
49
49
49
49
01
06
00
ENDCHAR

STARTCHAR CYRILLIC
ENCODING 1191
SWIDTH 500 0
DWIDTH 8 0
BBX 8 18 0 -3
BITMAP
00
00
00
00
00
00
00
78
48
48
48
4E
49
49
49
01
06
00
ENDCHAR

STARTCHAR CYRILLIC
ENCODING 1192
SWIDTH 500 0
DWIDTH 8 0
BBX 8 18 0 -3
BITMAP
00
00
00
00
00
1C
20
40
4C
52
52
52
52
2C
18
06
00
00
ENDCHAR

STARTCHAR CYRILLIC
ENCODING 1193
SWIDTH 500 0
DWIDTH 8 0
BBX 8 18 0 -3
BITMAP
00
00
00
00
00
00
00
1C
20
4C
52
52
52
2C
18
06
00
00
ENDCHAR

STARTCHAR CYRILLIC
ENCODING 1194
SWIDTH 500 0
DWIDTH 8 0
BBX 8 18 0 -3
BITMAP
00
00
00
00
00
3C
42
42
40
40
40
40
42
42
3C
10
0C
00
ENDCHAR

STARTCHAR CYRILLIC
ENCODING 1195
SWIDTH 500 0
DWIDTH 8 0
BBX 8 18 0 -3
BITMAP
00
00
00
00
00
00
00
3C
42
42
40
40
42
42
3C
10
0C
00
ENDCHAR

STARTCHAR CYRILLIC
ENCODING 1196
SWIDTH 500 0
DWIDTH 8 0
BBX 8 18 0 -3
BITMAP
00
00
00
00
00
7F
08
08
08
08
08
08
08
08
0C
04
04
00
ENDCHAR

STARTCHAR CYRILLIC
ENCODING 1197
SWIDTH 500 0
DWIDTH 8 0
BBX 8 18 0 -3
BITMAP
00
00
00
00
00
00
00
7F
08
08
08
08
08
08
0C
04
04
00
ENDCHAR

STARTCHAR CYRILLIC
ENCODING 1198
SWIDTH 500 0
DWIDTH 8 0
BBX 8 18 0 -3
BITMAP
00
00
00
00
00
41
41
22
22
14
08
08
08
08
08
00
00
00
ENDCHAR

STARTCHAR CYRILLIC
ENCODING 1199
SWIDTH 500 0
DWIDTH 8 0
BBX 8 18 0 -3
BITMAP
00
00
00
00
00
00
00
22
22
22
14
14
08
08
08
08
08
00
ENDCHAR

STARTCHAR CYRILLIC
ENCODING 1200
SWIDTH 500 0
DWIDTH 8 0
BBX 8 18 0 -3
BITMAP
00
00
00
00
00
41
41
22
22
14
08
08
3E
08
08
00
00
00
ENDCHAR

STARTCHAR CYRILLIC
ENCODING 1201
SWIDTH 500 0
DWIDTH 8 0
BBX 8 18 0 -3
BITMAP
00
00
00
00
00
00
00
22
22
22
14
08
08
3E
08
00
00
00
ENDCHAR

STARTCHAR CYRILLIC
ENCODING 1202
SWIDTH 500 0
DWIDTH 8 0
BBX 8 18 0 -3
BITMAP
00
00
00
00
00
42
42
24
24
18
18
24
24
42
43
01
01
00
ENDCHAR

STARTCHAR CYRILLIC
ENCODING 1203
SWIDTH 500 0
DWIDTH 8 0
BBX 8 18 0 -3
BITMAP
00
00
00
00
00
00
00
42
42
24
18
18
24
42
43
01
01
00
ENDCHAR

STARTCHAR CYRILLIC
ENCODING 1204
SWIDTH 500 0
DWIDTH 8 0
BBX 8 18 0 -3
BITMAP
00
00
00
00
00
FA
22
22
22
22
22
22
22
22
3F
01
01
00
ENDCHAR

STARTCHAR CYRILLIC
ENCODING 1205
SWIDTH 500 0
DWIDTH 8 0
BBX 8 18 0 -3
BITMAP
00
00
00
00
00
00
00
FA
22
22
22
22
22
22
3F
01
01
00
ENDCHAR

STARTCHAR CYRILLIC
ENCODING 1206
SWIDTH 500 0
DWIDTH 8 0
BBX 8 18 0 -3
BITMAP
00
00
00
00
00
42
42
42
42
42
46
3A
02
02
03
01
01
00
ENDCHAR

STARTCHAR CYRILLIC
ENCODING 1207
SWIDTH 500 0
DWIDTH 8 0
BBX 8 18 0 -3
BITMAP
00
00
00
00
00
00
00
42
42
42
42
46
3A
02
03
01
01
00
ENDCHAR

STARTCHAR CYRILLIC
ENCODING 1208
SWIDTH 500 0
DWIDTH 8 0
BBX 8 18 0 -3
BITMAP
00
00
00
00
00
42
42
42
42
52
56
3A
12
12
02
00
00
00
ENDCHAR

STARTCHAR CYRILLIC
ENCODING 1209
SWIDTH 500 0
DWIDTH 8 0
BBX 8 18 0 -3
BITMAP
00
00
00
00
00
00
00
42
42
42
52
56
3A
12
02
00
00
00
ENDCHAR

STARTCHAR CYRILLIC
ENCODING 1210
SWIDTH 500 0
DWIDTH 8 0
BBX 8 18 0 -3
BITMAP
00
00
00
00
00
40
40
40
5C
62
42
42
42
42
42
00
00
00
ENDCHAR

STARTCHAR CYRILLIC
ENCODING 1211
SWIDTH 500 0
DWIDTH 8 0
BBX 8 18 0 -3
BITMAP
00
00
00
00
00
00
00
40
40
5C
62
42
42
42
42
00
00
00
ENDCHAR

STARTCHAR CYRILLIC
ENCODING 1212
SWIDTH 500 0
DWIDTH 8 0
BBX 8 18 0 -3
BITMAP
00
00
00
00
00
4C
52
52
52
3E
10
10
12
12
0C
00
00
00
ENDCHAR

STARTCHAR CYRILLIC
ENCODING 1213
SWIDTH 500 0
DWIDTH 8 0
BBX 8 18 0 -3
BITMAP
00
00
00
00
00
00
00
4C
52
52
3E
10
10
12
0C
00
00
00
ENDCHAR

STARTCHAR CYRILLIC
ENCODING 1214
SWIDTH 500 0
DWIDTH 8 0
BBX 8 18 0 -3
BITMAP
00
00
00
00
00
4C
52
52
52
3E
10
10
12
12
0C
08
06
00
ENDCHAR

STARTCHAR CYRILLIC
ENCODING 1215
SWIDTH 500 0
DWIDTH 8 0
BBX 8 18 0 -3
BITMAP
00
00
00
00
00
00
00
4C
52
52
3E
10
10
12
0C
08
06
00
ENDCHAR

STARTCHAR CYRILLIC
ENCODING 1216
SWIDTH 500 0
DWIDTH 8 0
BBX 8 18 0 -3
BITMAP
00
00
00
00
00
3E
08
08
08
08
08
08
08
08
3E
00
00
00
ENDCHAR

STARTCHAR CYRILLIC
ENCODING 1217
SWIDTH 500 0
DWIDTH 8 0
BBX 8 18 0 -3
BITMAP
00
41
41
3E
00
49
49
2A
2A
1C
1C
2A
2A
49
49
00
00
00
ENDCHAR

STARTCHAR CYRILLIC
ENCODING 1218
SWIDTH 500 0
DWIDTH 8 0
BBX 8 18 0 -3
BITMAP
00
00
22
22
1C
00
00
49
49
2A
1C
1C
2A
49
49
00
00
00
ENDCHAR

STARTCHAR CYRILLIC
ENCODING 1219
SWIDTH 500 0
DWIDTH 8 0
BBX 8 18 0 -3
BITMAP
00
00
00
00
00
40
46
48
50
60
7C
42
42
42
42
02
0C
00
ENDCHAR

STARTCHAR CYRILLIC
ENCODING 1220
SWIDTH 500 0
DWIDTH 8 0
BBX 8 18 0 -3
BITMAP
00
00
00
00
00
00
00
46
48
50
60
7C
42
42
42
02
0C
00
ENDCHAR

STARTCHAR CYRILLIC
ENCODING 1223
SWIDTH 500 0
DWIDTH 8 0
BBX 8 18 0 -3
BITMAP
00
00
00
00
00
42
42
42
42
7E
42
42
42
42
42
02
0C
00
ENDCHAR

STARTCHAR CYRILLIC
ENCODING 1224
SWIDTH 500 0
DWIDTH 8 0
BBX 8 18 0 -3
BITMAP
00
00
00
00
00
00
00
42
42
42
7E
42
42
42
42
02
0C
00
ENDCHAR

STARTCHAR CYRILLIC
ENCODING 1227
SWIDTH 500 0
DWIDTH 8 0
BBX 8 18 0 -3
BITMAP
00
00
00
00
00
42
42
42
42
42
46
3A
02
02
06
04
04
00
ENDCHAR

STARTCHAR CYRILLIC
ENCODING 1228
SWIDTH 500 0
DWIDTH 8 0
BBX 8 18 0 -3
BITMAP
00
00
00
00
00
00
00
42
42
42
42
46
3A
02
06
04
04
00
ENDCHAR

STARTCHAR CYRILLIC
ENCODING 1232
SWIDTH 500 0
DWIDTH 8 0
BBX 8 18 0 -3
BITMAP
00
42
42
3C
00
18
24
24
42
42
7E
42
42
42
42
00
00
00
ENDCHAR

STARTCHAR CYRILLIC
ENCODING 1233
SWIDTH 500 0
DWIDTH 8 0
BBX 8 18 0 -3
BITMAP
00
00
42
42
3C
00
00
3C
42
02
3E
42
42
46
3A
00
00
00
ENDCHAR

STARTCHAR CYRILLIC
ENCODING 1234
SWIDTH 500 0
DWIDTH 8 0
BBX 8 18 0 -3
BITMAP
00
24
24
00
00
18
24
24
42
42
7E
42
42
42
42
00
00
00
ENDCHAR

STARTCHAR CYRILLIC
ENCODING 1235
SWIDTH 500 0
DWIDTH 8 0
BBX 8 18 0 -3
BITMAP
00
00
00
24
24
00
00
3C
42
02
3E
42
42
46
3A
00
00
00
ENDCHAR

STARTCHAR CYRILLIC
ENCODING 1236
SWIDTH 500 0
DWIDTH 8 0
BBX 8 18 0 -3
BITMAP
00
00
00
00
00
1F
28
48
48
7F
48
48
48
48
4F
00
00
00
ENDCHAR

STARTCHAR CYRILLIC
ENCODING 1237
SWIDTH 500 0
DWIDTH 8 0
BBX 8 18 0 -3
BITMAP
00
00
00
00
00
00
00
3E
49
09
3F
48
48
49
3E
00
00
00
ENDCHAR

STARTCHAR CYRILLIC
ENCODING 1238
SWIDTH 500 0
DWIDTH 8 0
BBX 8 18 0 -3
BITMAP
00
42
42
3C
00
7E
40
40
40
7C
40
40
40
40
7E
00
00
00
ENDCHAR

STARTCHAR CYRILLIC
ENCODING 1239
SWIDTH 500 0
DWIDTH 8 0
BBX 8 18 0 -3
BITMAP
00
00
00
42
42
3C
00
3C
42
42
7E
40
40
42
3C
00
00
00
ENDCHAR

STARTCHAR CYRILLIC
ENCODING 1240
SWIDTH 500 0
DWIDTH 8 0
BBX 8 18 0 -3
BITMAP
00
00
00
00
00
18
24
42
02
02
7E
42
42
24
18
00
00
00
ENDCHAR

STARTCHAR CYRILLIC
ENCODING 1241
SWIDTH 500 0
DWIDTH 8 0
BBX 8 18 0 -3
BITMAP
00
00
00
00
00
00
00
3C
42
02
02
7E
42
42
3C
00
00
00
ENDCHAR

STARTCHAR CYRILLIC
ENCODING 1242
SWIDTH 500 0
DWIDTH 8 0
BBX 8 18 0 -3
BITMAP
00
24
24
00
00
18
24
42
02
02
7E
42
42
24
18
00
00
00
ENDCHAR

STARTCHAR CYRILLIC
ENCODING 1243
SWIDTH 500 0
DWIDTH 8 0
BBX 8 18 0 -3
BITMAP
00
00
00
24
24
00
00
3C
42
02
02
7E
42
42
3C
00
00
00
ENDCHAR

STARTCHAR CYRILLIC
ENCODING 1244
SWIDTH 500 0
DWIDTH 8 0
BBX 8 18 0 -3
BITMAP
00
24
24
00
00
49
49
2A
2A
1C
1C
2A
2A
49
49
00
00
00
ENDCHAR

STARTCHAR CYRILLIC
ENCODING 1245
SWIDTH 500 0
DWIDTH 8 0
BBX 8 18 0 -3
BITMAP
00
00
00
24
24
00
00
49
49
2A
1C
1C
2A
49
49
00
00
00
ENDCHAR

STARTCHAR CYRILLIC
ENCODING 1246
SWIDTH 500 0
DWIDTH 8 0
BBX 8 18 0 -3
BITMAP
00
24
24
00
00
3C
42
02
02
3C
04
02
02
42
3C
00
00
00
ENDCHAR

STARTCHAR CYRILLIC
ENCODING 1247
SWIDTH 500 0
DWIDTH 8 0
BBX 8 18 0 -3
BITMAP
00
00
00
24
24
00
00
3C
42
02
3C
04
02
42
3C
00
00
00
ENDCHAR

STARTCHAR CYRILLIC
ENCODING 1248
SWIDTH 500 0
DWIDTH 8 0
BBX 8 18 0 -3
BITMAP
00
00
00
00
00
7E
04
08
10
1C
02
02
02
46
3C
00
00
00
ENDCHAR

STARTCHAR CYRILLIC
ENCODING 1249
SWIDTH 500 0
DWIDTH 8 0
BBX 8 18 0 -3
BITMAP
00
00
00
00
00
00
00
3E
04
08
10
1C
02
02
02
42
3C
00
ENDCHAR

STARTCHAR CYRILLIC
ENCODING 1250
SWIDTH 500 0
DWIDTH 8 0
BBX 8 18 0 -3
BITMAP
00
00
3C
00
00
42
46
46
4A
4A
52
52
62
62
42
00
00
00
ENDCHAR

STARTCHAR CYRILLIC
ENCODING 1251
SWIDTH 500 0
DWIDTH 8 0
BBX 8 18 0 -3
BITMAP
00
00
00
00
3C
00
00
46
46
4A
4A
52
52
62
62
00
00
00
ENDCHAR

STARTCHAR CYRILLIC
ENCODING 1252
SWIDTH 500 0
DWIDTH 8 0
BBX 8 18 0 -3
BITMAP
00
24
24
00
00
42
46
46
4A
4A
52
52
62
62
42
00
00
00
ENDCHAR

STARTCHAR CYRILLIC
ENCODING 1253
SWIDTH 500 0
DWIDTH 8 0
BBX 8 18 0 -3
BITMAP
00
00
00
24
24
00
00
46
46
4A
4A
52
52
62
62
00
00
00
ENDCHAR

STARTCHAR CYRILLIC
ENCODING 1254
SWIDTH 500 0
DWIDTH 8 0
BBX 8 18 0 -3
BITMAP
00
24
24
00
00
3C
42
42
42
42
42
42
42
42
3C
00
00
00
ENDCHAR

STARTCHAR CYRILLIC
ENCODING 1255
SWIDTH 500 0
DWIDTH 8 0
BBX 8 18 0 -3
BITMAP
00
00
00
24
24
00
00
3C
42
42
42
42
42
42
3C
00
00
00
ENDCHAR

STARTCHAR CYRILLIC
ENCODING 1256
SWIDTH 500 0
DWIDTH 8 0
BBX 8 18 0 -3
BITMAP
00
00
00
00
00
3C
42
42
42
7E
42
42
42
42
3C
00
00
00
ENDCHAR

STARTCHAR CYRILLIC
ENCODING 1257
SWIDTH 500 0
DWIDTH 8 0
BBX 8 18 0 -3
BITMAP
00
00
00
00
00
00
00
3C
42
42
7E
42
42
42
3C
00
00
00
ENDCHAR

STARTCHAR CYRILLIC
ENCODING 1258
SWIDTH 500 0
DWIDTH 8 0
BBX 8 18 0 -3
BITMAP
00
24
24
00
00
3C
42
42
42
7E
42
42
42
42
3C
00
00
00
ENDCHAR

STARTCHAR CYRILLIC
ENCODING 1259
SWIDTH 500 0
DWIDTH 8 0
BBX 8 18 0 -3
BITMAP
00
00
00
24
24
00
00
3C
42
42
7E
42
42
42
3C
00
00
00
ENDCHAR

STARTCHAR CYRILLIC
ENCODING 1262
SWIDTH 500 0
DWIDTH 8 0
BBX 8 18 0 -3
BITMAP
00
00
3E
00
00
41
41
22
22
14
14
08
08
10
30
00
00
00
ENDCHAR

STARTCHAR CYRILLIC
ENCODING 1263
SWIDTH 500 0
DWIDTH 8 0
BBX 8 18 0 -3
BITMAP
00
00
00
00
3C
00
00
42
42
24
24
18
18
10
10
20
60
00
ENDCHAR

STARTCHAR CYRILLIC
ENCODING 1264
SWIDTH 500 0
DWIDTH 8 0
BBX 8 18 0 -3
BITMAP
00
24
24
00
00
41
41
22
22
14
14
08
08
10
30
00
00
00
ENDCHAR

STARTCHAR CYRILLIC
ENCODING 1265
SWIDTH 500 0
DWIDTH 8 0
BBX 8 18 0 -3
BITMAP
00
00
00
24
24
00
00
42
42
24
24
18
18
10
10
20
60
00
ENDCHAR

STARTCHAR CYRILLIC
ENCODING 1266
SWIDTH 500 0
DWIDTH 8 0
BBX 8 18 0 -3
BITMAP
00
33
44
00
00
41
41
22
22
14
14
08
08
10
30
00
00
00
ENDCHAR

STARTCHAR CYRILLIC
ENCODING 1267
SWIDTH 500 0
DWIDTH 8 0
BBX 8 18 0 -3
BITMAP
00
00
00
33
44
00
00
42
42
24
24
18
18
10
10
20
60
00
ENDCHAR

STARTCHAR CYRILLIC
ENCODING 1268
SWIDTH 500 0
DWIDTH 8 0
BBX 8 18 0 -3
BITMAP
00
24
24
00
00
42
42
42
42
42
46
3A
02
02
02
00
00
00
ENDCHAR

STARTCHAR CYRILLIC
ENCODING 1269
SWIDTH 500 0
DWIDTH 8 0
BBX 8 18 0 -3
BITMAP
00
00
00
24
24
00
00
42
42
42
42
46
3A
02
02
00
00
00
ENDCHAR

STARTCHAR CYRILLIC
ENCODING 1272
SWIDTH 500 0
DWIDTH 8 0
BBX 8 18 0 -3
BITMAP
00
24
24
00
00
42
42
42
42
72
4A
4A
4A
4A
72
00
00
00
ENDCHAR

STARTCHAR CYRILLIC
ENCODING 1273
SWIDTH 500 0
DWIDTH 8 0
BBX 8 18 0 -3
BITMAP
00
00
00
24
24
00
00
42
42
42
72
4A
4A
4A
72
00
00
00
ENDCHAR

STARTCHAR ARMENIAN
ENCODING 1329
SWIDTH 500 0
DWIDTH 8 0
BBX 8 18 0 -3
BITMAP
00
00
00
00
00
44
44
44
44
44
44
44
47
45
38
00
00
00
ENDCHAR

STARTCHAR ARMENIAN
ENCODING 1330
SWIDTH 500 0
DWIDTH 8 0
BBX 8 18 0 -3
BITMAP
00
00
00
00
00
3C
42
42
40
7C
42
40
40
40
40
00
00
00
ENDCHAR

STARTCHAR ARMENIAN
ENCODING 1331
SWIDTH 500 0
DWIDTH 8 0
BBX 8 18 0 -3
BITMAP
00
00
00
00
00
38
44
44
44
44
3E
05
04
04
04
00
00
00
ENDCHAR

STARTCHAR ARMENIAN
ENCODING 1332
SWIDTH 500 0
DWIDTH 8 0
BBX 8 18 0 -3
BITMAP
00
00
00
00
00
38
44
44
04
04
06
05
04
04
04
00
00
00
ENDCHAR

STARTCHAR ARMENIAN
ENCODING 1333
SWIDTH 500 0
DWIDTH 8 0
BBX 8 18 0 -3
BITMAP
00
00
00
00
00
40
40
7C
42
40
40
40
42
42
3C
00
00
00
ENDCHAR

STARTCHAR ARMENIAN
ENCODING 1334
SWIDTH 500 0
DWIDTH 8 0
BBX 8 18 0 -3
BITMAP
00
00
00
00
00
1C
22
22
22
22
1C
04
08
10
7C
02
00
00
ENDCHAR

STARTCHAR ARMENIAN
ENCODING 1335
SWIDTH 500 0
DWIDTH 8 0
BBX 8 18 0 -3
BITMAP
00
00
00
00
00
40
40
40
7C
42
40
40
40
40
7C
02
00
00
ENDCHAR

STARTCHAR ARMENIAN
ENCODING 1336
SWIDTH 500 0
DWIDTH 8 0
BBX 8 18 0 -3
BITMAP
00
00
00
00
00
3C
42
42
40
40
40
40
40
40
7C
02
00
00
ENDCHAR

STARTCHAR ARMENIAN
ENCODING 1337
SWIDTH 500 0
DWIDTH 8 0
BBX 8 18 0 -3
BITMAP
00
00
00
00
00
38
44
44
4F
54
54
48
40
40
40
00
00
00
ENDCHAR

STARTCHAR ARMENIAN
ENCODING 1338
SWIDTH 500 0
DWIDTH 8 0
BBX 8 18 0 -3
BITMAP
00
00
00
00
00
04
04
04
04
3F
44
44
44
44
38
00
00
00
ENDCHAR

STARTCHAR ARMENIAN
ENCODING 1339
SWIDTH 500 0
DWIDTH 8 0
BBX 8 18 0 -3
BITMAP
00
00
00
00
00
40
40
5C
62
42
40
40
40
40
40
00
00
00
ENDCHAR

STARTCHAR ARMENIAN
ENCODING 1340
SWIDTH 500 0
DWIDTH 8 0
BBX 8 18 0 -3
BITMAP
00
00
00
00
00
40
40
40
40
40
40
40
40
40
7C
02
00
00
ENDCHAR

STARTCHAR ARMENIAN
ENCODING 1341
SWIDTH 500 0
DWIDTH 8 0
BBX 8 18 0 -3
BITMAP
00
00
00
00
00
40
40
40
79
49
49
46
40
40
40
00
00
00
ENDCHAR

STARTCHAR ARMENIAN
ENCODING 1342
SWIDTH 500 0
DWIDTH 8 0
BBX 8 18 0 -3
BITMAP
00
00
00
00
00
7E
18
24
42
42
42
42
42
24
18
00
00
00
ENDCHAR

STARTCHAR ARMENIAN
ENCODING 1343
SWIDTH 500 0
DWIDTH 8 0
BBX 8 18 0 -3
BITMAP
00
00
00
00
00
42
42
42
42
42
42
42
3E
02
02
00
00
00
ENDCHAR

STARTCHAR ARMENIAN
ENCODING 1344
SWIDTH 500 0
DWIDTH 8 0
BBX 8 18 0 -3
BITMAP
00
00
00
00
00
08
10
10
08
10
20
40
60
18
06
00
00
00
ENDCHAR

STARTCHAR ARMENIAN
ENCODING 1345
SWIDTH 500 0
DWIDTH 8 0
BBX 8 18 0 -3
BITMAP
00
00
00
00
00
1C
22
22
22
22
1C
24
58
48
36
00
00
00
ENDCHAR

STARTCHAR ARMENIAN
ENCODING 1346
SWIDTH 500 0
DWIDTH 8 0
BBX 8 18 0 -3
BITMAP
00
00
00
00
00
38
44
44
04
04
04
04
04
04
06
01
00
00
ENDCHAR

STARTCHAR ARMENIAN
ENCODING 1347
SWIDTH 500 0
DWIDTH 8 0
BBX 8 18 0 -3
BITMAP
00
00
00
00
00
04
64
18
24
24
42
42
42
42
7E
00
00
00
ENDCHAR

STARTCHAR ARMENIAN
ENCODING 1348
SWIDTH 500 0
DWIDTH 8 0
BBX 8 18 0 -3
BITMAP
00
00
00
00
00
47
45
44
44
44
44
44
44
44
38
00
00
00
ENDCHAR

STARTCHAR ARMENIAN
ENCODING 1349
SWIDTH 500 0
DWIDTH 8 0
BBX 8 18 0 -3
BITMAP
00
00
00
00
00
1C
22
02
42
7C
42
02
02
22
1C
00
00
00
ENDCHAR

STARTCHAR ARMENIAN
ENCODING 1350
SWIDTH 500 0
DWIDTH 8 0
BBX 8 18 0 -3
BITMAP
00
00
00
00
00
40
30
10
10
10
10
10
10
11
11
0E
00
00
ENDCHAR

STARTCHAR ARMENIAN
ENCODING 1351
SWIDTH 500 0
DWIDTH 8 0
BBX 8 18 0 -3
BITMAP
00
00
00
00
40
3C
20
40
40
42
42
42
42
42
3C
00
00
00
ENDCHAR

STARTCHAR ARMENIAN
ENCODING 1352
SWIDTH 500 0
DWIDTH 8 0
BBX 8 18 0 -3
BITMAP
00
00
00
00
00
3C
42
42
42
42
42
42
42
42
42
00
00
00
ENDCHAR

STARTCHAR ARMENIAN
ENCODING 1353
SWIDTH 500 0
DWIDTH 8 0
BBX 8 18 0 -3
BITMAP
00
00
00
00
00
1C
22
22
22
22
1C
08
08
10
7E
00
00
00
ENDCHAR

STARTCHAR ARMENIAN
ENCODING 1354
SWIDTH 500 0
DWIDTH 8 0
BBX 8 18 0 -3
BITMAP
00
00
00
00
00
3E
49
49
49
49
09
09
01
01
01
00
00
00
ENDCHAR

STARTCHAR ARMENIAN
ENCODING 1355
SWIDTH 500 0
DWIDTH 8 0
BBX 8 18 0 -3
BITMAP
00
00
00
00
00
1C
22
22
22
22
14
0C
08
10
7C
02
00
00
ENDCHAR

STARTCHAR ARMENIAN
ENCODING 1356
SWIDTH 500 0
DWIDTH 8 0
BBX 8 18 0 -3
BITMAP
00
00
00
00
00
38
44
44
47
45
44
44
44
44
44
00
00
00
ENDCHAR

STARTCHAR ARMENIAN
ENCODING 1357
SWIDTH 500 0
DWIDTH 8 0
BBX 8 18 0 -3
BITMAP
00
00
00
00
00
42
42
42
42
42
42
42
42
42
3C
00
00
00
ENDCHAR

STARTCHAR ARMENIAN
ENCODING 1358
SWIDTH 500 0
DWIDTH 8 0
BBX 8 18 0 -3
BITMAP
00
00
00
00
00
44
44
44
44
44
44
44
3C
04
06
01
00
00
ENDCHAR

STARTCHAR ARMENIAN
ENCODING 1359
SWIDTH 500 0
DWIDTH 8 0
BBX 8 18 0 -3
BITMAP
00
00
00
00
00
3C
42
42
40
30
0C
02
42
42
3C
00
00
00
ENDCHAR

STARTCHAR ARMENIAN
ENCODING 1360
SWIDTH 500 0
DWIDTH 8 0
BBX 8 18 0 -3
BITMAP
00
00
00
00
00
3C
42
42
40
40
40
40
40
40
40
00
00
00
ENDCHAR

STARTCHAR ARMENIAN
ENCODING 1361
SWIDTH 500 0
DWIDTH 8 0
BBX 8 18 0 -3
BITMAP
00
00
00
00
00
3C
42
42
42
3C
42
02
02
42
3C
00
00
00
ENDCHAR

STARTCHAR ARMENIAN
ENCODING 1362
SWIDTH 500 0
DWIDTH 8 0
BBX 8 18 0 -3
BITMAP
00
00
00
00
00
40
40
58
64
44
44
43
40
40
40
00
00
00
ENDCHAR

STARTCHAR ARMENIAN
ENCODING 1363
SWIDTH 500 0
DWIDTH 8 0
BBX 8 18 0 -3
BITMAP
00
00
00
00
00
10
38
54
54
54
54
54
54
38
10
00
00
00
ENDCHAR

STARTCHAR ARMENIAN
ENCODING 1364
SWIDTH 500 0
DWIDTH 8 0
BBX 8 18 0 -3
BITMAP
00
00
00
00
00
0C
12
12
12
1C
10
7C
10
10
10
00
00
00
ENDCHAR

STARTCHAR ARMENIAN
ENCODING 1365
SWIDTH 500 0
DWIDTH 8 0
BBX 8 18 0 -3
BITMAP
00
00
00
00
00
3C
42
42
42
42
42
42
42
42
3C
00
00
00
ENDCHAR

STARTCHAR ARMENIAN
ENCODING 1366
SWIDTH 500 0
DWIDTH 8 0
BBX 8 18 0 -3
BITMAP
00
00
00
00
00
38
48
48
38
0E
09
09
09
49
3E
00
00
00
ENDCHAR

STARTCHAR ARMENIAN
ENCODING 1369
SWIDTH 500 0
DWIDTH 8 0
BBX 8 18 0 -3
BITMAP
00
10
20
20
10
00
00
00
00
00
00
00
00
00
00
00
00
00
ENDCHAR

STARTCHAR ARMENIAN
ENCODING 1370
SWIDTH 500 0
DWIDTH 8 0
BBX 8 18 0 -3
BITMAP
00
20
10
10
20
00
00
00
00
00
00
00
00
00
00
00
00
00
ENDCHAR

STARTCHAR ARMENIAN
ENCODING 1371
SWIDTH 500 0
DWIDTH 8 0
BBX 8 18 0 -3
BITMAP
00
08
18
30
00
00
00
00
00
00
00
00
00
00
00
00
00
00
ENDCHAR

STARTCHAR ARMENIAN
ENCODING 1372
SWIDTH 500 0
DWIDTH 8 0
BBX 8 18 0 -3
BITMAP
00
0C
30
00
00
00
00
00
00
00
00
00
00
00
00
00
00
00
ENDCHAR

STARTCHAR ARMENIAN
ENCODING 1373
SWIDTH 500 0
DWIDTH 8 0
BBX 8 18 0 -3
BITMAP
00
20
10
08
00
00
00
00
00
00
00
00
00
00
00
00
00
00
ENDCHAR

STARTCHAR ARMENIAN
ENCODING 1374
SWIDTH 500 0
DWIDTH 8 0
BBX 8 18 0 -3
BITMAP
00
38
44
54
18
00
00
00
00
00
00
00
00
00
00
00
00
00
ENDCHAR

STARTCHAR ARMENIAN
ENCODING 1375
SWIDTH 500 0
DWIDTH 8 0
BBX 8 18 0 -3
BITMAP
00
30
50
40
3C
00
00
00
00
00
00
00
00
00
00
00
00
00
ENDCHAR

STARTCHAR ARMENIAN
ENCODING 1377
SWIDTH 500 0
DWIDTH 8 0
BBX 8 18 0 -3
BITMAP
00
00
00
00
00
00
00
49
49
49
49
49
49
49
37
00
00
00
ENDCHAR

STARTCHAR ARMENIAN
ENCODING 1378
SWIDTH 500 0
DWIDTH 8 0
BBX 8 18 0 -3
BITMAP
00
00
00
00
00
00
00
00
5C
62
42
42
40
7E
40
40
40
00
ENDCHAR

STARTCHAR ARMENIAN
ENCODING 1379
SWIDTH 500 0
DWIDTH 8 0
BBX 8 18 0 -3
BITMAP
00
00
00
00
00
00
00
34
4C
44
44
44
44
3F
04
04
04
00
ENDCHAR

STARTCHAR ARMENIAN
ENCODING 1380
SWIDTH 500 0
DWIDTH 8 0
BBX 8 18 0 -3
BITMAP
00
00
00
00
00
00
00
58
64
44
44
44
44
44
47
04
04
00
ENDCHAR

STARTCHAR ARMENIAN
ENCODING 1381
SWIDTH 500 0
DWIDTH 8 0
BBX 8 18 0 -3
BITMAP
00
00
00
00
00
00
40
40
40
7E
40
42
42
62
5C
00
00
00
ENDCHAR

STARTCHAR ARMENIAN
ENCODING 1382
SWIDTH 500 0
DWIDTH 8 0
BBX 8 18 0 -3
BITMAP
00
00
00
00
00
00
00
34
4C
44
44
44
44
3C
04
04
07
00
ENDCHAR

STARTCHAR ARMENIAN
ENCODING 1383
SWIDTH 500 0
DWIDTH 8 0
BBX 8 18 0 -3
BITMAP
00
00
00
00
00
40
40
7C
40
40
40
40
40
40
38
04
00
00
ENDCHAR

STARTCHAR ARMENIAN
ENCODING 1384
SWIDTH 500 0
DWIDTH 8 0
BBX 8 18 0 -3
BITMAP
00
00
00
00
00
00
00
5C
62
42
42
42
42
42
42
40
7E
00
ENDCHAR

STARTCHAR ARMENIAN
ENCODING 1385
SWIDTH 500 0
DWIDTH 8 0
BBX 8 18 0 -3
BITMAP
00
00
00
00
00
00
00
58
64
44
4F
54
54
48
40
40
40
00
ENDCHAR

STARTCHAR ARMENIAN
ENCODING 1386
SWIDTH 500 0
DWIDTH 8 0
BBX 8 18 0 -3
BITMAP
00
00
00
00
00
04
04
04
3F
44
44
44
44
44
38
00
00
00
ENDCHAR

STARTCHAR ARMENIAN
ENCODING 1387
SWIDTH 500 0
DWIDTH 8 0
BBX 8 18 0 -3
BITMAP
00
00
00
00
00
40
40
5C
62
42
42
42
42
42
42
40
40
00
ENDCHAR

STARTCHAR ARMENIAN
ENCODING 1388
SWIDTH 500 0
DWIDTH 8 0
BBX 8 18 0 -3
BITMAP
00
00
00
00
00
00
00
40
40
40
40
40
40
40
40
40
7C
00
ENDCHAR

STARTCHAR ARMENIAN
ENCODING 1389
SWIDTH 500 0
DWIDTH 8 0
BBX 8 18 0 -3
BITMAP
00
00
00
00
00
40
40
40
79
49
49
49
49
46
40
40
40
00
ENDCHAR

STARTCHAR ARMENIAN
ENCODING 1390
SWIDTH 500 0
DWIDTH 8 0
BBX 8 18 0 -3
BITMAP
00
00
00
00
00
70
08
04
3F
44
44
44
44
44
38
00
00
00
ENDCHAR

STARTCHAR ARMENIAN
ENCODING 1391
SWIDTH 500 0
DWIDTH 8 0
BBX 8 18 0 -3
BITMAP
00
00
00
00
00
40
40
42
42
42
42
42
42
42
3E
02
02
00
ENDCHAR

STARTCHAR ARMENIAN
ENCODING 1392
SWIDTH 500 0
DWIDTH 8 0
BBX 8 18 0 -3
BITMAP
00
00
00
00
00
40
40
40
5C
62
42
42
42
42
42
00
00
00
ENDCHAR

STARTCHAR ARMENIAN
ENCODING 1393
SWIDTH 500 0
DWIDTH 8 0
BBX 8 18 0 -3
BITMAP
00
00
00
00
00
08
10
08
3E
42
42
42
42
42
3E
00
00
00
ENDCHAR

STARTCHAR ARMENIAN
ENCODING 1394
SWIDTH 500 0
DWIDTH 8 0
BBX 8 18 0 -3
BITMAP
00
00
00
00
00
00
00
58
64
44
44
44
44
44
44
04
07
00
ENDCHAR

STARTCHAR ARMENIAN
ENCODING 1395
SWIDTH 500 0
DWIDTH 8 0
BBX 8 18 0 -3
BITMAP
00
00
00
00
00
0E
11
10
7F
11
11
11
11
13
0D
00
00
00
ENDCHAR

STARTCHAR ARMENIAN
ENCODING 1396
SWIDTH 500 0
DWIDTH 8 0
BBX 8 18 0 -3
BITMAP
00
00
00
00
00
02
05
04
44
44
44
44
44
4C
34
00
00
00
ENDCHAR

STARTCHAR ARMENIAN
ENCODING 1397
SWIDTH 500 0
DWIDTH 8 0
BBX 8 18 0 -3
BITMAP
00
00
00
00
00
00
00
0C
04
04
04
04
04
04
04
48
30
00
ENDCHAR

STARTCHAR ARMENIAN
ENCODING 1398
SWIDTH 500 0
DWIDTH 8 0
BBX 8 18 0 -3
BITMAP
00
00
00
00
00
3C
42
40
42
42
42
42
42
46
3A
00
00
00
ENDCHAR

STARTCHAR ARMENIAN
ENCODING 1399
SWIDTH 500 0
DWIDTH 8 0
BBX 8 18 0 -3
BITMAP
00
00
00
00
00
38
44
04
08
08
10
10
20
20
3F
00
00
00
ENDCHAR

STARTCHAR ARMENIAN
ENCODING 1400
SWIDTH 500 0
DWIDTH 8 0
BBX 8 18 0 -3
BITMAP
00
00
00
00
00
00
00
5C
62
42
42
42
42
42
42
00
00
00
ENDCHAR

STARTCHAR ARMENIAN
ENCODING 1401
SWIDTH 500 0
DWIDTH 8 0
BBX 8 18 0 -3
BITMAP
00
00
00
00
00
10
20
10
08
08
10
10
20
20
3F
00
00
00
ENDCHAR

STARTCHAR ARMENIAN
ENCODING 1402
SWIDTH 500 0
DWIDTH 8 0
BBX 8 18 0 -3
BITMAP
00
00
00
00
00
00
00
49
49
49
49
49
49
49
37
01
01
00
ENDCHAR

STARTCHAR ARMENIAN
ENCODING 1403
SWIDTH 500 0
DWIDTH 8 0
BBX 8 18 0 -3
BITMAP
00
00
00
00
00
38
44
44
48
28
10
10
20
20
3F
00
00
00
ENDCHAR

STARTCHAR ARMENIAN
ENCODING 1404
SWIDTH 500 0
DWIDTH 8 0
BBX 8 18 0 -3
BITMAP
00
00
00
00
00
00
00
58
64
44
44
44
44
44
47
00
00
00
ENDCHAR

STARTCHAR ARMENIAN
ENCODING 1405
SWIDTH 500 0
DWIDTH 8 0
BBX 8 18 0 -3
BITMAP
00
00
00
00
00
00
00
42
42
42
42
42
42
46
3A
00
00
00
ENDCHAR

STARTCHAR ARMENIAN
ENCODING 1406
SWIDTH 500 0
DWIDTH 8 0
BBX 8 18 0 -3
BITMAP
00
00
00
00
00
04
04
04
44
44
44
44
44
4C
34
04
07
00
ENDCHAR

STARTCHAR ARMENIAN
ENCODING 1407
SWIDTH 500 0
DWIDTH 8 0
BBX 8 18 0 -3
BITMAP
00
00
00
00
00
00
00
4A
4D
49
49
49
49
59
29
00
00
00
ENDCHAR

STARTCHAR ARMENIAN
ENCODING 1408
SWIDTH 500 0
DWIDTH 8 0
BBX 8 18 0 -3
BITMAP
00
00
00
00
00
00
00
5C
62
42
42
42
42
42
42
40
40
00
ENDCHAR

STARTCHAR ARMENIAN
ENCODING 1409
SWIDTH 500 0
DWIDTH 8 0
BBX 8 18 0 -3
BITMAP
00
00
00
00
00
00
00
3A
46
42
42
42
46
3A
02
42
3C
00
ENDCHAR

STARTCHAR ARMENIAN
ENCODING 1410
SWIDTH 500 0
DWIDTH 8 0
BBX 8 18 0 -3
BITMAP
00
00
00
00
00
00
00
18
08
08
08
08
08
08
0E
00
00
00
ENDCHAR

STARTCHAR ARMENIAN
ENCODING 1411
SWIDTH 500 0
DWIDTH 8 0
BBX 8 18 0 -3
BITMAP
00
00
00
00
00
08
08
4A
4D
49
49
49
49
59
29
08
08
00
ENDCHAR

STARTCHAR ARMENIAN
ENCODING 1412
SWIDTH 500 0
DWIDTH 8 0
BBX 8 18 0 -3
BITMAP
00
00
00
00
0E
11
10
10
7C
10
10
10
10
10
10
00
00
00
ENDCHAR

STARTCHAR ARMENIAN
ENCODING 1413
SWIDTH 500 0
DWIDTH 8 0
BBX 8 18 0 -3
BITMAP
00
00
00
00
00
00
00
3C
42
42
42
42
42
42
3C
00
00
00
ENDCHAR

STARTCHAR ARMENIAN
ENCODING 1414
SWIDTH 500 0
DWIDTH 8 0
BBX 8 18 0 -3
BITMAP
00
00
00
00
00
38
48
48
38
0E
09
09
09
49
3E
08
08
00
ENDCHAR

STARTCHAR ARMENIAN
ENCODING 1415
SWIDTH 500 0
DWIDTH 8 0
BBX 8 18 0 -3
BITMAP
00
00
00
00
00
40
40
40
44
44
44
44
44
44
3B
00
00
00
ENDCHAR

STARTCHAR ARMENIAN
ENCODING 1417
SWIDTH 500 0
DWIDTH 8 0
BBX 8 18 0 -3
BITMAP
00
00
00
00
00
00
00
18
18
00
00
00
18
18
00
00
00
00
ENDCHAR

STARTCHAR HEBREW
ENCODING 1488
SWIDTH 500 0
DWIDTH 8 0
BBX 8 18 0 -3
BITMAP
00
00
00
00
00
00
46
42
22
12
2C
48
44
42
42
00
00
00
ENDCHAR

STARTCHAR HEBREW
ENCODING 1489
SWIDTH 500 0
DWIDTH 8 0
BBX 8 18 0 -3
BITMAP
00
00
00
00
00
00
7C
04
04
04
04
04
04
04
7F
00
00
00
ENDCHAR

STARTCHAR HEBREW
ENCODING 1490
SWIDTH 500 0
DWIDTH 8 0
BBX 8 18 0 -3
BITMAP
00
00
00
00
00
00
30
08
08
08
04
0C
14
22
42
00
00
00
ENDCHAR

STARTCHAR HEBREW
ENCODING 1491
SWIDTH 500 0
DWIDTH 8 0
BBX 8 18 0 -3
BITMAP
00
00
00
00
00
00
7E
04
04
04
04
04
04
04
04
00
00
00
ENDCHAR

STARTCHAR HEBREW
ENCODING 1492
SWIDTH 500 0
DWIDTH 8 0
BBX 8 18 0 -3
BITMAP
00
00
00
00
00
00
7E
02
02
22
22
22
22
22
22
00
00
00
ENDCHAR

STARTCHAR HEBREW
ENCODING 1493
SWIDTH 500 0
DWIDTH 8 0
BBX 8 18 0 -3
BITMAP
00
00
00
00
00
00
38
08
08
08
08
08
08
08
08
00
00
00
ENDCHAR

STARTCHAR HEBREW
ENCODING 1494
SWIDTH 500 0
DWIDTH 8 0
BBX 8 18 0 -3
BITMAP
00
00
00
00
00
00
30
0C
0A
08
08
08
08
08
08
00
00
00
ENDCHAR

STARTCHAR HEBREW
ENCODING 1495
SWIDTH 500 0
DWIDTH 8 0
BBX 8 18 0 -3
BITMAP
00
00
00
00
00
00
7E
22
22
22
22
22
22
22
22
00
00
00
ENDCHAR

STARTCHAR HEBREW
ENCODING 1496
SWIDTH 500 0
DWIDTH 8 0
BBX 8 18 0 -3
BITMAP
00
00
00
00
00
00
46
4A
42
42
42
42
42
42
7E
00
00
00
ENDCHAR

STARTCHAR HEBREW
ENCODING 1497
SWIDTH 500 0
DWIDTH 8 0
BBX 8 18 0 -3
BITMAP
00
00
00
00
00
00
38
08
08
08
00
00
00
00
00
00
00
00
ENDCHAR

STARTCHAR HEBREW
ENCODING 1498
SWIDTH 500 0
DWIDTH 8 0
BBX 8 18 0 -3
BITMAP
00
00
00
00
00
00
7E
02
02
02
02
02
02
02
02
02
02
00
ENDCHAR

STARTCHAR HEBREW
ENCODING 1499
SWIDTH 500 0
DWIDTH 8 0
BBX 8 18 0 -3
BITMAP
00
00
00
00
00
00
7E
02
02
02
02
02
02
02
7C
00
00
00
ENDCHAR

STARTCHAR HEBREW
ENCODING 1500
SWIDTH 500 0
DWIDTH 8 0
BBX 8 18 0 -3
BITMAP
00
00
00
00
20
20
3E
02
02
02
02
04
04
08
30
00
00
00
ENDCHAR

STARTCHAR HEBREW
ENCODING 1501
SWIDTH 500 0
DWIDTH 8 0
BBX 8 18 0 -3
BITMAP
00
00
00
00
00
00
FE
22
22
22
22
22
22
22
3E
00
00
00
ENDCHAR

STARTCHAR HEBREW
ENCODING 1502
SWIDTH 500 0
DWIDTH 8 0
BBX 8 18 0 -3
BITMAP
00
00
00
00
00
00
48
48
34
14
22
22
41
41
4F
00
00
00
ENDCHAR

STARTCHAR HEBREW
ENCODING 1503
SWIDTH 500 0
DWIDTH 8 0
BBX 8 18 0 -3
BITMAP
00
00
00
00
00
00
38
08
08
08
08
08
08
08
08
08
08
00
ENDCHAR

STARTCHAR HEBREW
ENCODING 1504
SWIDTH 500 0
DWIDTH 8 0
BBX 8 18 0 -3
BITMAP
00
00
00
00
00
00
1C
04
04
04
04
04
04
04
3C
00
00
00
ENDCHAR

STARTCHAR HEBREW
ENCODING 1505
SWIDTH 500 0
DWIDTH 8 0
BBX 8 18 0 -3
BITMAP
00
00
00
00
00
00
7E
42
42
42
42
42
42
44
78
00
00
00
ENDCHAR

STARTCHAR HEBREW
ENCODING 1506
SWIDTH 500 0
DWIDTH 8 0
BBX 8 18 0 -3
BITMAP
00
00
00
00
00
00
12
12
12
12
12
12
12
12
FE
00
00
00
ENDCHAR

STARTCHAR HEBREW
ENCODING 1507
SWIDTH 500 0
DWIDTH 8 0
BBX 8 18 0 -3
BITMAP
00
00
00
00
00
00
7E
42
42
42
72
02
02
02
02
02
02
00
ENDCHAR

STARTCHAR HEBREW
ENCODING 1508
SWIDTH 500 0
DWIDTH 8 0
BBX 8 18 0 -3
BITMAP
00
00
00
00
00
00
7E
42
42
42
72
02
02
02
7E
00
00
00
ENDCHAR

STARTCHAR HEBREW
ENCODING 1509
SWIDTH 500 0
DWIDTH 8 0
BBX 8 18 0 -3
BITMAP
00
00
00
00
00
00
22
22
24
28
30
20
20
20
20
20
20
00
ENDCHAR

STARTCHAR HEBREW
ENCODING 1510
SWIDTH 500 0
DWIDTH 8 0
BBX 8 18 0 -3
BITMAP
00
00
00
00
00
00
42
42
24
18
08
04
02
02
7E
00
00
00
ENDCHAR

STARTCHAR HEBREW
ENCODING 1511
SWIDTH 500 0
DWIDTH 8 0
BBX 8 18 0 -3
BITMAP
00
00
00
00
00
00
7E
22
22
24
24
28
20
20
20
20
20
00
ENDCHAR

STARTCHAR HEBREW
ENCODING 1512
SWIDTH 500 0
DWIDTH 8 0
BBX 8 18 0 -3
BITMAP
00
00
00
00
00
00
7E
02
02
02
02
02
02
02
02
00
00
00
ENDCHAR

STARTCHAR HEBREW
ENCODING 1513
SWIDTH 500 0
DWIDTH 8 0
BBX 8 18 0 -3
BITMAP
00
00
00
00
00
00
49
49
49
49
49
49
49
49
7F
00
00
00
ENDCHAR

STARTCHAR HEBREW
ENCODING 1514
SWIDTH 500 0
DWIDTH 8 0
BBX 8 18 0 -3
BITMAP
00
00
00
00
00
00
3E
22
22
22
22
22
22
22
62
00
00
00
ENDCHAR

STARTCHAR ARABIC
ENCODING 1548
SWIDTH 500 0
DWIDTH 8 0
BBX 8 18 0 -3
BITMAP
00
00
00
00
00
00
08
10
18
18
00
00
00
00
00
00
00
00
ENDCHAR

STARTCHAR ARABIC
ENCODING 1563
SWIDTH 500 0
DWIDTH 8 0
BBX 8 18 0 -3
BITMAP
00
00
00
00
00
00
08
10
18
00
18
00
00
00
00
00
00
00
ENDCHAR

STARTCHAR ARABIC
ENCODING 1567
SWIDTH 500 0
DWIDTH 8 0
BBX 8 18 0 -3
BITMAP
00
00
3E
41
40
20
10
08
08
00
08
00
00
00
00
00
00
00
ENDCHAR

STARTCHAR ARABIC
ENCODING 1569
SWIDTH 500 0
DWIDTH 8 0
BBX 8 18 0 -3
BITMAP
00
00
00
00
00
00
0E
10
16
08
10
00
00
00
00
00
00
00
ENDCHAR

STARTCHAR ARABIC
ENCODING 1570
SWIDTH 500 0
DWIDTH 8 0
BBX 8 18 0 -3
BITMAP
00
1E
60
08
0C
0C
08
08
08
08
00
00
00
00
00
00
00
00
ENDCHAR

STARTCHAR ARABIC
ENCODING 1571
SWIDTH 500 0
DWIDTH 8 0
BBX 8 18 0 -3
BITMAP
00
30
40
24
46
04
04
04
04
04
00
00
00
00
00
00
00
00
ENDCHAR

STARTCHAR ARABIC
ENCODING 1572
SWIDTH 500 0
DWIDTH 8 0
BBX 8 18 0 -3
BITMAP
00
00
30
40
30
40
06
09
09
0F
01
02
44
38
00
00
00
00
ENDCHAR

STARTCHAR ARABIC
ENCODING 1573
SWIDTH 500 0
DWIDTH 8 0
BBX 8 18 0 -3
BITMAP
00
00
00
04
06
04
04
34
44
24
40
00
00
00
00
00
00
00
ENDCHAR

STARTCHAR ARABIC
ENCODING 1574
SWIDTH 500 0
DWIDTH 8 0
BBX 8 18 0 -3
BITMAP
00
00
00
00
03
04
02
04
00
0C
58
8C
84
78
00
00
00
00
ENDCHAR

STARTCHAR ARABIC
ENCODING 1575
SWIDTH 500 0
DWIDTH 8 0
BBX 8 18 0 -3
BITMAP
00
00
10
18
18
10
10
10
10
10
00
00
00
00
00
00
00
00
ENDCHAR

STARTCHAR ARABIC
ENCODING 1576
SWIDTH 500 0
DWIDTH 8 0
BBX 8 18 0 -3
BITMAP
00
00
00
00
00
00
02
41
81
7E
00
00
10
00
00
00
00
00
ENDCHAR

STARTCHAR ARABIC
ENCODING 1577
SWIDTH 500 0
DWIDTH 8 0
BBX 8 18 0 -3
BITMAP
00
00
12
00
00
0C
12
11
11
0E
00
00
00
00
00
00
00
00
ENDCHAR

STARTCHAR ARABIC
ENCODING 1578
SWIDTH 500 0
DWIDTH 8 0
BBX 8 18 0 -3
BITMAP
00
00
00
24
00
00
02
41
81
7E
00
00
00
00
00
00
00
00
ENDCHAR

STARTCHAR ARABIC
ENCODING 1579
SWIDTH 500 0
DWIDTH 8 0
BBX 8 18 0 -3
BITMAP
00
10
00
24
00
00
02
41
81
7E
00
00
00
00
00
00
00
00
ENDCHAR

STARTCHAR ARABIC
ENCODING 1580
SWIDTH 500 0
DWIDTH 8 0
BBX 8 18 0 -3
BITMAP
00
00
00
00
00
00
00
FC
23
40
80
88
80
41
3E
00
00
00
ENDCHAR

STARTCHAR ARABIC
ENCODING 1581
SWIDTH 500 0
DWIDTH 8 0
BBX 8 18 0 -3
BITMAP
00
00
00
00
00
00
00
FC
23
40
80
80
80
41
3E
00
00
00
ENDCHAR

STARTCHAR ARABIC
ENCODING 1582
SWIDTH 500 0
DWIDTH 8 0
BBX 8 18 0 -3
BITMAP
00
00
00
00
10
00
00
FC
23
40
80
80
80
41
3E
00
00
00
ENDCHAR

STARTCHAR ARABIC
ENCODING 1583
SWIDTH 500 0
DWIDTH 8 0
BBX 8 18 0 -3
BITMAP
00
00
00
00
00
04
02
01
21
3E
00
00
00
00
00
00
00
00
ENDCHAR

STARTCHAR ARABIC
ENCODING 1584
SWIDTH 500 0
DWIDTH 8 0
BBX 8 18 0 -3
BITMAP
00
00
00
10
00
04
02
01
21
3E
00
00
00
00
00
00
00
00
ENDCHAR

STARTCHAR ARABIC
ENCODING 1585
SWIDTH 500 0
DWIDTH 8 0
BBX 8 18 0 -3
BITMAP
00
00
00
00
00
00
00
02
01
01
01
02
44
38
00
00
00
00
ENDCHAR

STARTCHAR ARABIC
ENCODING 1586
SWIDTH 500 0
DWIDTH 8 0
BBX 8 18 0 -3
BITMAP
00
00
00
00
08
00
00
02
01
01
01
02
44
38
00
00
00
00
ENDCHAR

STARTCHAR ARABIC
ENCODING 1587
SWIDTH 500 0
DWIDTH 8 0
BBX 8 18 0 -3
BITMAP
00
00
00
00
00
00
02
91
49
76
40
40
80
00
00
00
00
00
ENDCHAR

STARTCHAR ARABIC
ENCODING 1588
SWIDTH 500 0
DWIDTH 8 0
BBX 8 18 0 -3
BITMAP
00
00
20
00
48
00
02
91
49
76
40
40
80
00
00
00
00
00
ENDCHAR

STARTCHAR ARABIC
ENCODING 1589
SWIDTH 500 0
DWIDTH 8 0
BBX 8 18 0 -3
BITMAP
00
00
00
00
00
00
0E
91
61
7E
40
40
80
00
00
00
00
00
ENDCHAR

STARTCHAR ARABIC
ENCODING 1590
SWIDTH 500 0
DWIDTH 8 0
BBX 8 18 0 -3
BITMAP
00
00
00
00
20
00
0E
91
61
7E
40
40
80
00
00
00
00
00
ENDCHAR

STARTCHAR ARABIC
ENCODING 1591
SWIDTH 500 0
DWIDTH 8 0
BBX 8 18 0 -3
BITMAP
00
00
20
20
20
20
2E
31
21
FE
00
00
00
00
00
00
00
00
ENDCHAR

STARTCHAR ARABIC
ENCODING 1592
SWIDTH 500 0
DWIDTH 8 0
BBX 8 18 0 -3
BITMAP
00
00
20
24
20
20
2E
31
21
FE
00
00
00
00
00
00
00
00
ENDCHAR

STARTCHAR ARABIC
ENCODING 1593
SWIDTH 500 0
DWIDTH 8 0
BBX 8 18 0 -3
BITMAP
00
00
00
00
0E
11
10
08
1F
20
40
80
80
80
41
3E
00
00
ENDCHAR

STARTCHAR ARABIC
ENCODING 1594
SWIDTH 500 0
DWIDTH 8 0
BBX 8 18 0 -3
BITMAP
00
00
04
00
0E
11
10
08
1F
20
40
80
80
80
41
3E
00
00
ENDCHAR

STARTCHAR ARABIC
ENCODING 1600
SWIDTH 500 0
DWIDTH 8 0
BBX 8 18 0 -3
BITMAP
00
00
00
00
00
00
00
00
00
FF
00
00
00
00
00
00
00
00
ENDCHAR

STARTCHAR ARABIC
ENCODING 1601
SWIDTH 500 0
DWIDTH 8 0
BBX 8 18 0 -3
BITMAP
00
00
04
00
00
0E
09
45
83
7E
00
00
00
00
00
00
00
00
ENDCHAR

STARTCHAR ARABIC
ENCODING 1602
SWIDTH 500 0
DWIDTH 8 0
BBX 8 18 0 -3
BITMAP
00
00
00
12
00
00
0E
09
45
83
81
82
7C
00
00
00
00
00
ENDCHAR

STARTCHAR ARABIC
ENCODING 1603
SWIDTH 500 0
DWIDTH 8 0
BBX 8 18 0 -3
BITMAP
00
00
01
09
11
09
41
81
81
7E
00
00
00
00
00
00
00
00
ENDCHAR

STARTCHAR ARABIC
ENCODING 1604
SWIDTH 500 0
DWIDTH 8 0
BBX 8 18 0 -3
BITMAP
00
00
01
01
01
01
01
01
41
81
81
82
7C
00
00
00
00
00
ENDCHAR

STARTCHAR ARABIC
ENCODING 1605
SWIDTH 500 0
DWIDTH 8 0
BBX 8 18 0 -3
BITMAP
00
00
00
00
00
0E
11
09
7F
80
80
40
40
20
20
00
00
00
ENDCHAR

STARTCHAR ARABIC
ENCODING 1606
SWIDTH 500 0
DWIDTH 8 0
BBX 8 18 0 -3
BITMAP
00
00
00
00
08
00
00
02
41
81
81
82
7C
00
00
00
00
00
ENDCHAR

STARTCHAR ARABIC
ENCODING 1607
SWIDTH 500 0
DWIDTH 8 0
BBX 8 18 0 -3
BITMAP
00
00
00
00
00
0C
12
11
11
0E
00
00
00
00
00
00
00
00
ENDCHAR

STARTCHAR ARABIC
ENCODING 1608
SWIDTH 500 0
DWIDTH 8 0
BBX 8 18 0 -3
BITMAP
00
00
00
00
00
00
06
09
09
0F
01
02
44
38
00
00
00
00
ENDCHAR

STARTCHAR ARABIC
ENCODING 1609
SWIDTH 500 0
DWIDTH 8 0
BBX 8 18 0 -3
BITMAP
00
00
00
00
00
00
06
09
08
46
81
81
82
7C
00
00
00
00
ENDCHAR

STARTCHAR ARABIC
ENCODING 1610
SWIDTH 500 0
DWIDTH 8 0
BBX 8 18 0 -3
BITMAP
00
00
00
00
00
00
06
09
08
46
81
81
82
7C
00
48
00
00
ENDCHAR

STARTCHAR ARABIC
ENCODING 1611
SWIDTH 500 0
DWIDTH 8 0
BBX 8 18 0 -3
BITMAP
00
0C
38
60
0C
38
60
00
00
00
00
00
00
00
00
00
00
00
ENDCHAR

STARTCHAR ARABIC
ENCODING 1612
SWIDTH 500 0
DWIDTH 8 0
BBX 8 18 0 -3
BITMAP
00
00
36
36
12
12
24
00
00
00
00
00
00
00
00
00
00
00
ENDCHAR

STARTCHAR ARABIC
ENCODING 1613
SWIDTH 500 0
DWIDTH 8 0
BBX 8 18 0 -3
BITMAP
00
00
00
00
00
00
00
00
00
00
0C
38
60
0C
38
60
00
00
ENDCHAR

STARTCHAR ARABIC
ENCODING 1614
SWIDTH 500 0
DWIDTH 8 0
BBX 8 18 0 -3
BITMAP
00
00
0C
38
60
00
00
00
00
00
00
00
00
00
00
00
00
00
ENDCHAR

STARTCHAR ARABIC
ENCODING 1615
SWIDTH 500 0
DWIDTH 8 0
BBX 8 18 0 -3
BITMAP
00
00
18
18
08
08
10
00
00
00
00
00
00
00
00
00
00
00
ENDCHAR

STARTCHAR ARABIC
ENCODING 1616
SWIDTH 500 0
DWIDTH 8 0
BBX 8 18 0 -3
BITMAP
00
00
00
00
00
00
00
00
00
00
00
00
00
0C
38
60
00
00
ENDCHAR

STARTCHAR ARABIC
ENCODING 1617
SWIDTH 500 0
DWIDTH 8 0
BBX 8 18 0 -3
BITMAP
00
22
49
36
00
00
00
00
00
00
00
00
00
00
00
00
00
00
ENDCHAR

STARTCHAR ARABIC
ENCODING 1618
SWIDTH 500 0
DWIDTH 8 0
BBX 8 18 0 -3
BITMAP
00
00
00
00
00
06
09
11
12
0C
00
00
00
00
00
00
00
00
ENDCHAR

STARTCHAR ARABIC-INDIC
ENCODING 1632
SWIDTH 500 0
DWIDTH 8 0
BBX 8 18 0 -3
BITMAP
00
00
00
00
00
00
10
38
10
00
00
00
00
00
00
00
00
00
ENDCHAR

STARTCHAR ARABIC-INDIC
ENCODING 1633
SWIDTH 500 0
DWIDTH 8 0
BBX 8 18 0 -3
BITMAP
00
00
20
20
20
10
10
10
08
08
08
04
04
04
04
00
00
00
ENDCHAR

STARTCHAR ARABIC-INDIC
ENCODING 1634
SWIDTH 500 0
DWIDTH 8 0
BBX 8 18 0 -3
BITMAP
00
00
82
82
84
44
48
30
10
10
08
08
08
08
08
00
00
00
ENDCHAR

STARTCHAR ARABIC-INDIC
ENCODING 1635
SWIDTH 500 0
DWIDTH 8 0
BBX 8 18 0 -3
BITMAP
00
00
92
92
94
FC
48
40
40
20
20
20
10
10
10
00
00
00
ENDCHAR

STARTCHAR ARABIC-INDIC
ENCODING 1636
SWIDTH 500 0
DWIDTH 8 0
BBX 8 18 0 -3
BITMAP
00
00
00
04
0C
10
20
10
08
10
20
40
40
26
3C
00
00
00
ENDCHAR

STARTCHAR ARABIC-INDIC
ENCODING 1637
SWIDTH 500 0
DWIDTH 8 0
BBX 8 18 0 -3
BITMAP
00
00
00
18
18
24
24
42
42
42
42
24
18
18
00
00
00
00
ENDCHAR

STARTCHAR ARABIC-INDIC
ENCODING 1638
SWIDTH 500 0
DWIDTH 8 0
BBX 8 18 0 -3
BITMAP
00
00
40
40
3C
04
04
04
04
04
06
02
02
02
02
00
00
00
ENDCHAR

STARTCHAR ARABIC-INDIC
ENCODING 1639
SWIDTH 500 0
DWIDTH 8 0
BBX 8 18 0 -3
BITMAP
00
00
00
82
82
82
44
44
44
28
28
28
10
10
10
00
00
00
ENDCHAR

STARTCHAR ARABIC-INDIC
ENCODING 1640
SWIDTH 500 0
DWIDTH 8 0
BBX 8 18 0 -3
BITMAP
00
00
00
10
10
10
28
28
28
44
44
44
82
82
82
00
00
00
ENDCHAR

STARTCHAR ARABIC-INDIC
ENCODING 1641
SWIDTH 500 0
DWIDTH 8 0
BBX 8 18 0 -3
BITMAP
00
00
30
48
48
88
88
98
68
04
04
04
02
02
02
00
00
00
ENDCHAR

STARTCHAR GEORGIAN
ENCODING 4304
SWIDTH 500 0
DWIDTH 8 0
BBX 8 18 0 -3
BITMAP
00
00
00
00
00
00
00
00
10
10
0C
02
02
42
3C
00
00
00
ENDCHAR

STARTCHAR GEORGIAN
ENCODING 4305
SWIDTH 500 0
DWIDTH 8 0
BBX 8 18 0 -3
BITMAP
00
00
00
00
00
20
30
10
10
3C
42
42
42
42
3C
00
00
00
ENDCHAR

STARTCHAR GEORGIAN
ENCODING 4306
SWIDTH 500 0
DWIDTH 8 0
BBX 8 18 0 -3
BITMAP
00
00
00
00
00
00
30
48
48
08
08
3C
42
42
42
42
3C
00
ENDCHAR

STARTCHAR GEORGIAN
ENCODING 4307
SWIDTH 500 0
DWIDTH 8 0
BBX 8 18 0 -3
BITMAP
00
00
00
00
00
00
00
00
2C
52
52
52
52
4C
20
1C
02
00
ENDCHAR

STARTCHAR GEORGIAN
ENCODING 4308
SWIDTH 500 0
DWIDTH 8 0
BBX 8 18 0 -3
BITMAP
00
00
00
00
00
3C
42
42
02
02
02
02
02
02
42
42
3C
00
ENDCHAR

STARTCHAR GEORGIAN
ENCODING 4309
SWIDTH 500 0
DWIDTH 8 0
BBX 8 18 0 -3
BITMAP
00
00
00
00
00
00
00
3C
42
42
02
1C
02
02
42
42
3C
00
ENDCHAR

STARTCHAR GEORGIAN
ENCODING 4310
SWIDTH 500 0
DWIDTH 8 0
BBX 8 18 0 -3
BITMAP
00
00
00
00
00
20
50
50
54
38
1C
12
12
12
0C
00
00
00
ENDCHAR

STARTCHAR GEORGIAN
ENCODING 4311
SWIDTH 500 0
DWIDTH 8 0
BBX 8 18 0 -3
BITMAP
00
00
00
00
00
00
00
00
34
4A
4A
4A
4A
4A
32
00
00
00
ENDCHAR

STARTCHAR GEORGIAN
ENCODING 4312
SWIDTH 500 0
DWIDTH 8 0
BBX 8 18 0 -3
BITMAP
00
00
00
00
00
00
00
00
3C
42
42
42
42
42
24
00
00
00
ENDCHAR

STARTCHAR GEORGIAN
ENCODING 4313
SWIDTH 500 0
DWIDTH 8 0
BBX 8 18 0 -3
BITMAP
00
00
00
00
00
00
00
0C
02
02
02
1C
02
02
42
42
3C
00
ENDCHAR

STARTCHAR GEORGIAN
ENCODING 4314
SWIDTH 500 0
DWIDTH 8 0
BBX 8 18 0 -3
BITMAP
00
00
00
00
00
00
00
00
2A
55
55
55
41
42
40
3E
01
00
ENDCHAR

STARTCHAR GEORGIAN
ENCODING 4315
SWIDTH 500 0
DWIDTH 8 0
BBX 8 18 0 -3
BITMAP
00
00
00
00
00
3C
42
42
02
02
3E
42
42
42
3C
00
00
00
ENDCHAR

STARTCHAR GEORGIAN
ENCODING 4316
SWIDTH 500 0
DWIDTH 8 0
BBX 8 18 0 -3
BITMAP
00
00
00
00
00
02
3C
40
40
40
7C
42
42
42
3C
00
00
00
ENDCHAR

STARTCHAR GEORGIAN
ENCODING 4317
SWIDTH 500 0
DWIDTH 8 0
BBX 8 18 0 -3
BITMAP
00
00
00
00
00
00
00
00
28
54
54
54
54
44
24
00
00
00
ENDCHAR

STARTCHAR GEORGIAN
ENCODING 4318
SWIDTH 500 0
DWIDTH 8 0
BBX 8 18 0 -3
BITMAP
00
00
00
00
00
20
18
04
02
02
1C
02
42
42
3C
00
00
00
ENDCHAR

STARTCHAR GEORGIAN
ENCODING 4319
SWIDTH 500 0
DWIDTH 8 0
BBX 8 18 0 -3
BITMAP
00
00
00
00
00
00
00
00
06
0A
52
52
22
02
22
22
1C
00
ENDCHAR

STARTCHAR GEORGIAN
ENCODING 4320
SWIDTH 500 0
DWIDTH 8 0
BBX 8 18 0 -3
BITMAP
00
00
00
00
00
04
38
40
68
54
54
54
54
44
24
00
00
00
ENDCHAR

STARTCHAR GEORGIAN
ENCODING 4321
SWIDTH 500 0
DWIDTH 8 0
BBX 8 18 0 -3
BITMAP
00
00
00
00
00
40
40
40
48
50
48
44
44
44
38
00
00
00
ENDCHAR

STARTCHAR GEORGIAN
ENCODING 4322
SWIDTH 500 0
DWIDTH 8 0
BBX 8 18 0 -3
BITMAP
00
00
00
00
00
18
24
24
3C
66
66
5A
42
42
42
42
3C
00
ENDCHAR

STARTCHAR GEORGIAN
ENCODING 4323
SWIDTH 500 0
DWIDTH 8 0
BBX 8 18 0 -3
BITMAP
00
00
00
00
00
00
00
00
6C
12
12
02
02
02
22
22
1C
00
ENDCHAR

STARTCHAR GEORGIAN
ENCODING 4324
SWIDTH 500 0
DWIDTH 8 0
BBX 8 18 0 -3
BITMAP
00
00
00
00
00
00
00
00
34
4A
4A
4A
4A
34
02
02
1C
00
ENDCHAR

STARTCHAR GEORGIAN
ENCODING 4325
SWIDTH 500 0
DWIDTH 8 0
BBX 8 18 0 -3
BITMAP
00
00
00
00
00
04
0C
04
04
04
1C
24
04
04
04
44
38
00
ENDCHAR

STARTCHAR GEORGIAN
ENCODING 4326
SWIDTH 500 0
DWIDTH 8 0
BBX 8 18 0 -3
BITMAP
00
00
00
00
00
00
00
00
28
54
54
54
44
48
40
38
04
00
ENDCHAR

STARTCHAR GEORGIAN
ENCODING 4327
SWIDTH 500 0
DWIDTH 8 0
BBX 8 18 0 -3
BITMAP
00
00
00
00
00
00
00
00
22
42
42
42
26
1A
42
42
3C
00
ENDCHAR

STARTCHAR GEORGIAN
ENCODING 4328
SWIDTH 500 0
DWIDTH 8 0
BBX 8 18 0 -3
BITMAP
00
00
00
00
00
28
54
54
04
04
1C
24
24
24
18
00
00
00
ENDCHAR

STARTCHAR GEORGIAN
ENCODING 4329
SWIDTH 500 0
DWIDTH 8 0
BBX 8 18 0 -3
BITMAP
00
00
00
00
00
38
44
78
40
5C
62
42
42
42
42
00
00
00
ENDCHAR

STARTCHAR GEORGIAN
ENCODING 4330
SWIDTH 500 0
DWIDTH 8 0
BBX 8 18 0 -3
BITMAP
00
00
00
00
00
00
00
4C
42
42
42
5C
42
42
42
42
3C
00
ENDCHAR

STARTCHAR GEORGIAN
ENCODING 4331
SWIDTH 500 0
DWIDTH 8 0
BBX 8 18 0 -3
BITMAP
00
00
00
00
00
04
02
02
02
02
3E
42
42
42
3C
00
00
00
ENDCHAR

STARTCHAR GEORGIAN
ENCODING 4332
SWIDTH 500 0
DWIDTH 8 0
BBX 8 18 0 -3
BITMAP
00
00
00
00
00
28
54
54
40
40
7C
44
44
28
28
10
10
00
ENDCHAR

STARTCHAR GEORGIAN
ENCODING 4333
SWIDTH 500 0
DWIDTH 8 0
BBX 8 18 0 -3
BITMAP
00
00
00
00
00
08
18
28
08
08
19
26
1D
04
04
44
38
00
ENDCHAR

STARTCHAR GEORGIAN
ENCODING 4334
SWIDTH 500 0
DWIDTH 8 0
BBX 8 18 0 -3
BITMAP
00
00
00
00
00
40
40
40
48
50
78
44
44
44
38
00
00
00
ENDCHAR

STARTCHAR GEORGIAN
ENCODING 4335
SWIDTH 500 0
DWIDTH 8 0
BBX 8 18 0 -3
BITMAP
00
00
00
00
00
00
00
00
00
42
24
18
18
24
42
20
40
00
ENDCHAR

STARTCHAR GEORGIAN
ENCODING 4336
SWIDTH 500 0
DWIDTH 8 0
BBX 8 18 0 -3
BITMAP
00
00
00
10
0C
02
12
0C
02
12
0C
02
42
42
3C
00
00
00
ENDCHAR

STARTCHAR GEORGIAN
ENCODING 4337
SWIDTH 500 0
DWIDTH 8 0
BBX 8 18 0 -3
BITMAP
00
00
00
50
4C
42
52
4C
42
52
4C
42
42
42
3C
00
00
00
ENDCHAR

STARTCHAR GEORGIAN
ENCODING 4338
SWIDTH 500 0
DWIDTH 8 0
BBX 8 18 0 -3
BITMAP
00
00
00
00
00
00
00
3C
42
42
42
42
24
18
7E
00
00
00
ENDCHAR

STARTCHAR GEORGIAN
ENCODING 4339
SWIDTH 500 0
DWIDTH 8 0
BBX 8 18 0 -3
BITMAP
00
00
00
00
00
00
00
3E
02
04
08
1C
02
02
42
42
3C
00
ENDCHAR

STARTCHAR GEORGIAN
ENCODING 4340
SWIDTH 500 0
DWIDTH 8 0
BBX 8 18 0 -3
BITMAP
00
00
00
00
00
08
10
0C
02
02
02
1C
02
02
42
42
3C
00
ENDCHAR

STARTCHAR GEORGIAN
ENCODING 4341
SWIDTH 500 0
DWIDTH 8 0
BBX 8 18 0 -3
BITMAP
00
00
00
00
00
00
38
44
44
3E
04
3E
44
44
38
00
00
00
ENDCHAR

STARTCHAR GEORGIAN
ENCODING 4342
SWIDTH 500 0
DWIDTH 8 0
BBX 8 18 0 -3
BITMAP
00
00
00
00
00
20
10
10
10
38
54
54
38
10
10
10
08
00
ENDCHAR

STARTCHAR GEORGIAN
ENCODING 4347
SWIDTH 500 0
DWIDTH 8 0
BBX 8 18 0 -3
BITMAP
00
00
00
00
00
00
00
30
30
06
06
30
30
00
00
00
00
00
ENDCHAR

STARTCHAR LATIN
ENCODING 7680
SWIDTH 500 0
DWIDTH 8 0
BBX 8 18 0 -3
BITMAP
00
00
00
00
00
18
24
24
42
42
7E
42
42
42
5A
24
18
00
ENDCHAR

STARTCHAR LATIN
ENCODING 7681
SWIDTH 500 0
DWIDTH 8 0
BBX 8 18 0 -3
BITMAP
00
00
00
00
00
00
00
3C
42
02
3E
42
46
3A
18
24
18
00
ENDCHAR

STARTCHAR LATIN
ENCODING 7682
SWIDTH 500 0
DWIDTH 8 0
BBX 8 18 0 -3
BITMAP
00
10
10
00
00
7C
42
42
42
7C
42
42
42
42
7C
00
00
00
ENDCHAR

STARTCHAR LATIN
ENCODING 7683
SWIDTH 500 0
DWIDTH 8 0
BBX 8 18 0 -3
BITMAP
00
10
10
00
40
40
40
5C
62
42
42
42
42
62
5C
00
00
00
ENDCHAR

STARTCHAR LATIN
ENCODING 7684
SWIDTH 500 0
DWIDTH 8 0
BBX 8 18 0 -3
BITMAP
00
00
00
00
00
7C
42
42
42
7C
42
42
42
42
7C
00
18
00
ENDCHAR

STARTCHAR LATIN
ENCODING 7685
SWIDTH 500 0
DWIDTH 8 0
BBX 8 18 0 -3
BITMAP
00
00
00
00
40
40
40
5C
62
42
42
42
42
62
5C
00
18
00
ENDCHAR

STARTCHAR LATIN
ENCODING 7686
SWIDTH 500 0
DWIDTH 8 0
BBX 8 18 0 -3
BITMAP
00
00
00
00
00
7C
42
42
42
7C
42
42
42
42
7C
00
7E
00
ENDCHAR

STARTCHAR LATIN
ENCODING 7687
SWIDTH 500 0
DWIDTH 8 0
BBX 8 18 0 -3
BITMAP
00
00
00
00
40
40
40
5C
62
42
42
42
42
62
5C
00
7E
00
ENDCHAR

STARTCHAR LATIN
ENCODING 7688
SWIDTH 500 0
DWIDTH 8 0
BBX 8 18 0 -3
BITMAP
00
0C
30
00
00
3C
42
42
40
40
40
40
42
42
3C
08
30
00
ENDCHAR

STARTCHAR LATIN
ENCODING 7689
SWIDTH 500 0
DWIDTH 8 0
BBX 8 18 0 -3
BITMAP
00
00
00
0C
30
00
00
3C
42
40
40
40
40
42
3C
08
30
00
ENDCHAR

STARTCHAR LATIN
ENCODING 7690
SWIDTH 500 0
DWIDTH 8 0
BBX 8 18 0 -3
BITMAP
00
10
10
00
00
78
44
42
42
42
42
42
42
44
78
00
00
00
ENDCHAR

STARTCHAR LATIN
ENCODING 7691
SWIDTH 500 0
DWIDTH 8 0
BBX 8 18 0 -3
BITMAP
00
08
08
00
02
02
02
3A
46
42
42
42
42
46
3A
00
00
00
ENDCHAR

STARTCHAR LATIN
ENCODING 7692
SWIDTH 500 0
DWIDTH 8 0
BBX 8 18 0 -3
BITMAP
00
00
00
00
00
78
44
42
42
42
42
42
42
44
78
00
18
00
ENDCHAR

STARTCHAR LATIN
ENCODING 7693
SWIDTH 500 0
DWIDTH 8 0
BBX 8 18 0 -3
BITMAP
00
00
00
00
02
02
02
3A
46
42
42
42
42
46
3A
00
18
00
ENDCHAR

STARTCHAR LATIN
ENCODING 7694
SWIDTH 500 0
DWIDTH 8 0
BBX 8 18 0 -3
BITMAP
00
00
00
00
00
78
44
42
42
42
42
42
42
44
78
00
7E
00
ENDCHAR

STARTCHAR LATIN
ENCODING 7695
SWIDTH 500 0
DWIDTH 8 0
BBX 8 18 0 -3
BITMAP
00
00
00
00
02
02
02
3A
46
42
42
42
42
46
3A
00
7E
00
ENDCHAR

STARTCHAR LATIN
ENCODING 7696
SWIDTH 500 0
DWIDTH 8 0
BBX 8 18 0 -3
BITMAP
00
00
00
00
00
78
44
42
42
42
42
42
42
44
78
10
60
00
ENDCHAR

STARTCHAR LATIN
ENCODING 7697
SWIDTH 500 0
DWIDTH 8 0
BBX 8 18 0 -3
BITMAP
00
00
00
00
02
02
02
3A
46
42
42
42
42
46
3A
10
60
00
ENDCHAR

STARTCHAR LATIN
ENCODING 7698
SWIDTH 500 0
DWIDTH 8 0
BBX 8 18 0 -3
BITMAP
00
00
00
00
00
78
44
42
42
42
42
42
42
44
78
18
24
00
ENDCHAR

STARTCHAR LATIN
ENCODING 7699
SWIDTH 500 0
DWIDTH 8 0
BBX 8 18 0 -3
BITMAP
00
00
00
00
02
02
02
3A
46
42
42
42
42
46
3A
18
24
00
ENDCHAR

STARTCHAR LATIN
ENCODING 7700
SWIDTH 500 0
DWIDTH 8 0
BBX 8 18 0 -3
BITMAP
00
30
0C
00
3C
00
7E
40
40
40
7C
40
40
40
7E
00
00
00
ENDCHAR

STARTCHAR LATIN
ENCODING 7701
SWIDTH 500 0
DWIDTH 8 0
BBX 8 18 0 -3
BITMAP
00
00
30
0C
00
3C
00
3C
42
42
7E
40
40
42
3C
00
00
00
ENDCHAR

STARTCHAR LATIN
ENCODING 7702
SWIDTH 500 0
DWIDTH 8 0
BBX 8 18 0 -3
BITMAP
00
0C
30
00
3C
00
7E
40
40
40
7C
40
40
40
7E
00
00
00
ENDCHAR

STARTCHAR LATIN
ENCODING 7703
SWIDTH 500 0
DWIDTH 8 0
BBX 8 18 0 -3
BITMAP
00
00
0C
30
00
3C
00
3C
42
42
7E
40
40
42
3C
00
00
00
ENDCHAR

STARTCHAR LATIN
ENCODING 7704
SWIDTH 500 0
DWIDTH 8 0
BBX 8 18 0 -3
BITMAP
00
00
00
00
00
7E
40
40
40
7C
40
40
40
40
7E
18
24
00
ENDCHAR

STARTCHAR LATIN
ENCODING 7705
SWIDTH 500 0
DWIDTH 8 0
BBX 8 18 0 -3
BITMAP
00
00
00
00
00
00
00
3C
42
42
7E
40
40
42
3C
18
24
00
ENDCHAR

STARTCHAR LATIN
ENCODING 7706
SWIDTH 500 0
DWIDTH 8 0
BBX 8 18 0 -3
BITMAP
00
00
00
00
00
7E
40
40
40
7C
40
40
40
7E
00
32
4C
00
ENDCHAR

STARTCHAR LATIN
ENCODING 7707
SWIDTH 500 0
DWIDTH 8 0
BBX 8 18 0 -3
BITMAP
00
00
00
00
00
00
00
3C
42
42
7E
40
42
3C
00
32
4C
00
ENDCHAR

STARTCHAR LATIN
ENCODING 7708
SWIDTH 500 0
DWIDTH 8 0
BBX 8 18 0 -3
BITMAP
00
42
42
3C
00
7E
40
40
40
7C
40
40
40
40
7E
08
30
00
ENDCHAR

STARTCHAR LATIN
ENCODING 7709
SWIDTH 500 0
DWIDTH 8 0
BBX 8 18 0 -3
BITMAP
00
00
42
42
3C
00
00
3C
42
42
7E
40
40
42
3C
08
30
00
ENDCHAR

STARTCHAR LATIN
ENCODING 7710
SWIDTH 500 0
DWIDTH 8 0
BBX 8 18 0 -3
BITMAP
00
10
10
00
00
7E
40
40
40
7C
40
40
40
40
40
00
00
00
ENDCHAR

STARTCHAR LATIN
ENCODING 7711
SWIDTH 500 0
DWIDTH 8 0
BBX 8 18 0 -3
BITMAP
00
08
08
00
0C
10
10
10
7C
10
10
10
10
10
10
00
00
00
ENDCHAR

STARTCHAR LATIN
ENCODING 7712
SWIDTH 500 0
DWIDTH 8 0
BBX 8 18 0 -3
BITMAP
00
00
3C
00
00
3C
42
42
40
40
4E
42
42
46
3A
00
00
00
ENDCHAR

STARTCHAR LATIN
ENCODING 7713
SWIDTH 500 0
DWIDTH 8 0
BBX 8 18 0 -3
BITMAP
00
00
00
00
3C
00
02
3A
44
44
44
38
20
3C
42
42
3C
00
ENDCHAR

STARTCHAR LATIN
ENCODING 7714
SWIDTH 500 0
DWIDTH 8 0
BBX 8 18 0 -3
BITMAP
00
10
10
00
00
42
42
42
42
7E
42
42
42
42
42
00
00
00
ENDCHAR

STARTCHAR LATIN
ENCODING 7715
SWIDTH 500 0
DWIDTH 8 0
BBX 8 18 0 -3
BITMAP
00
10
10
00
40
40
40
5C
62
42
42
42
42
42
42
00
00
00
ENDCHAR

STARTCHAR LATIN
ENCODING 7716
SWIDTH 500 0
DWIDTH 8 0
BBX 8 18 0 -3
BITMAP
00
00
00
00
00
42
42
42
42
7E
42
42
42
42
42
00
18
00
ENDCHAR

STARTCHAR LATIN
ENCODING 7717
SWIDTH 500 0
DWIDTH 8 0
BBX 8 18 0 -3
BITMAP
00
00
00
00
40
40
40
5C
62
42
42
42
42
42
42
00
18
00
ENDCHAR

STARTCHAR LATIN
ENCODING 7718
SWIDTH 500 0
DWIDTH 8 0
BBX 8 18 0 -3
BITMAP
00
24
24
00
00
42
42
42
42
7E
42
42
42
42
42
00
00
00
ENDCHAR

STARTCHAR LATIN
ENCODING 7719
SWIDTH 500 0
DWIDTH 8 0
BBX 8 18 0 -3
BITMAP
00
24
24
00
40
40
40
5C
62
42
42
42
42
42
42
00
00
00
ENDCHAR

STARTCHAR LATIN
ENCODING 7720
SWIDTH 500 0
DWIDTH 8 0
BBX 8 18 0 -3
BITMAP
00
00
00
00
00
42
42
42
42
7E
42
42
42
42
42
20
C0
00
ENDCHAR

STARTCHAR LATIN
ENCODING 7721
SWIDTH 500 0
DWIDTH 8 0
BBX 8 18 0 -3
BITMAP
00
00
00
00
40
40
40
5C
62
42
42
42
42
42
42
20
C0
00
ENDCHAR

STARTCHAR LATIN
ENCODING 7722
SWIDTH 500 0
DWIDTH 8 0
BBX 8 18 0 -3
BITMAP
00
00
00
00
00
42
42
42
42
7E
42
42
42
42
00
42
3C
00
ENDCHAR

STARTCHAR LATIN
ENCODING 7723
SWIDTH 500 0
DWIDTH 8 0
BBX 8 18 0 -3
BITMAP
00
00
00
00
40
40
40
5C
62
42
42
42
42
42
00
42
3C
00
ENDCHAR

STARTCHAR LATIN
ENCODING 7724
SWIDTH 500 0
DWIDTH 8 0
BBX 8 18 0 -3
BITMAP
00
00
00
00
00
3E
08
08
08
08
08
08
08
3E
00
32
4C
00
ENDCHAR

STARTCHAR LATIN
ENCODING 7725
SWIDTH 500 0
DWIDTH 8 0
BBX 8 18 0 -3
BITMAP
00
00
00
00
08
08
00
18
08
08
08
08
08
3E
00
32
4C
00
ENDCHAR

STARTCHAR LATIN
ENCODING 7726
SWIDTH 500 0
DWIDTH 8 0
BBX 8 18 0 -3
BITMAP
00
06
18
00
36
00
3E
08
08
08
08
08
08
08
3E
00
00
00
ENDCHAR

STARTCHAR LATIN
ENCODING 7727
SWIDTH 500 0
DWIDTH 8 0
BBX 8 18 0 -3
BITMAP
00
0C
30
00
24
24
00
18
08
08
08
08
08
08
3E
00
00
00
ENDCHAR

STARTCHAR LATIN
ENCODING 7728
SWIDTH 500 0
DWIDTH 8 0
BBX 8 18 0 -3
BITMAP
00
0C
30
00
00
42
44
48
50
60
60
50
48
44
42
00
00
00
ENDCHAR

STARTCHAR LATIN
ENCODING 7729
SWIDTH 500 0
DWIDTH 8 0
BBX 8 18 0 -3
BITMAP
00
0C
30
00
00
40
40
44
48
50
60
50
48
44
42
00
00
00
ENDCHAR

STARTCHAR LATIN
ENCODING 7730
SWIDTH 500 0
DWIDTH 8 0
BBX 8 18 0 -3
BITMAP
00
00
00
00
00
42
44
48
50
60
60
50
48
44
42
00
18
00
ENDCHAR

STARTCHAR LATIN
ENCODING 7731
SWIDTH 500 0
DWIDTH 8 0
BBX 8 18 0 -3
BITMAP
00
00
00
00
00
40
40
44
48
50
60
50
48
44
42
00
18
00
ENDCHAR

STARTCHAR LATIN
ENCODING 7732
SWIDTH 500 0
DWIDTH 8 0
BBX 8 18 0 -3
BITMAP
00
00
00
00
00
42
44
48
50
60
60
50
48
44
42
00
7E
00
ENDCHAR

STARTCHAR LATIN
ENCODING 7733
SWIDTH 500 0
DWIDTH 8 0
BBX 8 18 0 -3
BITMAP
00
00
00
00
00
40
40
44
48
50
60
50
48
44
42
00
7E
00
ENDCHAR

STARTCHAR LATIN
ENCODING 7734
SWIDTH 500 0
DWIDTH 8 0
BBX 8 18 0 -3
BITMAP
00
00
00
00
00
40
40
40
40
40
40
40
40
40
7E
00
18
00
ENDCHAR

STARTCHAR LATIN
ENCODING 7735
SWIDTH 500 0
DWIDTH 8 0
BBX 8 18 0 -3
BITMAP
00
00
00
00
00
18
08
08
08
08
08
08
08
08
3E
00
0C
00
ENDCHAR

STARTCHAR LATIN
ENCODING 7736
SWIDTH 500 0
DWIDTH 8 0
BBX 8 18 0 -3
BITMAP
00
00
00
78
00
40
40
40
40
40
40
40
40
40
7E
00
18
00
ENDCHAR

STARTCHAR LATIN
ENCODING 7737
SWIDTH 500 0
DWIDTH 8 0
BBX 8 18 0 -3
BITMAP
00
00
3C
00
00
18
08
08
08
08
08
08
08
08
3E
00
0C
00
ENDCHAR

STARTCHAR LATIN
ENCODING 7738
SWIDTH 500 0
DWIDTH 8 0
BBX 8 18 0 -3
BITMAP
00
00
00
00
00
40
40
40
40
40
40
40
40
40
7E
00
7E
00
ENDCHAR

STARTCHAR LATIN
ENCODING 7739
SWIDTH 500 0
DWIDTH 8 0
BBX 8 18 0 -3
BITMAP
00
00
00
00
00
18
08
08
08
08
08
08
08
08
3E
00
3E
00
ENDCHAR

STARTCHAR LATIN
ENCODING 7740
SWIDTH 500 0
DWIDTH 8 0
BBX 8 18 0 -3
BITMAP
00
00
00
00
00
40
40
40
40
40
40
40
40
40
7E
18
24
00
ENDCHAR

STARTCHAR LATIN
ENCODING 7741
SWIDTH 500 0
DWIDTH 8 0
BBX 8 18 0 -3
BITMAP
00
00
00
00
00
18
08
08
08
08
08
08
08
08
3E
0C
12
00
ENDCHAR

STARTCHAR LATIN
ENCODING 7742
SWIDTH 500 0
DWIDTH 8 0
BBX 8 18 0 -3
BITMAP
00
0C
30
00
00
42
42
66
66
5A
5A
42
42
42
42
00
00
00
ENDCHAR

STARTCHAR LATIN
ENCODING 7743
SWIDTH 500 0
DWIDTH 8 0
BBX 8 18 0 -3
BITMAP
00
00
00
06
18
00
00
76
49
49
49
49
49
49
49
00
00
00
ENDCHAR

STARTCHAR LATIN
ENCODING 7744
SWIDTH 500 0
DWIDTH 8 0
BBX 8 18 0 -3
BITMAP
00
10
10
00
00
42
42
66
66
5A
5A
42
42
42
42
00
00
00
ENDCHAR

STARTCHAR LATIN
ENCODING 7745
SWIDTH 500 0
DWIDTH 8 0
BBX 8 18 0 -3
BITMAP
00
00
00
08
08
00
00
76
49
49
49
49
49
49
49
00
00
00
ENDCHAR

STARTCHAR LATIN
ENCODING 7746
SWIDTH 500 0
DWIDTH 8 0
BBX 8 18 0 -3
BITMAP
00
00
00
00
00
42
42
66
66
5A
5A
42
42
42
42
00
18
00
ENDCHAR

STARTCHAR LATIN
ENCODING 7747
SWIDTH 500 0
DWIDTH 8 0
BBX 8 18 0 -3
BITMAP
00
00
00
00
00
00
00
76
49
49
49
49
49
49
49
00
18
00
ENDCHAR

STARTCHAR LATIN
ENCODING 7748
SWIDTH 500 0
DWIDTH 8 0
BBX 8 18 0 -3
BITMAP
00
10
10
00
00
42
62
62
52
52
4A
4A
46
46
42
00
00
00
ENDCHAR

STARTCHAR LATIN
ENCODING 7749
SWIDTH 500 0
DWIDTH 8 0
BBX 8 18 0 -3
BITMAP
00
00
00
10
10
00
00
5C
62
42
42
42
42
42
42
00
00
00
ENDCHAR

STARTCHAR LATIN
ENCODING 7750
SWIDTH 500 0
DWIDTH 8 0
BBX 8 18 0 -3
BITMAP
00
00
00
00
00
42
62
62
52
52
4A
4A
46
46
42
00
18
00
ENDCHAR

STARTCHAR LATIN
ENCODING 7751
SWIDTH 500 0
DWIDTH 8 0
BBX 8 18 0 -3
BITMAP
00
00
00
00
00
00
00
5C
62
42
42
42
42
42
42
00
18
00
ENDCHAR

STARTCHAR LATIN
ENCODING 7752
SWIDTH 500 0
DWIDTH 8 0
BBX 8 18 0 -3
BITMAP
00
00
00
00
00
42
62
62
52
52
4A
4A
46
46
42
00
7E
00
ENDCHAR

STARTCHAR LATIN
ENCODING 7753
SWIDTH 500 0
DWIDTH 8 0
BBX 8 18 0 -3
BITMAP
00
00
00
00
00
00
00
5C
62
42
42
42
42
42
42
00
7E
00
ENDCHAR

STARTCHAR LATIN
ENCODING 7754
SWIDTH 500 0
DWIDTH 8 0
BBX 8 18 0 -3
BITMAP
00
00
00
00
00
42
62
62
52
52
4A
4A
46
46
42
18
24
00
ENDCHAR

STARTCHAR LATIN
ENCODING 7755
SWIDTH 500 0
DWIDTH 8 0
BBX 8 18 0 -3
BITMAP
00
00
00
00
00
00
00
5C
62
42
42
42
42
42
42
18
24
00
ENDCHAR

STARTCHAR LATIN
ENCODING 7756
SWIDTH 500 0
DWIDTH 8 0
BBX 8 18 0 -3
BITMAP
00
0C
30
32
4C
00
3C
42
42
42
42
42
42
42
3C
00
00
00
ENDCHAR

STARTCHAR LATIN
ENCODING 7757
SWIDTH 500 0
DWIDTH 8 0
BBX 8 18 0 -3
BITMAP
00
0C
30
00
32
4C
00
3C
42
42
42
42
42
42
3C
00
00
00
ENDCHAR

STARTCHAR LATIN
ENCODING 7758
SWIDTH 500 0
DWIDTH 8 0
BBX 8 18 0 -3
BITMAP
00
24
00
32
4C
00
3C
42
42
42
42
42
42
42
3C
00
00
00
ENDCHAR

STARTCHAR LATIN
ENCODING 7759
SWIDTH 500 0
DWIDTH 8 0
BBX 8 18 0 -3
BITMAP
00
24
24
00
32
4C
00
3C
42
42
42
42
42
42
3C
00
00
00
ENDCHAR

STARTCHAR LATIN
ENCODING 7760
SWIDTH 500 0
DWIDTH 8 0
BBX 8 18 0 -3
BITMAP
00
30
0C
00
3C
00
3C
42
42
42
42
42
42
42
3C
00
00
00
ENDCHAR

STARTCHAR LATIN
ENCODING 7761
SWIDTH 500 0
DWIDTH 8 0
BBX 8 18 0 -3
BITMAP
00
00
30
0C
00
3C
00
3C
42
42
42
42
42
42
3C
00
00
00
ENDCHAR

STARTCHAR LATIN
ENCODING 7762
SWIDTH 500 0
DWIDTH 8 0
BBX 8 18 0 -3
BITMAP
00
0C
30
00
3C
00
3C
42
42
42
42
42
42
42
3C
00
00
00
ENDCHAR

STARTCHAR LATIN
ENCODING 7763
SWIDTH 500 0
DWIDTH 8 0
BBX 8 18 0 -3
BITMAP
00
00
0C
30
00
3C
00
3C
42
42
42
42
42
42
3C
00
00
00
ENDCHAR

STARTCHAR LATIN
ENCODING 7764
SWIDTH 500 0
DWIDTH 8 0
BBX 8 18 0 -3
BITMAP
00
0C
30
00
00
7C
42
42
42
7C
40
40
40
40
40
00
00
00
ENDCHAR

STARTCHAR LATIN
ENCODING 7765
SWIDTH 500 0
DWIDTH 8 0
BBX 8 18 0 -3
BITMAP
00
00
00
0C
30
00
00
5C
62
42
42
42
42
62
5C
40
40
00
ENDCHAR

STARTCHAR LATIN
ENCODING 7766
SWIDTH 500 0
DWIDTH 8 0
BBX 8 18 0 -3
BITMAP
00
10
10
00
00
7C
42
42
42
7C
40
40
40
40
40
00
00
00
ENDCHAR

STARTCHAR LATIN
ENCODING 7767
SWIDTH 500 0
DWIDTH 8 0
BBX 8 18 0 -3
BITMAP
00
00
00
08
08
00
00
5C
62
42
42
42
42
62
5C
40
40
00
ENDCHAR

STARTCHAR LATIN
ENCODING 7768
SWIDTH 500 0
DWIDTH 8 0
BBX 8 18 0 -3
BITMAP
00
10
10
00
00
7C
42
42
42
7C
48
44
44
42
42
00
00
00
ENDCHAR

STARTCHAR LATIN
ENCODING 7769
SWIDTH 500 0
DWIDTH 8 0
BBX 8 18 0 -3
BITMAP
00
00
00
10
10
00
00
5C
62
42
40
40
40
40
40
00
00
00
ENDCHAR

STARTCHAR LATIN
ENCODING 7770
SWIDTH 500 0
DWIDTH 8 0
BBX 8 18 0 -3
BITMAP
00
00
00
00
00
7C
42
42
42
7C
48
44
44
42
42
00
18
00
ENDCHAR

STARTCHAR LATIN
ENCODING 7771
SWIDTH 500 0
DWIDTH 8 0
BBX 8 18 0 -3
BITMAP
00
00
00
00
00
00
00
5C
62
42
40
40
40
40
40
00
18
00
ENDCHAR

STARTCHAR LATIN
ENCODING 7772
SWIDTH 500 0
DWIDTH 8 0
BBX 8 18 0 -3
BITMAP
00
00
3C
00
00
7C
42
42
42
7C
48
44
44
42
42
00
18
00
ENDCHAR

STARTCHAR LATIN
ENCODING 7773
SWIDTH 500 0
DWIDTH 8 0
BBX 8 18 0 -3
BITMAP
00
00
00
00
3C
00
00
5C
62
42
40
40
40
40
40
00
18
00
ENDCHAR

STARTCHAR LATIN
ENCODING 7774
SWIDTH 500 0
DWIDTH 8 0
BBX 8 18 0 -3
BITMAP
00
00
00
00
00
7C
42
42
42
7C
48
44
44
42
42
00
7E
00
ENDCHAR

STARTCHAR LATIN
ENCODING 7775
SWIDTH 500 0
DWIDTH 8 0
BBX 8 18 0 -3
BITMAP
00
00
00
00
00
00
00
5C
62
42
40
40
40
40
40
00
7E
00
ENDCHAR

STARTCHAR LATIN
ENCODING 7776
SWIDTH 500 0
DWIDTH 8 0
BBX 8 18 0 -3
BITMAP
00
10
10
00
00
3C
42
42
40
30
0C
02
42
42
3C
00
00
00
ENDCHAR

STARTCHAR LATIN
ENCODING 7777
SWIDTH 500 0
DWIDTH 8 0
BBX 8 18 0 -3
BITMAP
00
00
00
10
10
00
00
3C
42
40
30
0C
02
42
3C
00
00
00
ENDCHAR

STARTCHAR LATIN
ENCODING 7778
SWIDTH 500 0
DWIDTH 8 0
BBX 8 18 0 -3
BITMAP
00
00
00
00
00
3C
42
42
40
30
0C
02
42
42
3C
00
18
00
ENDCHAR

STARTCHAR LATIN
ENCODING 7779
SWIDTH 500 0
DWIDTH 8 0
BBX 8 18 0 -3
BITMAP
00
00
00
00
00
00
00
3C
42
40
30
0C
02
42
3C
00
18
00
ENDCHAR

STARTCHAR LATIN
ENCODING 7780
SWIDTH 500 0
DWIDTH 8 0
BBX 8 18 0 -3
BITMAP
00
10
10
0C
30
00
3C
42
40
30
0C
02
42
42
3C
00
00
00
ENDCHAR

STARTCHAR LATIN
ENCODING 7781
SWIDTH 500 0
DWIDTH 8 0
BBX 8 18 0 -3
BITMAP
00
10
10
00
0C
30
00
3C
42
40
30
0C
02
42
3C
00
00
00
ENDCHAR

STARTCHAR LATIN
ENCODING 7782
SWIDTH 500 0
DWIDTH 8 0
BBX 8 18 0 -3
BITMAP
00
10
10
24
18
00
3C
42
40
30
0C
02
42
42
3C
00
00
00
ENDCHAR

STARTCHAR LATIN
ENCODING 7783
SWIDTH 500 0
DWIDTH 8 0
BBX 8 18 0 -3
BITMAP
00
10
10
00
24
18
00
3C
42
40
30
0C
02
42
3C
00
00
00
ENDCHAR

STARTCHAR LATIN
ENCODING 7784
SWIDTH 500 0
DWIDTH 8 0
BBX 8 18 0 -3
BITMAP
00
10
10
00
00
3C
42
42
40
30
0C
02
42
42
3C
00
18
00
ENDCHAR

STARTCHAR LATIN
ENCODING 7785
SWIDTH 500 0
DWIDTH 8 0
BBX 8 18 0 -3
BITMAP
00
00
00
10
10
00
00
3C
42
40
30
0C
02
42
3C
00
18
00
ENDCHAR

STARTCHAR LATIN
ENCODING 7786
SWIDTH 500 0
DWIDTH 8 0
BBX 8 18 0 -3
BITMAP
00
08
08
00
00
7F
08
08
08
08
08
08
08
08
08
00
00
00
ENDCHAR

STARTCHAR LATIN
ENCODING 7787
SWIDTH 500 0
DWIDTH 8 0
BBX 8 18 0 -3
BITMAP
00
10
10
00
00
10
10
7C
10
10
10
10
10
10
0C
00
00
00
ENDCHAR

STARTCHAR LATIN
ENCODING 7788
SWIDTH 500 0
DWIDTH 8 0
BBX 8 18 0 -3
BITMAP
00
00
00
00
00
7F
08
08
08
08
08
08
08
08
08
00
18
00
ENDCHAR

STARTCHAR LATIN
ENCODING 7789
SWIDTH 500 0
DWIDTH 8 0
BBX 8 18 0 -3
BITMAP
00
00
00
00
00
10
10
7C
10
10
10
10
10
10
0C
00
18
00
ENDCHAR

STARTCHAR LATIN
ENCODING 7790
SWIDTH 500 0
DWIDTH 8 0
BBX 8 18 0 -3
BITMAP
00
00
00
00
00
7F
08
08
08
08
08
08
08
08
08
00
3E
00
ENDCHAR

STARTCHAR LATIN
ENCODING 7791
SWIDTH 500 0
DWIDTH 8 0
BBX 8 18 0 -3
BITMAP
00
00
00
00
00
10
10
7C
10
10
10
10
10
10
0C
00
3C
00
ENDCHAR

STARTCHAR LATIN
ENCODING 7792
SWIDTH 500 0
DWIDTH 8 0
BBX 8 18 0 -3
BITMAP
00
00
00
00
00
7F
08
08
08
08
08
08
08
08
00
0C
12
00
ENDCHAR

STARTCHAR LATIN
ENCODING 7793
SWIDTH 500 0
DWIDTH 8 0
BBX 8 18 0 -3
BITMAP
00
00
00
00
00
10
10
7C
10
10
10
10
10
10
0C
18
24
00
ENDCHAR

STARTCHAR LATIN
ENCODING 7794
SWIDTH 500 0
DWIDTH 8 0
BBX 8 18 0 -3
BITMAP
00
00
00
00
00
42
42
42
42
42
42
42
42
42
3C
00
66
00
ENDCHAR

STARTCHAR LATIN
ENCODING 7795
SWIDTH 500 0
DWIDTH 8 0
BBX 8 18 0 -3
BITMAP
00
00
00
00
00
00
00
42
42
42
42
42
42
46
3A
00
66
00
ENDCHAR

STARTCHAR LATIN
ENCODING 7796
SWIDTH 500 0
DWIDTH 8 0
BBX 8 18 0 -3
BITMAP
00
00
00
00
00
42
42
42
42
42
42
42
42
3C
00
32
4C
00
ENDCHAR

STARTCHAR LATIN
ENCODING 7797
SWIDTH 500 0
DWIDTH 8 0
BBX 8 18 0 -3
BITMAP
00
00
00
00
00
00
00
42
42
42
42
42
46
3A
00
32
4C
00
ENDCHAR

STARTCHAR LATIN
ENCODING 7798
SWIDTH 500 0
DWIDTH 8 0
BBX 8 18 0 -3
BITMAP
00
00
00
00
00
42
42
42
42
42
42
42
42
42
3C
18
24
00
ENDCHAR

STARTCHAR LATIN
ENCODING 7799
SWIDTH 500 0
DWIDTH 8 0
BBX 8 18 0 -3
BITMAP
00
00
00
00
00
00
00
42
42
42
42
42
42
46
3A
18
24
00
ENDCHAR

STARTCHAR LATIN
ENCODING 7800
SWIDTH 500 0
DWIDTH 8 0
BBX 8 18 0 -3
BITMAP
00
0C
30
32
4C
00
42
42
42
42
42
42
42
42
3C
00
00
00
ENDCHAR

STARTCHAR LATIN
ENCODING 7801
SWIDTH 500 0
DWIDTH 8 0
BBX 8 18 0 -3
BITMAP
00
0C
30
00
32
4C
00
42
42
42
42
42
42
46
3A
00
00
00
ENDCHAR

STARTCHAR LATIN
ENCODING 7802
SWIDTH 500 0
DWIDTH 8 0
BBX 8 18 0 -3
BITMAP
00
24
24
00
3C
00
42
42
42
42
42
42
42
42
3C
00
00
00
ENDCHAR

STARTCHAR LATIN
ENCODING 7803
SWIDTH 500 0
DWIDTH 8 0
BBX 8 18 0 -3
BITMAP
00
00
24
24
00
3C
00
42
42
42
42
42
42
46
3A
00
00
00
ENDCHAR

STARTCHAR LATIN
ENCODING 7804
SWIDTH 500 0
DWIDTH 8 0
BBX 8 18 0 -3
BITMAP
00
32
4C
00
00
41
41
41
22
22
22
14
14
08
08
00
00
00
ENDCHAR

STARTCHAR LATIN
ENCODING 7805
SWIDTH 500 0
DWIDTH 8 0
BBX 8 18 0 -3
BITMAP
00
00
00
32
4C
00
00
42
42
42
24
24
24
18
18
00
00
00
ENDCHAR

STARTCHAR LATIN
ENCODING 7806
SWIDTH 500 0
DWIDTH 8 0
BBX 8 18 0 -3
BITMAP
00
00
00
00
00
41
41
41
22
22
22
14
14
08
08
00
0C
00
ENDCHAR

STARTCHAR LATIN
ENCODING 7807
SWIDTH 500 0
DWIDTH 8 0
BBX 8 18 0 -3
BITMAP
00
00
00
00
00
00
00
42
42
42
24
24
24
18
18
00
18
00
ENDCHAR

STARTCHAR LATIN
ENCODING 7808
SWIDTH 500 0
DWIDTH 8 0
BBX 8 18 0 -3
BITMAP
00
30
0C
00
00
42
42
42
42
5A
5A
66
66
42
42
00
00
00
ENDCHAR

STARTCHAR LATIN
ENCODING 7809
SWIDTH 500 0
DWIDTH 8 0
BBX 8 18 0 -3
BITMAP
00
00
00
30
0C
00
00
41
49
49
49
49
49
49
36
00
00
00
ENDCHAR

STARTCHAR LATIN
ENCODING 7810
SWIDTH 500 0
DWIDTH 8 0
BBX 8 18 0 -3
BITMAP
00
0C
30
00
00
42
42
42
5A
5A
66
66
42
42
00
00
00
00
ENDCHAR

STARTCHAR LATIN
ENCODING 7811
SWIDTH 500 0
DWIDTH 8 0
BBX 8 18 0 -3
BITMAP
00
00
00
06
18
00
00
41
49
49
49
49
49
49
36
00
00
00
ENDCHAR

STARTCHAR LATIN
ENCODING 7812
SWIDTH 500 0
DWIDTH 8 0
BBX 8 18 0 -3
BITMAP
00
24
24
00
00
42
42
42
42
5A
5A
66
66
42
42
00
00
00
ENDCHAR

STARTCHAR LATIN
ENCODING 7813
SWIDTH 500 0
DWIDTH 8 0
BBX 8 18 0 -3
BITMAP
00
00
00
12
12
00
00
41
49
49
49
49
49
49
36
00
00
00
ENDCHAR

STARTCHAR LATIN
ENCODING 7814
SWIDTH 500 0
DWIDTH 8 0
BBX 8 18 0 -3
BITMAP
00
10
10
00
00
42
42
42
42
5A
5A
66
66
42
42
00
00
00
ENDCHAR

STARTCHAR LATIN
ENCODING 7815
SWIDTH 500 0
DWIDTH 8 0
BBX 8 18 0 -3
BITMAP
00
00
00
08
08
00
00
41
49
49
49
49
49
49
36
00
00
00
ENDCHAR

STARTCHAR LATIN
ENCODING 7816
SWIDTH 500 0
DWIDTH 8 0
BBX 8 18 0 -3
BITMAP
00
00
00
00
00
42
42
42
42
5A
5A
66
66
42
42
00
18
00
ENDCHAR

STARTCHAR LATIN
ENCODING 7817
SWIDTH 500 0
DWIDTH 8 0
BBX 8 18 0 -3
BITMAP
00
00
00
00
00
00
00
41
49
49
49
49
49
49
36
00
0C
00
ENDCHAR

STARTCHAR LATIN
ENCODING 7818
SWIDTH 500 0
DWIDTH 8 0
BBX 8 18 0 -3
BITMAP
00
10
10
00
00
42
42
24
24
18
18
24
24
42
42
00
00
00
ENDCHAR

STARTCHAR LATIN
ENCODING 7819
SWIDTH 500 0
DWIDTH 8 0
BBX 8 18 0 -3
BITMAP
00
00
00
10
10
00
00
42
42
24
18
18
24
42
42
00
00
00
ENDCHAR

STARTCHAR LATIN
ENCODING 7820
SWIDTH 500 0
DWIDTH 8 0
BBX 8 18 0 -3
BITMAP
00
24
24
00
00
42
42
24
24
18
18
24
24
42
42
00
00
00
ENDCHAR

STARTCHAR LATIN
ENCODING 7821
SWIDTH 500 0
DWIDTH 8 0
BBX 8 18 0 -3
BITMAP
00
00
00
24
24
00
00
42
42
24
18
18
24
42
42
00
00
00
ENDCHAR

STARTCHAR LATIN
ENCODING 7822
SWIDTH 500 0
DWIDTH 8 0
BBX 8 18 0 -3
BITMAP
00
08
08
00
00
41
41
22
22
14
08
08
08
08
08
00
00
00
ENDCHAR

STARTCHAR LATIN
ENCODING 7823
SWIDTH 500 0
DWIDTH 8 0
BBX 8 18 0 -3
BITMAP
00
00
00
08
08
00
00
42
42
42
42
42
26
1A
02
02
3C
00
ENDCHAR

STARTCHAR LATIN
ENCODING 7824
SWIDTH 500 0
DWIDTH 8 0
BBX 8 18 0 -3
BITMAP
00
18
24
00
00
7E
02
02
04
08
10
20
40
40
7E
00
00
00
ENDCHAR

STARTCHAR LATIN
ENCODING 7825
SWIDTH 500 0
DWIDTH 8 0
BBX 8 18 0 -3
BITMAP
00
00
00
18
24
00
00
7E
02
04
08
10
20
40
7E
00
00
00
ENDCHAR

STARTCHAR LATIN
ENCODING 7826
SWIDTH 500 0
DWIDTH 8 0
BBX 8 18 0 -3
BITMAP
00
00
00
00
00
7E
02
02
04
08
10
20
40
40
7E
00
18
00
ENDCHAR

STARTCHAR LATIN
ENCODING 7827
SWIDTH 500 0
DWIDTH 8 0
BBX 8 18 0 -3
BITMAP
00
00
00
00
00
00
00
7E
02
04
08
10
20
40
7E
00
18
00
ENDCHAR

STARTCHAR LATIN
ENCODING 7828
SWIDTH 500 0
DWIDTH 8 0
BBX 8 18 0 -3
BITMAP
00
00
00
00
00
7E
02
02
04
08
10
20
40
40
7E
00
7E
00
ENDCHAR

STARTCHAR LATIN
ENCODING 7829
SWIDTH 500 0
DWIDTH 8 0
BBX 8 18 0 -3
BITMAP
00
00
00
00
00
00
00
7E
02
04
08
10
20
40
7E
00
7E
00
ENDCHAR

STARTCHAR LATIN
ENCODING 7830
SWIDTH 500 0
DWIDTH 8 0
BBX 8 18 0 -3
BITMAP
00
00
00
00
40
40
40
5C
62
42
42
42
42
42
42
00
7E
00
ENDCHAR

STARTCHAR LATIN
ENCODING 7831
SWIDTH 500 0
DWIDTH 8 0
BBX 8 18 0 -3
BITMAP
00
24
24
00
00
10
10
7C
10
10
10
10
10
10
0C
00
00
00
ENDCHAR

STARTCHAR LATIN
ENCODING 7832
SWIDTH 500 0
DWIDTH 8 0
BBX 8 18 0 -3
BITMAP
00
00
00
0C
12
0C
00
41
49
49
49
49
49
49
36
00
00
00
ENDCHAR

STARTCHAR LATIN
ENCODING 7833
SWIDTH 500 0
DWIDTH 8 0
BBX 8 18 0 -3
BITMAP
00
00
00
18
24
18
00
42
42
42
42
42
26
1A
02
02
3C
00
ENDCHAR

STARTCHAR LATIN
ENCODING 7834
SWIDTH 500 0
DWIDTH 8 0
BBX 8 18 0 -3
BITMAP
00
00
00
04
02
04
00
3C
42
02
3E
42
42
46
3A
00
00
00
ENDCHAR

STARTCHAR LATIN
ENCODING 7835
SWIDTH 500 0
DWIDTH 8 0
BBX 8 18 0 -3
BITMAP
00
10
10
00
0C
10
10
10
30
10
10
10
10
10
10
00
00
00
ENDCHAR

STARTCHAR LATIN
ENCODING 7840
SWIDTH 500 0
DWIDTH 8 0
BBX 8 18 0 -3
BITMAP
00
00
00
00
00
18
24
24
42
42
7E
42
42
42
42
00
18
00
ENDCHAR

STARTCHAR LATIN
ENCODING 7841
SWIDTH 500 0
DWIDTH 8 0
BBX 8 18 0 -3
BITMAP
00
00
00
00
00
00
00
3C
42
02
3E
42
42
46
3A
00
18
00
ENDCHAR

STARTCHAR LATIN
ENCODING 7842
SWIDTH 500 0
DWIDTH 8 0
BBX 8 18 0 -3
BITMAP
00
18
08
00
00
18
24
24
42
42
7E
42
42
42
42
00
00
00
ENDCHAR

STARTCHAR LATIN
ENCODING 7843
SWIDTH 500 0
DWIDTH 8 0
BBX 8 18 0 -3
BITMAP
00
00
00
18
08
00
00
3C
42
02
3E
42
42
46
3A
00
00
00
ENDCHAR

STARTCHAR LATIN
ENCODING 7844
SWIDTH 500 0
DWIDTH 8 0
BBX 8 18 0 -3
BITMAP
00
31
4A
00
00
18
24
24
42
42
7E
42
42
42
42
00
00
00
ENDCHAR

STARTCHAR LATIN
ENCODING 7845
SWIDTH 500 0
DWIDTH 8 0
BBX 8 18 0 -3
BITMAP
00
00
00
31
4A
00
00
3C
42
02
3E
42
42
46
3A
00
00
00
ENDCHAR

STARTCHAR LATIN
ENCODING 7846
SWIDTH 500 0
DWIDTH 8 0
BBX 8 18 0 -3
BITMAP
00
46
29
00
00
18
24
24
42
42
7E
42
42
42
42
00
00
00
ENDCHAR

STARTCHAR LATIN
ENCODING 7847
SWIDTH 500 0
DWIDTH 8 0
BBX 8 18 0 -3
BITMAP
00
00
00
46
29
00
00
3C
42
02
3E
42
42
46
3A
00
00
00
ENDCHAR

STARTCHAR LATIN
ENCODING 7848
SWIDTH 500 0
DWIDTH 8 0
BBX 8 18 0 -3
BITMAP
00
33
49
00
00
18
24
24
42
42
7E
42
42
42
42
00
00
00
ENDCHAR

STARTCHAR LATIN
ENCODING 7849
SWIDTH 500 0
DWIDTH 8 0
BBX 8 18 0 -3
BITMAP
00
00
00
33
49
00
00
3C
42
02
3E
42
42
46
3A
00
00
00
ENDCHAR

STARTCHAR LATIN
ENCODING 7850
SWIDTH 500 0
DWIDTH 8 0
BBX 8 18 0 -3
BITMAP
00
32
4C
18
24
00
18
24
24
42
7E
42
42
42
42
00
00
00
ENDCHAR

STARTCHAR LATIN
ENCODING 7851
SWIDTH 500 0
DWIDTH 8 0
BBX 8 18 0 -3
BITMAP
00
32
4C
00
18
24
00
3C
42
02
3E
42
42
46
3A
00
00
00
ENDCHAR

STARTCHAR LATIN
ENCODING 7852
SWIDTH 500 0
DWIDTH 8 0
BBX 8 18 0 -3
BITMAP
00
18
24
00
00
18
24
24
42
42
7E
42
42
42
42
00
18
00
ENDCHAR

STARTCHAR LATIN
ENCODING 7853
SWIDTH 500 0
DWIDTH 8 0
BBX 8 18 0 -3
BITMAP
00
00
00
18
24
00
00
3C
42
02
3E
42
42
46
3A
00
18
00
ENDCHAR

STARTCHAR LATIN
ENCODING 7854
SWIDTH 500 0
DWIDTH 8 0
BBX 8 18 0 -3
BITMAP
00
08
10
42
3C
00
18
24
24
42
7E
42
42
42
42
00
00
00
ENDCHAR

STARTCHAR LATIN
ENCODING 7855
SWIDTH 500 0
DWIDTH 8 0
BBX 8 18 0 -3
BITMAP
00
0C
30
00
42
3C
00
3C
42
02
3E
42
42
46
3A
00
00
00
ENDCHAR

STARTCHAR LATIN
ENCODING 7856
SWIDTH 500 0
DWIDTH 8 0
BBX 8 18 0 -3
BITMAP
00
10
08
42
3C
00
18
24
24
42
7E
42
42
42
42
00
00
00
ENDCHAR

STARTCHAR LATIN
ENCODING 7857
SWIDTH 500 0
DWIDTH 8 0
BBX 8 18 0 -3
BITMAP
00
30
0C
00
42
3C
00
3C
42
02
3E
42
42
46
3A
00
00
00
ENDCHAR

STARTCHAR LATIN
ENCODING 7858
SWIDTH 500 0
DWIDTH 8 0
BBX 8 18 0 -3
BITMAP
00
18
08
42
3C
00
18
24
24
42
7E
42
42
42
42
00
00
00
ENDCHAR

STARTCHAR LATIN
ENCODING 7859
SWIDTH 500 0
DWIDTH 8 0
BBX 8 18 0 -3
BITMAP
00
18
08
00
42
3C
00
3C
42
02
3E
42
42
46
3A
00
00
00
ENDCHAR

STARTCHAR LATIN
ENCODING 7860
SWIDTH 500 0
DWIDTH 8 0
BBX 8 18 0 -3
BITMAP
00
32
4C
42
3C
00
18
24
24
42
7E
42
42
42
42
00
00
00
ENDCHAR

STARTCHAR LATIN
ENCODING 7861
SWIDTH 500 0
DWIDTH 8 0
BBX 8 18 0 -3
BITMAP
00
32
4C
00
42
3C
00
3C
42
02
3E
42
42
46
3A
00
00
00
ENDCHAR

STARTCHAR LATIN
ENCODING 7862
SWIDTH 500 0
DWIDTH 8 0
BBX 8 18 0 -3
BITMAP
00
42
42
3C
00
18
24
24
42
42
7E
42
42
42
42
00
18
00
ENDCHAR

STARTCHAR LATIN
ENCODING 7863
SWIDTH 500 0
DWIDTH 8 0
BBX 8 18 0 -3
BITMAP
00
00
00
42
42
3C
00
3C
42
02
3E
42
42
46
3A
00
18
00
ENDCHAR

STARTCHAR LATIN
ENCODING 7864
SWIDTH 500 0
DWIDTH 8 0
BBX 8 18 0 -3
BITMAP
00
00
00
00
00
7E
40
40
40
7C
40
40
40
40
7E
00
18
00
ENDCHAR

STARTCHAR LATIN
ENCODING 7865
SWIDTH 500 0
DWIDTH 8 0
BBX 8 18 0 -3
BITMAP
00
00
00
00
00
00
00
3C
42
42
7E
40
40
42
3C
00
18
00
ENDCHAR

STARTCHAR LATIN
ENCODING 7866
SWIDTH 500 0
DWIDTH 8 0
BBX 8 18 0 -3
BITMAP
00
18
08
00
00
7E
40
40
40
7C
40
40
40
40
7E
00
00
00
ENDCHAR

STARTCHAR LATIN
ENCODING 7867
SWIDTH 500 0
DWIDTH 8 0
BBX 8 18 0 -3
BITMAP
00
00
00
18
08
00
00
3C
42
42
7E
40
40
42
3C
00
00
00
ENDCHAR

STARTCHAR LATIN
ENCODING 7868
SWIDTH 500 0
DWIDTH 8 0
BBX 8 18 0 -3
BITMAP
00
32
4C
00
00
7E
40
40
40
7C
40
40
40
40
7E
00
00
00
ENDCHAR

STARTCHAR LATIN
ENCODING 7869
SWIDTH 500 0
DWIDTH 8 0
BBX 8 18 0 -3
BITMAP
00
00
00
32
4C
00
00
3C
42
42
7E
40
40
42
3C
00
00
00
ENDCHAR

STARTCHAR LATIN
ENCODING 7870
SWIDTH 500 0
DWIDTH 8 0
BBX 8 18 0 -3
BITMAP
00
31
4A
00
00
7E
40
40
40
7C
40
40
40
40
7E
00
00
00
ENDCHAR

STARTCHAR LATIN
ENCODING 7871
SWIDTH 500 0
DWIDTH 8 0
BBX 8 18 0 -3
BITMAP
00
00
00
31
4A
00
00
3C
42
42
7E
40
40
42
3C
00
00
00
ENDCHAR

STARTCHAR LATIN
ENCODING 7872
SWIDTH 500 0
DWIDTH 8 0
BBX 8 18 0 -3
BITMAP
00
46
29
00
00
7E
40
40
40
7C
40
40
40
40
7E
00
00
00
ENDCHAR

STARTCHAR LATIN
ENCODING 7873
SWIDTH 500 0
DWIDTH 8 0
BBX 8 18 0 -3
BITMAP
00
00
00
46
29
00
00
3C
42
42
7E
40
40
42
3C
00
00
00
ENDCHAR

STARTCHAR LATIN
ENCODING 7874
SWIDTH 500 0
DWIDTH 8 0
BBX 8 18 0 -3
BITMAP
00
33
49
00
00
7E
40
40
40
7C
40
40
40
40
7E
00
00
00
ENDCHAR

STARTCHAR LATIN
ENCODING 7875
SWIDTH 500 0
DWIDTH 8 0
BBX 8 18 0 -3
BITMAP
00
00
00
33
49
00
00
3C
42
42
7E
40
40
42
3C
00
00
00
ENDCHAR

STARTCHAR LATIN
ENCODING 7876
SWIDTH 500 0
DWIDTH 8 0
BBX 8 18 0 -3
BITMAP
00
32
4C
18
24
00
7E
40
40
40
7C
40
40
40
7E
00
00
00
ENDCHAR

STARTCHAR LATIN
ENCODING 7877
SWIDTH 500 0
DWIDTH 8 0
BBX 8 18 0 -3
BITMAP
00
32
4C
00
18
24
00
3C
42
42
7E
40
40
42
3C
00
00
00
ENDCHAR

STARTCHAR LATIN
ENCODING 7878
SWIDTH 500 0
DWIDTH 8 0
BBX 8 18 0 -3
BITMAP
00
18
24
00
00
7E
40
40
40
7C
40
40
40
40
7E
00
18
00
ENDCHAR

STARTCHAR LATIN
ENCODING 7879
SWIDTH 500 0
DWIDTH 8 0
BBX 8 18 0 -3
BITMAP
00
00
00
18
24
00
00
3C
42
42
7E
40
40
42
3C
00
18
00
ENDCHAR

STARTCHAR LATIN
ENCODING 7880
SWIDTH 500 0
DWIDTH 8 0
BBX 8 18 0 -3
BITMAP
00
18
08
00
00
3E
08
08
08
08
08
08
08
08
3E
00
00
00
ENDCHAR

STARTCHAR LATIN
ENCODING 7881
SWIDTH 500 0
DWIDTH 8 0
BBX 8 18 0 -3
BITMAP
00
00
00
00
18
08
00
18
08
08
08
08
08
08
3E
00
00
00
ENDCHAR

STARTCHAR LATIN
ENCODING 7882
SWIDTH 500 0
DWIDTH 8 0
BBX 8 18 0 -3
BITMAP
00
00
00
00
00
3E
08
08
08
08
08
08
08
08
3E
00
18
00
ENDCHAR

STARTCHAR LATIN
ENCODING 7883
SWIDTH 500 0
DWIDTH 8 0
BBX 8 18 0 -3
BITMAP
00
00
00
00
08
08
00
18
08
08
08
08
08
08
3E
00
18
00
ENDCHAR

STARTCHAR LATIN
ENCODING 7884
SWIDTH 500 0
DWIDTH 8 0
BBX 8 18 0 -3
BITMAP
00
00
00
00
00
3C
42
42
42
42
42
42
42
42
3C
00
18
00
ENDCHAR

STARTCHAR LATIN
ENCODING 7885
SWIDTH 500 0
DWIDTH 8 0
BBX 8 18 0 -3
BITMAP
00
00
00
00
00
00
00
3C
42
42
42
42
42
42
3C
00
18
00
ENDCHAR

STARTCHAR LATIN
ENCODING 7886
SWIDTH 500 0
DWIDTH 8 0
BBX 8 18 0 -3
BITMAP
00
18
08
00
00
3C
42
42
42
42
42
42
42
42
3C
00
00
00
ENDCHAR

STARTCHAR LATIN
ENCODING 7887
SWIDTH 500 0
DWIDTH 8 0
BBX 8 18 0 -3
BITMAP
00
00
00
18
08
00
00
3C
42
42
42
42
42
42
3C
00
00
00
ENDCHAR

STARTCHAR LATIN
ENCODING 7888
SWIDTH 500 0
DWIDTH 8 0
BBX 8 18 0 -3
BITMAP
00
31
4A
00
00
3C
42
42
42
42
42
42
42
42
3C
00
00
00
ENDCHAR

STARTCHAR LATIN
ENCODING 7889
SWIDTH 500 0
DWIDTH 8 0
BBX 8 18 0 -3
BITMAP
00
00
00
31
4A
00
00
3C
42
42
42
42
42
42
3C
00
00
00
ENDCHAR

STARTCHAR LATIN
ENCODING 7890
SWIDTH 500 0
DWIDTH 8 0
BBX 8 18 0 -3
BITMAP
00
46
29
00
00
3C
42
42
42
42
42
42
42
42
3C
00
00
00
ENDCHAR

STARTCHAR LATIN
ENCODING 7891
SWIDTH 500 0
DWIDTH 8 0
BBX 8 18 0 -3
BITMAP
00
00
00
46
29
00
00
3C
42
42
42
42
42
42
3C
00
00
00
ENDCHAR

STARTCHAR LATIN
ENCODING 7892
SWIDTH 500 0
DWIDTH 8 0
BBX 8 18 0 -3
BITMAP
00
33
49
00
00
3C
42
42
42
42
42
42
42
42
3C
00
00
00
ENDCHAR

STARTCHAR LATIN
ENCODING 7893
SWIDTH 500 0
DWIDTH 8 0
BBX 8 18 0 -3
BITMAP
00
00
00
33
49
00
00
3C
42
42
42
42
42
42
3C
00
00
00
ENDCHAR

STARTCHAR LATIN
ENCODING 7894
SWIDTH 500 0
DWIDTH 8 0
BBX 8 18 0 -3
BITMAP
00
32
4C
18
24
00
3C
42
42
42
42
42
42
42
3C
00
00
00
ENDCHAR

STARTCHAR LATIN
ENCODING 7895
SWIDTH 500 0
DWIDTH 8 0
BBX 8 18 0 -3
BITMAP
00
32
4C
00
18
24
00
3C
42
42
42
42
42
42
3C
00
00
00
ENDCHAR

STARTCHAR LATIN
ENCODING 7896
SWIDTH 500 0
DWIDTH 8 0
BBX 8 18 0 -3
BITMAP
00
18
24
00
00
3C
42
42
42
42
42
42
42
42
3C
00
18
00
ENDCHAR

STARTCHAR LATIN
ENCODING 7897
SWIDTH 500 0
DWIDTH 8 0
BBX 8 18 0 -3
BITMAP
00
00
00
18
24
00
00
3C
42
42
42
42
42
42
3C
00
18
00
ENDCHAR

STARTCHAR LATIN
ENCODING 7898
SWIDTH 500 0
DWIDTH 8 0
BBX 8 18 0 -3
BITMAP
00
0C
30
00
02
3A
44
44
44
44
44
44
44
44
38
00
00
00
ENDCHAR

STARTCHAR LATIN
ENCODING 7899
SWIDTH 500 0
DWIDTH 8 0
BBX 8 18 0 -3
BITMAP
00
00
00
0C
30
00
02
3A
44
44
44
44
44
44
38
00
00
00
ENDCHAR

STARTCHAR LATIN
ENCODING 7900
SWIDTH 500 0
DWIDTH 8 0
BBX 8 18 0 -3
BITMAP
00
30
0C
00
02
3A
44
44
44
44
44
44
44
44
38
00
00
00
ENDCHAR

STARTCHAR LATIN
ENCODING 7901
SWIDTH 500 0
DWIDTH 8 0
BBX 8 18 0 -3
BITMAP
00
00
00
30
0C
00
02
3A
44
44
44
44
44
44
38
00
00
00
ENDCHAR

STARTCHAR LATIN
ENCODING 7902
SWIDTH 500 0
DWIDTH 8 0
BBX 8 18 0 -3
BITMAP
00
18
08
00
02
3A
44
44
44
44
44
44
44
44
38
00
00
00
ENDCHAR

STARTCHAR LATIN
ENCODING 7903
SWIDTH 500 0
DWIDTH 8 0
BBX 8 18 0 -3
BITMAP
00
00
00
18
08
00
02
3A
44
44
44
44
44
44
38
00
00
00
ENDCHAR

STARTCHAR LATIN
ENCODING 7904
SWIDTH 500 0
DWIDTH 8 0
BBX 8 18 0 -3
BITMAP
00
32
4C
00
02
3A
44
44
44
44
44
44
44
44
38
00
00
00
ENDCHAR

STARTCHAR LATIN
ENCODING 7905
SWIDTH 500 0
DWIDTH 8 0
BBX 8 18 0 -3
BITMAP
00
00
00
32
4C
00
02
3A
44
44
44
44
44
44
38
00
00
00
ENDCHAR

STARTCHAR LATIN
ENCODING 7906
SWIDTH 500 0
DWIDTH 8 0
BBX 8 18 0 -3
BITMAP
00
00
00
00
02
3A
44
44
44
44
44
44
44
44
38
00
18
00
ENDCHAR

STARTCHAR LATIN
ENCODING 7907
SWIDTH 500 0
DWIDTH 8 0
BBX 8 18 0 -3
BITMAP
00
00
00
00
00
00
02
3A
44
44
44
44
44
44
38
00
18
00
ENDCHAR

STARTCHAR LATIN
ENCODING 7908
SWIDTH 500 0
DWIDTH 8 0
BBX 8 18 0 -3
BITMAP
00
00
00
00
00
42
42
42
42
42
42
42
42
42
3C
00
18
00
ENDCHAR

STARTCHAR LATIN
ENCODING 7909
SWIDTH 500 0
DWIDTH 8 0
BBX 8 18 0 -3
BITMAP
00
00
00
00
00
00
00
42
42
42
42
42
42
46
3A
00
18
00
ENDCHAR

STARTCHAR LATIN
ENCODING 7910
SWIDTH 500 0
DWIDTH 8 0
BBX 8 18 0 -3
BITMAP
00
18
08
00
00
42
42
42
42
42
42
42
42
42
3C
00
00
00
ENDCHAR

STARTCHAR LATIN
ENCODING 7911
SWIDTH 500 0
DWIDTH 8 0
BBX 8 18 0 -3
BITMAP
00
00
00
18
08
00
00
42
42
42
42
42
42
46
3A
00
00
00
ENDCHAR

STARTCHAR LATIN
ENCODING 7912
SWIDTH 500 0
DWIDTH 8 0
BBX 8 18 0 -3
BITMAP
00
0C
30
01
01
46
44
44
44
44
44
44
44
44
38
00
00
00
ENDCHAR

STARTCHAR LATIN
ENCODING 7913
SWIDTH 500 0
DWIDTH 8 0
BBX 8 18 0 -3
BITMAP
00
00
00
0C
30
01
01
46
44
44
44
44
44
4C
34
00
00
00
ENDCHAR

STARTCHAR LATIN
ENCODING 7914
SWIDTH 500 0
DWIDTH 8 0
BBX 8 18 0 -3
BITMAP
00
30
0C
01
01
46
44
44
44
44
44
44
44
44
38
00
00
00
ENDCHAR

STARTCHAR LATIN
ENCODING 7915
SWIDTH 500 0
DWIDTH 8 0
BBX 8 18 0 -3
BITMAP
00
00
00
30
0C
01
01
46
44
44
44
44
44
4C
34
00
00
00
ENDCHAR

STARTCHAR LATIN
ENCODING 7916
SWIDTH 500 0
DWIDTH 8 0
BBX 8 18 0 -3
BITMAP
00
30
10
01
01
46
44
44
44
44
44
44
44
44
38
00
00
00
ENDCHAR

STARTCHAR LATIN
ENCODING 7917
SWIDTH 500 0
DWIDTH 8 0
BBX 8 18 0 -3
BITMAP
00
00
00
30
10
01
01
46
44
44
44
44
44
4C
34
00
00
00
ENDCHAR

STARTCHAR LATIN
ENCODING 7918
SWIDTH 500 0
DWIDTH 8 0
BBX 8 18 0 -3
BITMAP
00
32
4C
01
01
46
44
44
44
44
44
44
44
44
38
00
00
00
ENDCHAR

STARTCHAR LATIN
ENCODING 7919
SWIDTH 500 0
DWIDTH 8 0
BBX 8 18 0 -3
BITMAP
00
00
00
32
4C
01
01
46
44
44
44
44
44
4C
34
00
00
00
ENDCHAR

STARTCHAR LATIN
ENCODING 7920
SWIDTH 500 0
DWIDTH 8 0
BBX 8 18 0 -3
BITMAP
00
00
00
01
01
46
44
44
44
44
44
44
44
44
38
00
18
00
ENDCHAR

STARTCHAR LATIN
ENCODING 7921
SWIDTH 500 0
DWIDTH 8 0
BBX 8 18 0 -3
BITMAP
00
00
00
00
00
01
01
46
44
44
44
44
44
4C
34
00
30
00
ENDCHAR

STARTCHAR LATIN
ENCODING 7922
SWIDTH 500 0
DWIDTH 8 0
BBX 8 18 0 -3
BITMAP
00
30
0C
00
00
41
41
22
22
14
08
08
08
08
08
00
00
00
ENDCHAR

STARTCHAR LATIN
ENCODING 7923
SWIDTH 500 0
DWIDTH 8 0
BBX 8 18 0 -3
BITMAP
00
00
00
30
0C
00
00
42
42
42
42
42
26
1A
02
02
3C
00
ENDCHAR

STARTCHAR LATIN
ENCODING 7924
SWIDTH 500 0
DWIDTH 8 0
BBX 8 18 0 -3
BITMAP
00
00
00
00
00
41
41
22
22
14
08
08
08
08
08
00
18
00
ENDCHAR

STARTCHAR LATIN
ENCODING 7925
SWIDTH 500 0
DWIDTH 8 0
BBX 8 18 0 -3
BITMAP
00
00
00
00
00
00
00
42
42
42
42
26
1A
02
3C
00
18
00
ENDCHAR

STARTCHAR LATIN
ENCODING 7926
SWIDTH 500 0
DWIDTH 8 0
BBX 8 18 0 -3
BITMAP
00
18
08
00
00
41
41
22
22
14
08
08
08
08
08
00
00
00
ENDCHAR

STARTCHAR LATIN
ENCODING 7927
SWIDTH 500 0
DWIDTH 8 0
BBX 8 18 0 -3
BITMAP
00
00
00
18
08
00
00
42
42
42
42
42
26
1A
02
02
3C
00
ENDCHAR

STARTCHAR LATIN
ENCODING 7928
SWIDTH 500 0
DWIDTH 8 0
BBX 8 18 0 -3
BITMAP
00
32
4C
00
00
41
41
22
22
14
08
08
08
08
08
00
00
00
ENDCHAR

STARTCHAR LATIN
ENCODING 7929
SWIDTH 500 0
DWIDTH 8 0
BBX 8 18 0 -3
BITMAP
00
00
00
32
4C
00
00
42
42
42
42
42
26
1A
02
02
3C
00
ENDCHAR

STARTCHAR GREEK
ENCODING 7936
SWIDTH 500 0
DWIDTH 8 0
BBX 8 18 0 -3
BITMAP
00
00
00
30
10
20
00
32
4A
44
44
44
44
4A
32
00
00
00
ENDCHAR

STARTCHAR GREEK
ENCODING 7937
SWIDTH 500 0
DWIDTH 8 0
BBX 8 18 0 -3
BITMAP
00
00
00
30
20
10
00
32
4A
44
44
44
44
4A
32
00
00
00
ENDCHAR

STARTCHAR GREEK
ENCODING 7938
SWIDTH 500 0
DWIDTH 8 0
BBX 8 18 0 -3
BITMAP
00
00
00
68
28
44
00
32
4A
44
44
44
44
4A
32
00
00
00
ENDCHAR

STARTCHAR GREEK
ENCODING 7939
SWIDTH 500 0
DWIDTH 8 0
BBX 8 18 0 -3
BITMAP
00
00
00
68
48
24
00
32
4A
44
44
44
44
4A
32
00
00
00
ENDCHAR

STARTCHAR GREEK
ENCODING 7940
SWIDTH 500 0
DWIDTH 8 0
BBX 8 18 0 -3
BITMAP
00
00
00
64
28
48
00
32
4A
44
44
44
44
4A
32
00
00
00
ENDCHAR

STARTCHAR GREEK
ENCODING 7941
SWIDTH 500 0
DWIDTH 8 0
BBX 8 18 0 -3
BITMAP
00
00
00
64
48
28
00
32
4A
44
44
44
44
4A
32
00
00
00
ENDCHAR

STARTCHAR GREEK
ENCODING 7942
SWIDTH 500 0
DWIDTH 8 0
BBX 8 18 0 -3
BITMAP
00
64
98
00
30
10
20
00
32
4A
44
44
44
4A
32
00
00
00
ENDCHAR

STARTCHAR GREEK
ENCODING 7943
SWIDTH 500 0
DWIDTH 8 0
BBX 8 18 0 -3
BITMAP
00
64
98
00
30
20
10
00
32
4A
44
44
44
4A
32
00
00
00
ENDCHAR

STARTCHAR GREEK
ENCODING 7944
SWIDTH 500 0
DWIDTH 8 0
BBX 8 18 0 -3
BITMAP
00
C0
40
80
00
18
24
24
42
42
7E
42
42
42
42
00
00
00
ENDCHAR

STARTCHAR GREEK
ENCODING 7945
SWIDTH 500 0
DWIDTH 8 0
BBX 8 18 0 -3
BITMAP
00
C0
80
40
00
18
24
24
42
42
7E
42
42
42
42
00
00
00
ENDCHAR

STARTCHAR GREEK
ENCODING 7946
SWIDTH 500 0
DWIDTH 8 0
BBX 8 18 0 -3
BITMAP
00
D0
50
88
00
18
24
24
42
42
7E
42
42
42
42
00
00
00
ENDCHAR

STARTCHAR GREEK
ENCODING 7947
SWIDTH 500 0
DWIDTH 8 0
BBX 8 18 0 -3
BITMAP
00
D0
90
48
00
18
24
24
42
42
7E
42
42
42
42
00
00
00
ENDCHAR

STARTCHAR GREEK
ENCODING 7948
SWIDTH 500 0
DWIDTH 8 0
BBX 8 18 0 -3
BITMAP
00
C8
50
90
00
18
24
24
42
42
7E
42
42
42
42
00
00
00
ENDCHAR

STARTCHAR GREEK
ENCODING 7949
SWIDTH 500 0
DWIDTH 8 0
BBX 8 18 0 -3
BITMAP
00
C8
90
50
00
18
24
24
42
42
7E
42
42
42
42
00
00
00
ENDCHAR

STARTCHAR GREEK
ENCODING 7950
SWIDTH 500 0
DWIDTH 8 0
BBX 8 18 0 -3
BITMAP
00
64
98
60
20
40
18
24
24
42
7E
42
42
42
42
00
00
00
ENDCHAR

STARTCHAR GREEK
ENCODING 7951
SWIDTH 500 0
DWIDTH 8 0
BBX 8 18 0 -3
BITMAP
00
64
98
60
40
20
18
24
24
42
7E
42
42
42
42
00
00
00
ENDCHAR

STARTCHAR GREEK
ENCODING 7952
SWIDTH 500 0
DWIDTH 8 0
BBX 8 18 0 -3
BITMAP
00
00
00
18
08
10
00
3C
42
40
3C
40
40
42
3C
00
00
00
ENDCHAR

STARTCHAR GREEK
ENCODING 7953
SWIDTH 500 0
DWIDTH 8 0
BBX 8 18 0 -3
BITMAP
00
00
00
18
10
08
00
3C
42
40
3C
40
40
42
3C
00
00
00
ENDCHAR

STARTCHAR GREEK
ENCODING 7954
SWIDTH 500 0
DWIDTH 8 0
BBX 8 18 0 -3
BITMAP
00
00
00
34
14
22
00
3C
42
40
3C
40
40
42
3C
00
00
00
ENDCHAR

STARTCHAR GREEK
ENCODING 7955
SWIDTH 500 0
DWIDTH 8 0
BBX 8 18 0 -3
BITMAP
00
00
00
34
24
12
00
3C
42
40
3C
40
40
42
3C
00
00
00
ENDCHAR

STARTCHAR GREEK
ENCODING 7956
SWIDTH 500 0
DWIDTH 8 0
BBX 8 18 0 -3
BITMAP
00
00
00
32
14
24
00
3C
42
40
3C
40
40
42
3C
00
00
00
ENDCHAR

STARTCHAR GREEK
ENCODING 7957
SWIDTH 500 0
DWIDTH 8 0
BBX 8 18 0 -3
BITMAP
00
00
00
32
24
14
00
3C
42
40
3C
40
40
42
3C
00
00
00
ENDCHAR

STARTCHAR GREEK
ENCODING 7960
SWIDTH 500 0
DWIDTH 8 0
BBX 8 18 0 -3
BITMAP
00
C0
40
80
00
7E
40
40
40
7C
40
40
40
40
7E
00
00
00
ENDCHAR

STARTCHAR GREEK
ENCODING 7961
SWIDTH 500 0
DWIDTH 8 0
BBX 8 18 0 -3
BITMAP
00
C0
80
40
00
7E
40
40
40
7C
40
40
40
40
7E
00
00
00
ENDCHAR

STARTCHAR GREEK
ENCODING 7962
SWIDTH 500 0
DWIDTH 8 0
BBX 8 18 0 -3
BITMAP
00
D0
50
88
00
7E
40
40
40
7C
40
40
40
40
7E
00
00
00
ENDCHAR

STARTCHAR GREEK
ENCODING 7963
SWIDTH 500 0
DWIDTH 8 0
BBX 8 18 0 -3
BITMAP
00
D0
90
48
00
7E
40
40
40
7C
40
40
40
40
7E
00
00
00
ENDCHAR

STARTCHAR GREEK
ENCODING 7964
SWIDTH 500 0
DWIDTH 8 0
BBX 8 18 0 -3
BITMAP
00
C8
50
90
00
7E
40
40
40
7C
40
40
40
40
7E
00
00
00
ENDCHAR

STARTCHAR GREEK
ENCODING 7965
SWIDTH 500 0
DWIDTH 8 0
BBX 8 18 0 -3
BITMAP
00
C8
90
50
00
7E
40
40
40
7C
40
40
40
40
7E
00
00
00
ENDCHAR

STARTCHAR GREEK
ENCODING 7968
SWIDTH 500 0
DWIDTH 8 0
BBX 8 18 0 -3
BITMAP
00
00
00
18
08
10
00
5C
62
42
42
42
42
42
42
02
02
00
ENDCHAR

STARTCHAR GREEK
ENCODING 7969
SWIDTH 500 0
DWIDTH 8 0
BBX 8 18 0 -3
BITMAP
00
00
00
18
10
08
00
5C
62
42
42
42
42
42
42
02
02
00
ENDCHAR

STARTCHAR GREEK
ENCODING 7970
SWIDTH 500 0
DWIDTH 8 0
BBX 8 18 0 -3
BITMAP
00
00
00
34
14
22
00
5C
62
42
42
42
42
42
42
02
02
00
ENDCHAR

STARTCHAR GREEK
ENCODING 7971
SWIDTH 500 0
DWIDTH 8 0
BBX 8 18 0 -3
BITMAP
00
00
00
34
24
12
00
5C
62
42
42
42
42
42
42
02
02
00
ENDCHAR

STARTCHAR GREEK
ENCODING 7972
SWIDTH 500 0
DWIDTH 8 0
BBX 8 18 0 -3
BITMAP
00
00
00
32
14
24
00
5C
62
42
42
42
42
42
42
02
02
00
ENDCHAR

STARTCHAR GREEK
ENCODING 7973
SWIDTH 500 0
DWIDTH 8 0
BBX 8 18 0 -3
BITMAP
00
00
00
32
24
14
00
5C
62
42
42
42
42
42
42
02
02
00
ENDCHAR

STARTCHAR GREEK
ENCODING 7974
SWIDTH 500 0
DWIDTH 8 0
BBX 8 18 0 -3
BITMAP
00
32
4C
00
18
08
10
00
5C
62
42
42
42
42
42
02
02
00
ENDCHAR

STARTCHAR GREEK
ENCODING 7975
SWIDTH 500 0
DWIDTH 8 0
BBX 8 18 0 -3
BITMAP
00
32
4C
00
18
10
08
00
5C
62
42
42
42
42
42
02
02
00
ENDCHAR

STARTCHAR GREEK
ENCODING 7976
SWIDTH 500 0
DWIDTH 8 0
BBX 8 18 0 -3
BITMAP
00
C0
40
80
00
42
42
42
42
7E
42
42
42
42
42
00
00
00
ENDCHAR

STARTCHAR GREEK
ENCODING 7977
SWIDTH 500 0
DWIDTH 8 0
BBX 8 18 0 -3
BITMAP
00
C0
80
40
00
42
42
42
42
7E
42
42
42
42
42
00
00
00
ENDCHAR

ENDFONT
